<svg xmlns="http://www.w3.org/2000/svg" width="442" height="351" fill="none" viewBox="0 0 442 351"><rect width="158" height="130" x="7" y="78" stroke="#C0CDE7" stroke-dasharray="2 2" stroke-width="2"/><rect width="158" height="207" x="277" y="89" stroke="#C0CDE7" stroke-dasharray="2 2" stroke-width="2"/><path fill="#8798BA" d="M435.5 185L441.129 177.5H429.871L435.5 185Z"/><rect width="370" height="201" x="39" fill="#304163" rx="9"/><path fill="#B48EAD" d="M85.59 47.18C84.87 47.18 84.235 47.02 83.685 46.7C83.135 46.37 82.705 45.915 82.395 45.335C82.085 44.755 81.93 44.08 81.93 43.31C81.93 42.53 82.08 41.845 82.38 41.255C82.69 40.665 83.12 40.205 83.67 39.875C84.23 39.545 84.875 39.38 85.605 39.38C86.325 39.38 86.945 39.545 87.465 39.875C87.985 40.195 88.385 40.625 88.665 41.165C88.955 41.705 89.1 42.3 89.1 42.95C89.1 43.05 89.1 43.16 89.1 43.28C89.1 43.39 89.095 43.515 89.085 43.655H83.49C83.54 44.345 83.765 44.87 84.165 45.23C84.565 45.58 85.035 45.755 85.575 45.755C86.045 45.755 86.415 45.66 86.685 45.47C86.965 45.27 87.17 45 87.3 44.66H88.905C88.725 45.37 88.35 45.97 87.78 46.46C87.21 46.94 86.48 47.18 85.59 47.18ZM85.59 40.76C85.1 40.76 84.665 40.91 84.285 41.21C83.905 41.5 83.66 41.91 83.55 42.44H87.51C87.47 41.94 87.275 41.535 86.925 41.225C86.575 40.915 86.13 40.76 85.59 40.76ZM89.9941 47L92.5441 43.28L89.9041 39.56H91.6741L93.5941 42.335L95.5141 39.56H97.2841L94.6441 43.28L97.1941 47H95.4241L93.5941 44.225L91.7491 47H89.9941ZM98.2233 50.3V39.56H99.6033L99.7233 40.7H99.8133C100.013 40.33 100.313 40.02 100.713 39.77C101.123 39.51 101.608 39.38 102.168 39.38C102.748 39.38 103.278 39.53 103.758 39.83C104.238 40.12 104.618 40.555 104.898 41.135C105.188 41.705 105.333 42.42 105.333 43.28C105.333 44.13 105.183 44.845 104.883 45.425C104.593 46.005 104.198 46.445 103.698 46.745C103.198 47.035 102.638 47.18 102.018 47.18C101.468 47.18 101.008 47.07 100.638 46.85C100.268 46.63 99.9933 46.38 99.8133 46.1V50.3H98.2233ZM101.748 45.665C102.308 45.665 102.773 45.465 103.143 45.065C103.523 44.665 103.713 44.065 103.713 43.265C103.713 42.465 103.523 41.87 103.143 41.48C102.773 41.09 102.308 40.895 101.748 40.895C101.178 40.895 100.703 41.095 100.323 41.495C99.9533 41.885 99.7683 42.48 99.7683 43.28C99.7683 44.07 99.9533 44.665 100.323 45.065C100.703 45.465 101.178 45.665 101.748 45.665ZM109.782 47.18C109.072 47.18 108.437 47.02 107.877 46.7C107.317 46.38 106.877 45.93 106.557 45.35C106.237 44.76 106.077 44.07 106.077 43.28C106.077 42.49 106.237 41.805 106.557 41.225C106.877 40.635 107.317 40.18 107.877 39.86C108.437 39.54 109.077 39.38 109.797 39.38C110.517 39.38 111.152 39.54 111.702 39.86C112.262 40.18 112.697 40.635 113.007 41.225C113.327 41.805 113.487 42.49 113.487 43.28C113.487 44.07 113.327 44.76 113.007 45.35C112.687 45.93 112.247 46.38 111.687 46.7C111.137 47.02 110.502 47.18 109.782 47.18ZM109.782 45.665C110.162 45.665 110.512 45.58 110.832 45.41C111.152 45.24 111.407 44.98 111.597 44.63C111.797 44.27 111.897 43.82 111.897 43.28C111.897 42.73 111.797 42.28 111.597 41.93C111.407 41.58 111.152 41.32 110.832 41.15C110.522 40.98 110.177 40.895 109.797 40.895C109.417 40.895 109.067 40.98 108.747 41.15C108.427 41.32 108.167 41.58 107.967 41.93C107.777 42.28 107.682 42.73 107.682 43.28C107.682 44.1 107.887 44.705 108.297 45.095C108.717 45.475 109.212 45.665 109.782 45.665ZM114.532 47V45.62H116.347V41.435C116.347 41.105 116.187 40.94 115.867 40.94H114.682V39.56H116.467C116.877 39.56 117.212 39.68 117.472 39.92C117.732 40.15 117.862 40.475 117.862 40.895V41.075H117.937C118.047 40.515 118.282 40.095 118.642 39.815C119.012 39.525 119.547 39.38 120.247 39.38H121.402V41.06H119.782C119.192 41.06 118.737 41.265 118.417 41.675C118.097 42.085 117.937 42.575 117.937 43.145V45.62H120.247V47H114.532ZM126.781 47C126.051 47 125.471 46.825 125.041 46.475C124.611 46.115 124.396 45.48 124.396 44.57V40.91H122.521V39.56H123.631C124.141 39.56 124.441 39.31 124.531 38.81L124.756 37.61H125.986V39.56H128.926V40.91H125.986V44.54C125.986 44.93 126.071 45.205 126.241 45.365C126.421 45.515 126.726 45.59 127.156 45.59H128.896V47H126.781ZM141.754 47.18C141.134 47.18 140.579 47.035 140.089 46.745C139.599 46.445 139.209 46.005 138.919 45.425C138.639 44.845 138.499 44.13 138.499 43.28C138.499 42.43 138.644 41.715 138.934 41.135C139.224 40.555 139.614 40.12 140.104 39.83C140.604 39.53 141.159 39.38 141.769 39.38C142.339 39.38 142.809 39.49 143.179 39.71C143.549 39.92 143.824 40.19 144.004 40.52V36.2H145.594V47H144.229L144.094 45.905H144.004C143.804 46.295 143.519 46.605 143.149 46.835C142.789 47.065 142.324 47.18 141.754 47.18ZM142.084 45.665C142.654 45.665 143.124 45.465 143.494 45.065C143.874 44.665 144.064 44.07 144.064 43.28C144.064 42.48 143.874 41.885 143.494 41.495C143.124 41.095 142.654 40.895 142.084 40.895C141.514 40.895 141.039 41.095 140.659 41.495C140.289 41.895 140.104 42.495 140.104 43.295C140.104 44.085 140.289 44.68 140.659 45.08C141.039 45.47 141.514 45.665 142.084 45.665ZM150.343 47.18C149.623 47.18 148.988 47.02 148.438 46.7C147.888 46.37 147.458 45.915 147.148 45.335C146.838 44.755 146.683 44.08 146.683 43.31C146.683 42.53 146.833 41.845 147.133 41.255C147.443 40.665 147.873 40.205 148.423 39.875C148.983 39.545 149.628 39.38 150.358 39.38C151.078 39.38 151.698 39.545 152.218 39.875C152.738 40.195 153.138 40.625 153.418 41.165C153.708 41.705 153.853 42.3 153.853 42.95C153.853 43.05 153.853 43.16 153.853 43.28C153.853 43.39 153.848 43.515 153.838 43.655H148.243C148.293 44.345 148.518 44.87 148.918 45.23C149.318 45.58 149.788 45.755 150.328 45.755C150.798 45.755 151.168 45.66 151.438 45.47C151.718 45.27 151.923 45 152.053 44.66H153.658C153.478 45.37 153.103 45.97 152.533 46.46C151.963 46.94 151.233 47.18 150.343 47.18ZM150.343 40.76C149.853 40.76 149.418 40.91 149.038 41.21C148.658 41.5 148.413 41.91 148.303 42.44H152.263C152.223 41.94 152.028 41.535 151.678 41.225C151.328 40.915 150.883 40.76 150.343 40.76ZM154.882 50.3V48.905H156.097C156.447 48.905 156.697 48.83 156.847 48.68C157.007 48.54 157.087 48.3 157.087 47.96V40.91H155.197V39.56H157.087V38.525C157.087 37.695 157.292 37.1 157.702 36.74C158.112 36.38 158.697 36.2 159.457 36.2H161.272V37.595H159.652C159.302 37.595 159.052 37.665 158.902 37.805C158.752 37.945 158.677 38.19 158.677 38.54V39.56H161.272V40.91H158.677V47.975C158.677 48.805 158.472 49.4 158.062 49.76C157.652 50.12 157.062 50.3 156.292 50.3H154.882ZM165.766 47.18C165.176 47.18 164.681 47.08 164.281 46.88C163.881 46.67 163.581 46.395 163.381 46.055C163.181 45.705 163.081 45.325 163.081 44.915C163.081 44.185 163.346 43.615 163.876 43.205C164.416 42.795 165.176 42.59 166.156 42.59H168.076V42.425C168.076 41.305 167.556 40.745 166.516 40.745C166.086 40.745 165.721 40.84 165.421 41.03C165.131 41.21 164.936 41.505 164.836 41.915H163.246C163.326 41.135 163.661 40.52 164.251 40.07C164.851 39.61 165.606 39.38 166.516 39.38C167.616 39.38 168.416 39.65 168.916 40.19C169.416 40.73 169.666 41.475 169.666 42.425V47H168.316L168.181 45.905H168.076C167.856 46.255 167.581 46.555 167.251 46.805C166.921 47.055 166.426 47.18 165.766 47.18ZM166.066 45.845C166.716 45.845 167.201 45.65 167.521 45.26C167.851 44.86 168.031 44.355 168.061 43.745H166.321C165.751 43.745 165.346 43.84 165.106 44.03C164.876 44.21 164.761 44.465 164.761 44.795C164.761 45.125 164.876 45.385 165.106 45.575C165.346 45.755 165.666 45.845 166.066 45.845ZM173.876 47.18C172.976 47.18 172.291 46.905 171.821 46.355C171.361 45.795 171.131 44.985 171.131 43.925V39.56H172.721V43.73C172.721 44.34 172.851 44.82 173.111 45.17C173.381 45.51 173.791 45.68 174.341 45.68C174.891 45.68 175.351 45.495 175.721 45.125C176.091 44.755 176.276 44.22 176.276 43.52V39.56H177.866V47H176.486L176.351 45.89H176.276C176.076 46.25 175.766 46.555 175.346 46.805C174.926 47.055 174.436 47.18 173.876 47.18ZM179.15 47V45.62H181.64V38.075C181.64 37.745 181.48 37.58 181.16 37.58H179.36V36.2H181.445C182.025 36.2 182.465 36.355 182.765 36.665C183.075 36.965 183.23 37.405 183.23 37.985V45.62H185.735V47H179.15ZM191.534 47C190.804 47 190.224 46.825 189.794 46.475C189.364 46.115 189.149 45.48 189.149 44.57V40.91H187.274V39.56H188.384C188.894 39.56 189.194 39.31 189.284 38.81L189.509 37.61H190.739V39.56H193.679V40.91H190.739V44.54C190.739 44.93 190.824 45.205 190.994 45.365C191.174 45.515 191.479 45.59 191.909 45.59H193.649V47H191.534Z"/><path fill="#C0C5CE" d="M208.307 49.775C207.557 49.775 206.957 49.58 206.507 49.19C206.057 48.8 205.832 48.215 205.832 47.435C205.832 47.055 205.857 46.715 205.907 46.415C205.967 46.115 206.022 45.805 206.072 45.485C206.132 45.165 206.162 44.795 206.162 44.375C206.162 43.985 206.047 43.66 205.817 43.4C205.597 43.14 205.222 43.01 204.692 43.01H204.017V41.6H204.692C205.222 41.6 205.597 41.47 205.817 41.21C206.047 40.95 206.162 40.625 206.162 40.235C206.162 39.805 206.132 39.435 206.072 39.125C206.022 38.805 205.967 38.495 205.907 38.195C205.857 37.885 205.832 37.54 205.832 37.16C205.832 36.39 206.057 35.81 206.507 35.42C206.957 35.03 207.557 34.835 208.307 34.835H209.837V36.23H208.547C208.157 36.23 207.862 36.32 207.662 36.5C207.472 36.68 207.377 36.975 207.377 37.385C207.377 37.715 207.402 38.02 207.452 38.3C207.502 38.58 207.552 38.87 207.602 39.17C207.652 39.47 207.677 39.82 207.677 40.22C207.677 40.75 207.562 41.195 207.332 41.555C207.112 41.905 206.812 42.14 206.432 42.26V42.35C206.812 42.47 207.112 42.71 207.332 43.07C207.562 43.42 207.677 43.86 207.677 44.39C207.677 44.79 207.652 45.14 207.602 45.44C207.552 45.74 207.502 46.03 207.452 46.31C207.402 46.58 207.377 46.885 207.377 47.225C207.377 47.625 207.472 47.915 207.662 48.095C207.862 48.285 208.157 48.38 208.547 48.38H209.837V49.775H208.307ZM98.3583 66V58.56H99.7383L99.8733 59.67H99.9483C100.148 59.31 100.458 59.005 100.878 58.755C101.298 58.505 101.783 58.38 102.333 58.38C103.243 58.38 103.928 58.655 104.388 59.205C104.848 59.755 105.078 60.565 105.078 61.635V66H103.488V61.83C103.488 61.21 103.358 60.73 103.098 60.39C102.838 60.05 102.428 59.88 101.868 59.88C101.318 59.88 100.858 60.065 100.488 60.435C100.128 60.805 99.9483 61.34 99.9483 62.04V66H98.3583ZM109.107 66.18C108.517 66.18 108.022 66.08 107.622 65.88C107.222 65.67 106.922 65.395 106.722 65.055C106.522 64.705 106.422 64.325 106.422 63.915C106.422 63.185 106.687 62.615 107.217 62.205C107.757 61.795 108.517 61.59 109.497 61.59H111.417V61.425C111.417 60.305 110.897 59.745 109.857 59.745C109.427 59.745 109.062 59.84 108.762 60.03C108.472 60.21 108.277 60.505 108.177 60.915H106.587C106.667 60.135 107.002 59.52 107.592 59.07C108.192 58.61 108.947 58.38 109.857 58.38C110.957 58.38 111.757 58.65 112.257 59.19C112.757 59.73 113.007 60.475 113.007 61.425V66H111.657L111.522 64.905H111.417C111.197 65.255 110.922 65.555 110.592 65.805C110.262 66.055 109.767 66.18 109.107 66.18ZM109.407 64.845C110.057 64.845 110.542 64.65 110.862 64.26C111.192 63.86 111.372 63.355 111.402 62.745H109.662C109.092 62.745 108.687 62.84 108.447 63.03C108.217 63.21 108.102 63.465 108.102 63.795C108.102 64.125 108.217 64.385 108.447 64.575C108.687 64.755 109.007 64.845 109.407 64.845ZM113.752 66V58.56H115.072L115.207 59.43H115.282C115.412 59.12 115.612 58.87 115.882 58.68C116.152 58.48 116.472 58.38 116.842 58.38C117.202 58.38 117.517 58.47 117.787 58.65C118.057 58.83 118.257 59.09 118.387 59.43H118.447C118.577 59.13 118.782 58.88 119.062 58.68C119.342 58.48 119.687 58.38 120.097 58.38C120.647 58.38 121.062 58.56 121.342 58.92C121.632 59.28 121.777 59.785 121.777 60.435V66H120.247V60.75C120.247 60.45 120.182 60.215 120.052 60.045C119.932 59.865 119.737 59.775 119.467 59.775C119.197 59.775 118.972 59.88 118.792 60.09C118.622 60.3 118.537 60.595 118.537 60.975V66H116.992V60.75C116.992 60.45 116.932 60.215 116.812 60.045C116.692 59.865 116.497 59.775 116.227 59.775C115.957 59.775 115.732 59.88 115.552 60.09C115.372 60.3 115.282 60.595 115.282 60.975V66H113.752ZM126.061 66.18C125.341 66.18 124.706 66.02 124.156 65.7C123.606 65.37 123.176 64.915 122.866 64.335C122.556 63.755 122.401 63.08 122.401 62.31C122.401 61.53 122.551 60.845 122.851 60.255C123.161 59.665 123.591 59.205 124.141 58.875C124.701 58.545 125.346 58.38 126.076 58.38C126.796 58.38 127.416 58.545 127.936 58.875C128.456 59.195 128.856 59.625 129.136 60.165C129.426 60.705 129.571 61.3 129.571 61.95C129.571 62.05 129.571 62.16 129.571 62.28C129.571 62.39 129.566 62.515 129.556 62.655H123.961C124.011 63.345 124.236 63.87 124.636 64.23C125.036 64.58 125.506 64.755 126.046 64.755C126.516 64.755 126.886 64.66 127.156 64.47C127.436 64.27 127.641 64 127.771 63.66H129.376C129.196 64.37 128.821 64.97 128.251 65.46C127.681 65.94 126.951 66.18 126.061 66.18ZM126.061 59.76C125.571 59.76 125.136 59.91 124.756 60.21C124.376 60.5 124.131 60.91 124.021 61.44H127.981C127.941 60.94 127.746 60.535 127.396 60.225C127.046 59.915 126.601 59.76 126.061 59.76ZM134.065 66.09C133.695 66.09 133.38 65.97 133.12 65.73C132.86 65.48 132.73 65.18 132.73 64.83C132.73 64.48 132.86 64.185 133.12 63.945C133.38 63.705 133.695 63.585 134.065 63.585C134.445 63.585 134.76 63.705 135.01 63.945C135.27 64.185 135.4 64.48 135.4 64.83C135.4 65.18 135.27 65.48 135.01 65.73C134.76 65.97 134.445 66.09 134.065 66.09ZM134.065 60.27C133.695 60.27 133.38 60.15 133.12 59.91C132.86 59.66 132.73 59.36 132.73 59.01C132.73 58.66 132.86 58.365 133.12 58.125C133.38 57.885 133.695 57.765 134.065 57.765C134.445 57.765 134.76 57.885 135.01 58.125C135.27 58.365 135.4 58.66 135.4 59.01C135.4 59.36 135.27 59.66 135.01 59.91C134.76 60.15 134.445 60.27 134.065 60.27ZM204.572 67.875L206.012 63.675H208.097L206.132 67.875H204.572ZM98.3433 85V83.62H100.158V79.435C100.158 79.105 99.9983 78.94 99.6783 78.94H98.4933V77.56H100.278C100.688 77.56 101.023 77.68 101.283 77.92C101.543 78.15 101.673 78.475 101.673 78.895V79.075H101.748C101.858 78.515 102.093 78.095 102.453 77.815C102.823 77.525 103.358 77.38 104.058 77.38H105.213V79.06H103.593C103.003 79.06 102.548 79.265 102.228 79.675C101.908 80.085 101.748 80.575 101.748 81.145V83.62H104.058V85H98.3433ZM109.122 85.18C108.222 85.18 107.537 84.905 107.067 84.355C106.607 83.795 106.377 82.985 106.377 81.925V77.56H107.967V81.73C107.967 82.34 108.097 82.82 108.357 83.17C108.627 83.51 109.037 83.68 109.587 83.68C110.137 83.68 110.597 83.495 110.967 83.125C111.337 82.755 111.522 82.22 111.522 81.52V77.56H113.112V85H111.732L111.597 83.89H111.522C111.322 84.25 111.012 84.555 110.592 84.805C110.172 85.055 109.682 85.18 109.122 85.18ZM114.547 85V77.56H115.927L116.062 78.67H116.137C116.337 78.31 116.647 78.005 117.067 77.755C117.487 77.505 117.972 77.38 118.522 77.38C119.432 77.38 120.117 77.655 120.577 78.205C121.037 78.755 121.267 79.565 121.267 80.635V85H119.677V80.83C119.677 80.21 119.547 79.73 119.287 79.39C119.027 79.05 118.617 78.88 118.057 78.88C117.507 78.88 117.047 79.065 116.677 79.435C116.317 79.805 116.137 80.34 116.137 81.04V85H114.547ZM125.971 85.09C125.601 85.09 125.286 84.97 125.026 84.73C124.766 84.48 124.636 84.18 124.636 83.83C124.636 83.48 124.766 83.185 125.026 82.945C125.286 82.705 125.601 82.585 125.971 82.585C126.351 82.585 126.666 82.705 126.916 82.945C127.176 83.185 127.306 83.48 127.306 83.83C127.306 84.18 127.176 84.48 126.916 84.73C126.666 84.97 126.351 85.09 125.971 85.09ZM125.971 79.27C125.601 79.27 125.286 79.15 125.026 78.91C124.766 78.66 124.636 78.36 124.636 78.01C124.636 77.66 124.766 77.365 125.026 77.125C125.286 76.885 125.601 76.765 125.971 76.765C126.351 76.765 126.666 76.885 126.916 77.125C127.176 77.365 127.306 77.66 127.306 78.01C127.306 78.36 127.176 78.66 126.916 78.91C126.666 79.15 126.351 79.27 125.971 79.27ZM162.961 78.58V77.155H169.921V78.58H162.961ZM162.961 82.345V80.92H169.921V82.345H162.961ZM171.506 83.845L175.466 79.81V79.69L171.506 75.67H173.636L177.626 79.735L173.636 83.845H171.506ZM247.383 85.09C247.013 85.09 246.698 84.97 246.438 84.73C246.178 84.48 246.048 84.18 246.048 83.83C246.048 83.48 246.178 83.185 246.438 82.945C246.698 82.705 247.013 82.585 247.383 82.585C247.763 82.585 248.078 82.705 248.328 82.945C248.588 83.185 248.718 83.48 248.718 83.83C248.718 84.18 248.588 84.48 248.328 84.73C248.078 84.97 247.763 85.09 247.383 85.09ZM251.997 85V83.62H254.487V76.075C254.487 75.745 254.327 75.58 254.007 75.58H252.207V74.2H254.292C254.872 74.2 255.312 74.355 255.612 74.665C255.922 74.965 256.077 75.405 256.077 75.985V83.62H258.582V85H251.997ZM263.571 85.18C262.861 85.18 262.226 85.02 261.666 84.7C261.106 84.38 260.666 83.93 260.346 83.35C260.026 82.76 259.866 82.07 259.866 81.28C259.866 80.49 260.026 79.805 260.346 79.225C260.666 78.635 261.106 78.18 261.666 77.86C262.226 77.54 262.866 77.38 263.586 77.38C264.306 77.38 264.941 77.54 265.491 77.86C266.051 78.18 266.486 78.635 266.796 79.225C267.116 79.805 267.276 80.49 267.276 81.28C267.276 82.07 267.116 82.76 266.796 83.35C266.476 83.93 266.036 84.38 265.476 84.7C264.926 85.02 264.291 85.18 263.571 85.18ZM263.571 83.665C263.951 83.665 264.301 83.58 264.621 83.41C264.941 83.24 265.196 82.98 265.386 82.63C265.586 82.27 265.686 81.82 265.686 81.28C265.686 80.73 265.586 80.28 265.386 79.93C265.196 79.58 264.941 79.32 264.621 79.15C264.311 78.98 263.966 78.895 263.586 78.895C263.206 78.895 262.856 78.98 262.536 79.15C262.216 79.32 261.956 79.58 261.756 79.93C261.566 80.28 261.471 80.73 261.471 81.28C261.471 82.1 261.676 82.705 262.086 83.095C262.506 83.475 263.001 83.665 263.571 83.665ZM271.5 82.855C271.04 82.855 270.615 82.78 270.225 82.63L269.85 83.08C269.73 83.23 269.695 83.375 269.745 83.515C269.805 83.645 269.94 83.71 270.15 83.71H272.115C272.985 83.71 273.685 83.895 274.215 84.265C274.755 84.625 275.025 85.18 275.025 85.93C275.025 86.4 274.905 86.825 274.665 87.205C274.435 87.595 274.06 87.905 273.54 88.135C273.03 88.365 272.355 88.48 271.515 88.48C270.455 88.48 269.6 88.28 268.95 87.88C268.31 87.49 267.99 86.9 267.99 86.11C267.99 85.83 268.055 85.57 268.185 85.33C268.325 85.1 268.505 84.89 268.725 84.7C268.455 84.5 268.29 84.22 268.23 83.86C268.18 83.49 268.29 83.135 268.56 82.795L269.22 81.955C268.75 81.455 268.515 80.84 268.515 80.11C268.515 79.62 268.63 79.17 268.86 78.76C269.1 78.34 269.44 78.005 269.88 77.755C270.33 77.505 270.87 77.38 271.5 77.38C271.91 77.38 272.29 77.44 272.64 77.56H275.445V78.61L274.14 78.685V78.82C274.35 79.21 274.455 79.64 274.455 80.11C274.455 80.6 274.335 81.055 274.095 81.475C273.865 81.895 273.53 82.23 273.09 82.48C272.65 82.73 272.12 82.855 271.5 82.855ZM271.5 81.58C271.94 81.58 272.3 81.45 272.58 81.19C272.87 80.93 273.015 80.57 273.015 80.11C273.015 79.67 272.87 79.32 272.58 79.06C272.3 78.8 271.94 78.67 271.5 78.67C271.05 78.67 270.68 78.8 270.39 79.06C270.11 79.32 269.97 79.67 269.97 80.11C269.97 80.57 270.11 80.93 270.39 81.19C270.68 81.45 271.05 81.58 271.5 81.58ZM269.49 85.99C269.49 86.39 269.68 86.685 270.06 86.875C270.45 87.065 270.935 87.16 271.515 87.16C272.135 87.16 272.625 87.055 272.985 86.845C273.345 86.635 273.525 86.34 273.525 85.96C273.525 85.64 273.395 85.385 273.135 85.195C272.875 85.015 272.435 84.925 271.815 84.925H270.06C269.68 85.225 269.49 85.58 269.49 85.99ZM280.284 87.775C279.754 87.175 279.269 86.515 278.829 85.795C278.399 85.085 278.054 84.28 277.794 83.38C277.544 82.48 277.419 81.455 277.419 80.305C277.419 79.145 277.544 78.12 277.794 77.23C278.054 76.33 278.399 75.525 278.829 74.815C279.269 74.095 279.754 73.435 280.284 72.835H281.904V73.03C281.324 73.7 280.819 74.395 280.389 75.115C279.959 75.825 279.624 76.605 279.384 77.455C279.144 78.295 279.024 79.245 279.024 80.305C279.024 81.355 279.144 82.305 279.384 83.155C279.624 84.005 279.959 84.785 280.389 85.495C280.819 86.215 281.324 86.91 281.904 87.58V87.775H280.284ZM350.462 87.775V87.58C351.042 86.91 351.547 86.215 351.977 85.495C352.407 84.785 352.742 84.005 352.982 83.155C353.222 82.305 353.342 81.355 353.342 80.305C353.342 79.245 353.222 78.295 352.982 77.455C352.742 76.605 352.407 75.825 351.977 75.115C351.547 74.395 351.042 73.7 350.462 73.03V72.835H352.082C352.612 73.435 353.092 74.095 353.522 74.815C353.962 75.525 354.307 76.33 354.557 77.23C354.817 78.12 354.947 79.145 354.947 80.305C354.947 81.455 354.817 82.48 354.557 83.38C354.307 84.28 353.962 85.085 353.522 85.795C353.092 86.515 352.612 87.175 352.082 87.775H350.462ZM358.361 86.875L359.801 82.675H361.886L359.921 86.875H358.361ZM82.575 106.775V105.38H83.865C84.255 105.38 84.545 105.285 84.735 105.095C84.935 104.915 85.035 104.625 85.035 104.225C85.035 103.885 85.01 103.58 84.96 103.31C84.91 103.03 84.86 102.74 84.81 102.44C84.76 102.14 84.735 101.79 84.735 101.39C84.735 100.86 84.85 100.42 85.08 100.07C85.31 99.71 85.61 99.47 85.98 99.35V99.26C85.61 99.14 85.31 98.905 85.08 98.555C84.85 98.195 84.735 97.75 84.735 97.22C84.735 96.82 84.76 96.47 84.81 96.17C84.86 95.87 84.91 95.58 84.96 95.3C85.01 95.02 85.035 94.715 85.035 94.385C85.035 93.975 84.935 93.68 84.735 93.5C84.545 93.32 84.255 93.23 83.865 93.23H82.575V91.835H84.105C84.855 91.835 85.455 92.03 85.905 92.42C86.355 92.81 86.58 93.39 86.58 94.16C86.58 94.54 86.55 94.885 86.49 95.195C86.44 95.495 86.385 95.805 86.325 96.125C86.275 96.435 86.25 96.805 86.25 97.235C86.25 97.625 86.36 97.95 86.58 98.21C86.81 98.47 87.19 98.6 87.72 98.6H88.395V100.01H87.72C87.19 100.01 86.81 100.14 86.58 100.4C86.36 100.66 86.25 100.985 86.25 101.375C86.25 101.795 86.275 102.165 86.325 102.485C86.385 102.805 86.44 103.115 86.49 103.415C86.55 103.715 86.58 104.055 86.58 104.435C86.58 105.215 86.355 105.8 85.905 106.19C85.455 106.58 84.855 106.775 84.105 106.775H82.575ZM93.5941 98.27C93.2241 98.27 92.9091 98.15 92.6491 97.91C92.3891 97.66 92.2591 97.36 92.2591 97.01C92.2591 96.66 92.3891 96.365 92.6491 96.125C92.9091 95.885 93.2241 95.765 93.5941 95.765C93.9741 95.765 94.2891 95.885 94.5391 96.125C94.7991 96.365 94.9291 96.66 94.9291 97.01C94.9291 97.36 94.7991 97.66 94.5391 97.91C94.2891 98.15 93.9741 98.27 93.5941 98.27ZM91.2541 105.875L92.6941 101.675H94.7791L92.8141 105.875H91.2541Z"/><path fill="#A3BE8C" d="M147.658 60.315V55.5H149.428V60.315H147.658ZM151.078 60.315V55.5H152.848V60.315H151.078ZM158.182 63.855C157.722 63.855 157.297 63.78 156.907 63.63L156.532 64.08C156.412 64.23 156.377 64.375 156.427 64.515C156.487 64.645 156.622 64.71 156.832 64.71H158.797C159.667 64.71 160.367 64.895 160.897 65.265C161.437 65.625 161.707 66.18 161.707 66.93C161.707 67.4 161.587 67.825 161.347 68.205C161.117 68.595 160.742 68.905 160.222 69.135C159.712 69.365 159.037 69.48 158.197 69.48C157.137 69.48 156.282 69.28 155.632 68.88C154.992 68.49 154.672 67.9 154.672 67.11C154.672 66.83 154.737 66.57 154.867 66.33C155.007 66.1 155.187 65.89 155.407 65.7C155.137 65.5 154.972 65.22 154.912 64.86C154.862 64.49 154.972 64.135 155.242 63.795L155.902 62.955C155.432 62.455 155.197 61.84 155.197 61.11C155.197 60.62 155.312 60.17 155.542 59.76C155.782 59.34 156.122 59.005 156.562 58.755C157.012 58.505 157.552 58.38 158.182 58.38C158.592 58.38 158.972 58.44 159.322 58.56H162.127V59.61L160.822 59.685V59.82C161.032 60.21 161.137 60.64 161.137 61.11C161.137 61.6 161.017 62.055 160.777 62.475C160.547 62.895 160.212 63.23 159.772 63.48C159.332 63.73 158.802 63.855 158.182 63.855ZM158.182 62.58C158.622 62.58 158.982 62.45 159.262 62.19C159.552 61.93 159.697 61.57 159.697 61.11C159.697 60.67 159.552 60.32 159.262 60.06C158.982 59.8 158.622 59.67 158.182 59.67C157.732 59.67 157.362 59.8 157.072 60.06C156.792 60.32 156.652 60.67 156.652 61.11C156.652 61.57 156.792 61.93 157.072 62.19C157.362 62.45 157.732 62.58 158.182 62.58ZM156.172 66.99C156.172 67.39 156.362 67.685 156.742 67.875C157.132 68.065 157.617 68.16 158.197 68.16C158.817 68.16 159.307 68.055 159.667 67.845C160.027 67.635 160.207 67.34 160.207 66.96C160.207 66.64 160.077 66.385 159.817 66.195C159.557 66.015 159.117 65.925 158.497 65.925H156.742C156.362 66.225 156.172 66.58 156.172 66.99ZM163.096 66V64.62H164.911V60.435C164.911 60.105 164.751 59.94 164.431 59.94H163.246V58.56H165.031C165.441 58.56 165.776 58.68 166.036 58.92C166.296 59.15 166.426 59.475 166.426 59.895V60.075H166.501C166.611 59.515 166.846 59.095 167.206 58.815C167.576 58.525 168.111 58.38 168.811 58.38H169.966V60.06H168.346C167.756 60.06 167.301 60.265 166.981 60.675C166.661 61.085 166.501 61.575 166.501 62.145V64.62H168.811V66H163.096ZM174.626 66.18C173.906 66.18 173.271 66.02 172.721 65.7C172.171 65.37 171.741 64.915 171.431 64.335C171.121 63.755 170.966 63.08 170.966 62.31C170.966 61.53 171.116 60.845 171.416 60.255C171.726 59.665 172.156 59.205 172.706 58.875C173.266 58.545 173.911 58.38 174.641 58.38C175.361 58.38 175.981 58.545 176.501 58.875C177.021 59.195 177.421 59.625 177.701 60.165C177.991 60.705 178.136 61.3 178.136 61.95C178.136 62.05 178.136 62.16 178.136 62.28C178.136 62.39 178.131 62.515 178.121 62.655H172.526C172.576 63.345 172.801 63.87 173.201 64.23C173.601 64.58 174.071 64.755 174.611 64.755C175.081 64.755 175.451 64.66 175.721 64.47C176.001 64.27 176.206 64 176.336 63.66H177.941C177.761 64.37 177.386 64.97 176.816 65.46C176.246 65.94 175.516 66.18 174.626 66.18ZM174.626 59.76C174.136 59.76 173.701 59.91 173.321 60.21C172.941 60.5 172.696 60.91 172.586 61.44H176.546C176.506 60.94 176.311 60.535 175.961 60.225C175.611 59.915 175.166 59.76 174.626 59.76ZM182.72 66.18C182 66.18 181.365 66.02 180.815 65.7C180.265 65.37 179.835 64.915 179.525 64.335C179.215 63.755 179.06 63.08 179.06 62.31C179.06 61.53 179.21 60.845 179.51 60.255C179.82 59.665 180.25 59.205 180.8 58.875C181.36 58.545 182.005 58.38 182.735 58.38C183.455 58.38 184.075 58.545 184.595 58.875C185.115 59.195 185.515 59.625 185.795 60.165C186.085 60.705 186.23 61.3 186.23 61.95C186.23 62.05 186.23 62.16 186.23 62.28C186.23 62.39 186.225 62.515 186.215 62.655H180.62C180.67 63.345 180.895 63.87 181.295 64.23C181.695 64.58 182.165 64.755 182.705 64.755C183.175 64.755 183.545 64.66 183.815 64.47C184.095 64.27 184.3 64 184.43 63.66H186.035C185.855 64.37 185.48 64.97 184.91 65.46C184.34 65.94 183.61 66.18 182.72 66.18ZM182.72 59.76C182.23 59.76 181.795 59.91 181.415 60.21C181.035 60.5 180.79 60.91 180.68 61.44H184.64C184.6 60.94 184.405 60.535 184.055 60.225C183.705 59.915 183.26 59.76 182.72 59.76ZM191.534 66C190.804 66 190.224 65.825 189.794 65.475C189.364 65.115 189.149 64.48 189.149 63.57V59.91H187.274V58.56H188.384C188.894 58.56 189.194 58.31 189.284 57.81L189.509 56.61H190.739V58.56H193.679V59.91H190.739V63.54C190.739 63.93 190.824 64.205 190.994 64.365C191.174 64.515 191.479 64.59 191.909 64.59H193.649V66H191.534ZM196.223 60.315V55.5H197.993V60.315H196.223ZM199.643 60.315V55.5H201.413V60.315H199.643ZM285.259 79.315V74.5H287.029V79.315H285.259ZM288.679 79.315V74.5H290.449V79.315H288.679ZM292.543 85V74.2H294.133V78.67C294.333 78.3 294.653 77.995 295.093 77.755C295.533 77.505 296.028 77.38 296.578 77.38C297.498 77.38 298.198 77.66 298.678 78.22C299.158 78.77 299.398 79.565 299.398 80.605V85H297.808V80.83C297.808 80.21 297.658 79.73 297.358 79.39C297.058 79.05 296.643 78.88 296.113 78.88C295.563 78.88 295.093 79.065 294.703 79.435C294.323 79.805 294.133 80.34 294.133 81.04V85H292.543ZM304.132 85.18C303.412 85.18 302.777 85.02 302.227 84.7C301.677 84.37 301.247 83.915 300.937 83.335C300.627 82.755 300.472 82.08 300.472 81.31C300.472 80.53 300.622 79.845 300.922 79.255C301.232 78.665 301.662 78.205 302.212 77.875C302.772 77.545 303.417 77.38 304.147 77.38C304.867 77.38 305.487 77.545 306.007 77.875C306.527 78.195 306.927 78.625 307.207 79.165C307.497 79.705 307.642 80.3 307.642 80.95C307.642 81.05 307.642 81.16 307.642 81.28C307.642 81.39 307.637 81.515 307.627 81.655H302.032C302.082 82.345 302.307 82.87 302.707 83.23C303.107 83.58 303.577 83.755 304.117 83.755C304.587 83.755 304.957 83.66 305.227 83.47C305.507 83.27 305.712 83 305.842 82.66H307.447C307.267 83.37 306.892 83.97 306.322 84.46C305.752 84.94 305.022 85.18 304.132 85.18ZM304.132 78.76C303.642 78.76 303.207 78.91 302.827 79.21C302.447 79.5 302.202 79.91 302.092 80.44H306.052C306.012 79.94 305.817 79.535 305.467 79.225C305.117 78.915 304.672 78.76 304.132 78.76ZM308.656 85V83.62H311.146V76.075C311.146 75.745 310.986 75.58 310.666 75.58H308.866V74.2H310.951C311.531 74.2 311.971 74.355 312.271 74.665C312.581 74.965 312.736 75.405 312.736 75.985V83.62H315.241V85H308.656ZM316.75 85V83.62H319.24V76.075C319.24 75.745 319.08 75.58 318.76 75.58H316.96V74.2H319.045C319.625 74.2 320.065 74.355 320.365 74.665C320.675 74.965 320.83 75.405 320.83 75.985V83.62H323.335V85H316.75ZM328.324 85.18C327.614 85.18 326.979 85.02 326.419 84.7C325.859 84.38 325.419 83.93 325.099 83.35C324.779 82.76 324.619 82.07 324.619 81.28C324.619 80.49 324.779 79.805 325.099 79.225C325.419 78.635 325.859 78.18 326.419 77.86C326.979 77.54 327.619 77.38 328.339 77.38C329.059 77.38 329.694 77.54 330.244 77.86C330.804 78.18 331.239 78.635 331.549 79.225C331.869 79.805 332.029 80.49 332.029 81.28C332.029 82.07 331.869 82.76 331.549 83.35C331.229 83.93 330.789 84.38 330.229 84.7C329.679 85.02 329.044 85.18 328.324 85.18ZM328.324 83.665C328.704 83.665 329.054 83.58 329.374 83.41C329.694 83.24 329.949 82.98 330.139 82.63C330.339 82.27 330.439 81.82 330.439 81.28C330.439 80.73 330.339 80.28 330.139 79.93C329.949 79.58 329.694 79.32 329.374 79.15C329.064 78.98 328.719 78.895 328.339 78.895C327.959 78.895 327.609 78.98 327.289 79.15C326.969 79.32 326.709 79.58 326.509 79.93C326.319 80.28 326.224 80.73 326.224 81.28C326.224 82.1 326.429 82.705 326.839 83.095C327.259 83.475 327.754 83.665 328.324 83.665ZM335.668 81.175L335.428 74.5H337.408L337.153 81.175H335.668ZM336.433 85.09C336.063 85.09 335.748 84.97 335.488 84.73C335.228 84.48 335.098 84.18 335.098 83.83C335.098 83.48 335.228 83.185 335.488 82.945C335.748 82.705 336.063 82.585 336.433 82.585C336.813 82.585 337.128 82.705 337.378 82.945C337.638 83.185 337.768 83.48 337.768 83.83C337.768 84.18 337.638 84.48 337.378 84.73C337.128 84.97 336.813 85.09 336.433 85.09ZM341.918 79.315V74.5H343.688V79.315H341.918ZM345.338 79.315V74.5H347.108V79.315H345.338Z"/><path fill="#D08770" d="M142.684 87.775C142.154 87.175 141.669 86.515 141.229 85.795C140.799 85.085 140.454 84.28 140.194 83.38C139.944 82.48 139.819 81.455 139.819 80.305C139.819 79.145 139.944 78.12 140.194 77.23C140.454 76.33 140.799 75.525 141.229 74.815C141.669 74.095 142.154 73.435 142.684 72.835H144.304V73.03C143.724 73.7 143.219 74.395 142.789 75.115C142.359 75.825 142.024 76.605 141.784 77.455C141.544 78.295 141.424 79.245 141.424 80.305C141.424 81.355 141.544 82.305 141.784 83.155C142.024 84.005 142.359 84.785 142.789 85.495C143.219 86.215 143.724 86.91 144.304 87.58V87.775H142.684ZM148.108 87.775V87.58C148.688 86.91 149.193 86.215 149.623 85.495C150.053 84.785 150.388 84.005 150.628 83.155C150.868 82.305 150.988 81.355 150.988 80.305C150.988 79.245 150.868 78.295 150.628 77.455C150.388 76.605 150.053 75.825 149.623 75.115C149.193 74.395 148.688 73.7 148.108 73.03V72.835H149.728C150.258 73.435 150.738 74.095 151.168 74.815C151.608 75.525 151.953 76.33 152.203 77.23C152.463 78.12 152.593 79.145 152.593 80.305C152.593 81.455 152.463 82.48 152.203 83.38C151.953 84.28 151.608 85.085 151.168 85.795C150.738 86.515 150.258 87.175 149.728 87.775H148.108ZM190.829 85.18C190.139 85.18 189.519 85.02 188.969 84.7C188.429 84.38 188.004 83.93 187.694 83.35C187.384 82.76 187.229 82.07 187.229 81.28C187.229 80.49 187.384 79.805 187.694 79.225C188.014 78.645 188.444 78.195 188.984 77.875C189.524 77.545 190.139 77.38 190.829 77.38C191.779 77.38 192.544 77.62 193.124 78.1C193.714 78.57 194.089 79.22 194.249 80.05H192.584C192.484 79.69 192.279 79.405 191.969 79.195C191.669 78.985 191.284 78.88 190.814 78.88C190.474 78.88 190.149 78.97 189.839 79.15C189.539 79.33 189.294 79.6 189.104 79.96C188.924 80.31 188.834 80.75 188.834 81.28C188.834 81.8 188.924 82.24 189.104 82.6C189.294 82.96 189.539 83.235 189.839 83.425C190.149 83.605 190.474 83.695 190.814 83.695C191.294 83.695 191.679 83.59 191.969 83.38C192.259 83.17 192.464 82.88 192.584 82.51H194.249C194.049 83.33 193.659 83.98 193.079 84.46C192.499 84.94 191.749 85.18 190.829 85.18ZM198.818 85.18C198.108 85.18 197.473 85.02 196.913 84.7C196.353 84.38 195.913 83.93 195.593 83.35C195.273 82.76 195.113 82.07 195.113 81.28C195.113 80.49 195.273 79.805 195.593 79.225C195.913 78.635 196.353 78.18 196.913 77.86C197.473 77.54 198.113 77.38 198.833 77.38C199.553 77.38 200.188 77.54 200.738 77.86C201.298 78.18 201.733 78.635 202.043 79.225C202.363 79.805 202.523 80.49 202.523 81.28C202.523 82.07 202.363 82.76 202.043 83.35C201.723 83.93 201.283 84.38 200.723 84.7C200.173 85.02 199.538 85.18 198.818 85.18ZM198.818 83.665C199.198 83.665 199.548 83.58 199.868 83.41C200.188 83.24 200.443 82.98 200.633 82.63C200.833 82.27 200.933 81.82 200.933 81.28C200.933 80.73 200.833 80.28 200.633 79.93C200.443 79.58 200.188 79.32 199.868 79.15C199.558 78.98 199.213 78.895 198.833 78.895C198.453 78.895 198.103 78.98 197.783 79.15C197.463 79.32 197.203 79.58 197.003 79.93C196.813 80.28 196.718 80.73 196.718 81.28C196.718 82.1 196.923 82.705 197.333 83.095C197.753 83.475 198.248 83.665 198.818 83.665ZM203.582 85V77.56H204.962L205.097 78.67H205.172C205.372 78.31 205.682 78.005 206.102 77.755C206.522 77.505 207.007 77.38 207.557 77.38C208.467 77.38 209.152 77.655 209.612 78.205C210.072 78.755 210.302 79.565 210.302 80.635V85H208.712V80.83C208.712 80.21 208.582 79.73 208.322 79.39C208.062 79.05 207.652 78.88 207.092 78.88C206.542 78.88 206.082 79.065 205.712 79.435C205.352 79.805 205.172 80.34 205.172 81.04V85H203.582ZM215.066 85.18C214.086 85.18 213.306 84.95 212.726 84.49C212.146 84.03 211.816 83.42 211.736 82.66H213.371C213.431 83.01 213.606 83.295 213.896 83.515C214.196 83.735 214.591 83.845 215.081 83.845C215.551 83.845 215.911 83.75 216.161 83.56C216.421 83.36 216.551 83.13 216.551 82.87C216.551 82.49 216.396 82.23 216.086 82.09C215.786 81.95 215.341 81.845 214.751 81.775C214.241 81.715 213.776 81.6 213.356 81.43C212.946 81.25 212.621 81.01 212.381 80.71C212.141 80.4 212.021 80.015 212.021 79.555C212.021 78.905 212.276 78.38 212.786 77.98C213.296 77.58 214.006 77.38 214.916 77.38C215.826 77.38 216.531 77.585 217.031 77.995C217.531 78.405 217.821 78.965 217.901 79.675H216.371C216.331 79.375 216.176 79.14 215.906 78.97C215.636 78.79 215.301 78.7 214.901 78.7C214.491 78.7 214.166 78.78 213.926 78.94C213.686 79.09 213.566 79.29 213.566 79.54C213.566 80.08 214.146 80.41 215.306 80.53C215.856 80.59 216.346 80.695 216.776 80.845C217.206 80.985 217.546 81.21 217.796 81.52C218.046 81.82 218.171 82.245 218.171 82.795C218.181 83.245 218.051 83.65 217.781 84.01C217.521 84.37 217.156 84.655 216.686 84.865C216.226 85.075 215.686 85.18 215.066 85.18ZM223.1 85.18C222.39 85.18 221.755 85.02 221.195 84.7C220.635 84.38 220.195 83.93 219.875 83.35C219.555 82.76 219.395 82.07 219.395 81.28C219.395 80.49 219.555 79.805 219.875 79.225C220.195 78.635 220.635 78.18 221.195 77.86C221.755 77.54 222.395 77.38 223.115 77.38C223.835 77.38 224.47 77.54 225.02 77.86C225.58 78.18 226.015 78.635 226.325 79.225C226.645 79.805 226.805 80.49 226.805 81.28C226.805 82.07 226.645 82.76 226.325 83.35C226.005 83.93 225.565 84.38 225.005 84.7C224.455 85.02 223.82 85.18 223.1 85.18ZM223.1 83.665C223.48 83.665 223.83 83.58 224.15 83.41C224.47 83.24 224.725 82.98 224.915 82.63C225.115 82.27 225.215 81.82 225.215 81.28C225.215 80.73 225.115 80.28 224.915 79.93C224.725 79.58 224.47 79.32 224.15 79.15C223.84 78.98 223.495 78.895 223.115 78.895C222.735 78.895 222.385 78.98 222.065 79.15C221.745 79.32 221.485 79.58 221.285 79.93C221.095 80.28 221 80.73 221 81.28C221 82.1 221.205 82.705 221.615 83.095C222.035 83.475 222.53 83.665 223.1 83.665ZM227.715 85V83.62H230.205V76.075C230.205 75.745 230.045 75.58 229.725 75.58H227.925V74.2H230.01C230.59 74.2 231.03 74.355 231.33 74.665C231.64 74.965 231.795 75.405 231.795 75.985V83.62H234.3V85H227.715ZM239.379 85.18C238.659 85.18 238.024 85.02 237.474 84.7C236.924 84.37 236.494 83.915 236.184 83.335C235.874 82.755 235.719 82.08 235.719 81.31C235.719 80.53 235.869 79.845 236.169 79.255C236.479 78.665 236.909 78.205 237.459 77.875C238.019 77.545 238.664 77.38 239.394 77.38C240.114 77.38 240.734 77.545 241.254 77.875C241.774 78.195 242.174 78.625 242.454 79.165C242.744 79.705 242.889 80.3 242.889 80.95C242.889 81.05 242.889 81.16 242.889 81.28C242.889 81.39 242.884 81.515 242.874 81.655H237.279C237.329 82.345 237.554 82.87 237.954 83.23C238.354 83.58 238.824 83.755 239.364 83.755C239.834 83.755 240.204 83.66 240.474 83.47C240.754 83.27 240.959 83 241.089 82.66H242.694C242.514 83.37 242.139 83.97 241.569 84.46C240.999 84.94 240.269 85.18 239.379 85.18ZM239.379 78.76C238.889 78.76 238.454 78.91 238.074 79.21C237.694 79.5 237.449 79.91 237.339 80.44H241.299C241.259 79.94 241.064 79.535 240.714 79.225C240.364 78.915 239.919 78.76 239.379 78.76Z"/><rect width="306" height="170" x="26" y="120" fill="#0C1C3C" rx="6"/><path fill="#B48EAD" d="M61.59 160.18C60.87 160.18 60.235 160.02 59.685 159.7C59.135 159.37 58.705 158.915 58.395 158.335C58.085 157.755 57.93 157.08 57.93 156.31C57.93 155.53 58.08 154.845 58.38 154.255C58.69 153.665 59.12 153.205 59.67 152.875C60.23 152.545 60.875 152.38 61.605 152.38C62.325 152.38 62.945 152.545 63.465 152.875C63.985 153.195 64.385 153.625 64.665 154.165C64.955 154.705 65.1 155.3 65.1 155.95C65.1 156.05 65.1 156.16 65.1 156.28C65.1 156.39 65.095 156.515 65.085 156.655H59.49C59.54 157.345 59.765 157.87 60.165 158.23C60.565 158.58 61.035 158.755 61.575 158.755C62.045 158.755 62.415 158.66 62.685 158.47C62.965 158.27 63.17 158 63.3 157.66H64.905C64.725 158.37 64.35 158.97 63.78 159.46C63.21 159.94 62.48 160.18 61.59 160.18ZM61.59 153.76C61.1 153.76 60.665 153.91 60.285 154.21C59.905 154.5 59.66 154.91 59.55 155.44H63.51C63.47 154.94 63.275 154.535 62.925 154.225C62.575 153.915 62.13 153.76 61.59 153.76ZM65.9941 160L68.5441 156.28L65.9041 152.56H67.6741L69.5941 155.335L71.5141 152.56H73.2841L70.6441 156.28L73.1941 160H71.4241L69.5941 157.225L67.7491 160H65.9941ZM74.2233 163.3V152.56H75.6033L75.7233 153.7H75.8133C76.0133 153.33 76.3133 153.02 76.7133 152.77C77.1233 152.51 77.6083 152.38 78.1683 152.38C78.7483 152.38 79.2783 152.53 79.7583 152.83C80.2383 153.12 80.6183 153.555 80.8983 154.135C81.1883 154.705 81.3333 155.42 81.3333 156.28C81.3333 157.13 81.1833 157.845 80.8833 158.425C80.5933 159.005 80.1983 159.445 79.6983 159.745C79.1983 160.035 78.6383 160.18 78.0183 160.18C77.4683 160.18 77.0083 160.07 76.6383 159.85C76.2683 159.63 75.9933 159.38 75.8133 159.1V163.3H74.2233ZM77.7483 158.665C78.3083 158.665 78.7733 158.465 79.1433 158.065C79.5233 157.665 79.7133 157.065 79.7133 156.265C79.7133 155.465 79.5233 154.87 79.1433 154.48C78.7733 154.09 78.3083 153.895 77.7483 153.895C77.1783 153.895 76.7033 154.095 76.3233 154.495C75.9533 154.885 75.7683 155.48 75.7683 156.28C75.7683 157.07 75.9533 157.665 76.3233 158.065C76.7033 158.465 77.1783 158.665 77.7483 158.665ZM85.7824 160.18C85.0724 160.18 84.4374 160.02 83.8774 159.7C83.3174 159.38 82.8774 158.93 82.5574 158.35C82.2374 157.76 82.0774 157.07 82.0774 156.28C82.0774 155.49 82.2374 154.805 82.5574 154.225C82.8774 153.635 83.3174 153.18 83.8774 152.86C84.4374 152.54 85.0774 152.38 85.7974 152.38C86.5174 152.38 87.1524 152.54 87.7024 152.86C88.2624 153.18 88.6974 153.635 89.0074 154.225C89.3274 154.805 89.4874 155.49 89.4874 156.28C89.4874 157.07 89.3274 157.76 89.0074 158.35C88.6874 158.93 88.2474 159.38 87.6874 159.7C87.1374 160.02 86.5024 160.18 85.7824 160.18ZM85.7824 158.665C86.1624 158.665 86.5124 158.58 86.8324 158.41C87.1524 158.24 87.4074 157.98 87.5974 157.63C87.7974 157.27 87.8974 156.82 87.8974 156.28C87.8974 155.73 87.7974 155.28 87.5974 154.93C87.4074 154.58 87.1524 154.32 86.8324 154.15C86.5224 153.98 86.1774 153.895 85.7974 153.895C85.4174 153.895 85.0674 153.98 84.7474 154.15C84.4274 154.32 84.1674 154.58 83.9674 154.93C83.7774 155.28 83.6824 155.73 83.6824 156.28C83.6824 157.1 83.8874 157.705 84.2974 158.095C84.7174 158.475 85.2124 158.665 85.7824 158.665ZM90.5316 160V158.62H92.3466V154.435C92.3466 154.105 92.1866 153.94 91.8666 153.94H90.6816V152.56H92.4666C92.8766 152.56 93.2116 152.68 93.4716 152.92C93.7316 153.15 93.8616 153.475 93.8616 153.895V154.075H93.9366C94.0466 153.515 94.2816 153.095 94.6416 152.815C95.0116 152.525 95.5466 152.38 96.2466 152.38H97.4016V154.06H95.7816C95.1916 154.06 94.7366 154.265 94.4166 154.675C94.0966 155.085 93.9366 155.575 93.9366 156.145V158.62H96.2466V160H90.5316ZM102.781 160C102.051 160 101.471 159.825 101.041 159.475C100.611 159.115 100.396 158.48 100.396 157.57V153.91H98.5207V152.56H99.6307C100.141 152.56 100.441 152.31 100.531 151.81L100.756 150.61H101.986V152.56H104.926V153.91H101.986V157.54C101.986 157.93 102.071 158.205 102.241 158.365C102.421 158.515 102.726 158.59 103.156 158.59H104.896V160H102.781ZM117.754 160.18C117.134 160.18 116.579 160.035 116.089 159.745C115.599 159.445 115.209 159.005 114.919 158.425C114.639 157.845 114.499 157.13 114.499 156.28C114.499 155.43 114.644 154.715 114.934 154.135C115.224 153.555 115.614 153.12 116.104 152.83C116.604 152.53 117.159 152.38 117.769 152.38C118.339 152.38 118.809 152.49 119.179 152.71C119.549 152.92 119.824 153.19 120.004 153.52V149.2H121.594V160H120.229L120.094 158.905H120.004C119.804 159.295 119.519 159.605 119.149 159.835C118.789 160.065 118.324 160.18 117.754 160.18ZM118.084 158.665C118.654 158.665 119.124 158.465 119.494 158.065C119.874 157.665 120.064 157.07 120.064 156.28C120.064 155.48 119.874 154.885 119.494 154.495C119.124 154.095 118.654 153.895 118.084 153.895C117.514 153.895 117.039 154.095 116.659 154.495C116.289 154.895 116.104 155.495 116.104 156.295C116.104 157.085 116.289 157.68 116.659 158.08C117.039 158.47 117.514 158.665 118.084 158.665ZM126.343 160.18C125.623 160.18 124.988 160.02 124.438 159.7C123.888 159.37 123.458 158.915 123.148 158.335C122.838 157.755 122.683 157.08 122.683 156.31C122.683 155.53 122.833 154.845 123.133 154.255C123.443 153.665 123.873 153.205 124.423 152.875C124.983 152.545 125.628 152.38 126.358 152.38C127.078 152.38 127.698 152.545 128.218 152.875C128.738 153.195 129.138 153.625 129.418 154.165C129.708 154.705 129.853 155.3 129.853 155.95C129.853 156.05 129.853 156.16 129.853 156.28C129.853 156.39 129.848 156.515 129.838 156.655H124.243C124.293 157.345 124.518 157.87 124.918 158.23C125.318 158.58 125.788 158.755 126.328 158.755C126.798 158.755 127.168 158.66 127.438 158.47C127.718 158.27 127.923 158 128.053 157.66H129.658C129.478 158.37 129.103 158.97 128.533 159.46C127.963 159.94 127.233 160.18 126.343 160.18ZM126.343 153.76C125.853 153.76 125.418 153.91 125.038 154.21C124.658 154.5 124.413 154.91 124.303 155.44H128.263C128.223 154.94 128.028 154.535 127.678 154.225C127.328 153.915 126.883 153.76 126.343 153.76ZM130.882 163.3V161.905H132.097C132.447 161.905 132.697 161.83 132.847 161.68C133.007 161.54 133.087 161.3 133.087 160.96V153.91H131.197V152.56H133.087V151.525C133.087 150.695 133.292 150.1 133.702 149.74C134.112 149.38 134.697 149.2 135.457 149.2H137.272V150.595H135.652C135.302 150.595 135.052 150.665 134.902 150.805C134.752 150.945 134.677 151.19 134.677 151.54V152.56H137.272V153.91H134.677V160.975C134.677 161.805 134.472 162.4 134.062 162.76C133.652 163.12 133.062 163.3 132.292 163.3H130.882ZM141.766 160.18C141.176 160.18 140.681 160.08 140.281 159.88C139.881 159.67 139.581 159.395 139.381 159.055C139.181 158.705 139.081 158.325 139.081 157.915C139.081 157.185 139.346 156.615 139.876 156.205C140.416 155.795 141.176 155.59 142.156 155.59H144.076V155.425C144.076 154.305 143.556 153.745 142.516 153.745C142.086 153.745 141.721 153.84 141.421 154.03C141.131 154.21 140.936 154.505 140.836 154.915H139.246C139.326 154.135 139.661 153.52 140.251 153.07C140.851 152.61 141.606 152.38 142.516 152.38C143.616 152.38 144.416 152.65 144.916 153.19C145.416 153.73 145.666 154.475 145.666 155.425V160H144.316L144.181 158.905H144.076C143.856 159.255 143.581 159.555 143.251 159.805C142.921 160.055 142.426 160.18 141.766 160.18ZM142.066 158.845C142.716 158.845 143.201 158.65 143.521 158.26C143.851 157.86 144.031 157.355 144.061 156.745H142.321C141.751 156.745 141.346 156.84 141.106 157.03C140.876 157.21 140.761 157.465 140.761 157.795C140.761 158.125 140.876 158.385 141.106 158.575C141.346 158.755 141.666 158.845 142.066 158.845ZM149.876 160.18C148.976 160.18 148.291 159.905 147.821 159.355C147.361 158.795 147.131 157.985 147.131 156.925V152.56H148.721V156.73C148.721 157.34 148.851 157.82 149.111 158.17C149.381 158.51 149.791 158.68 150.341 158.68C150.891 158.68 151.351 158.495 151.721 158.125C152.091 157.755 152.276 157.22 152.276 156.52V152.56H153.866V160H152.486L152.351 158.89H152.276C152.076 159.25 151.766 159.555 151.346 159.805C150.926 160.055 150.436 160.18 149.876 160.18ZM155.15 160V158.62H157.64V151.075C157.64 150.745 157.48 150.58 157.16 150.58H155.36V149.2H157.445C158.025 149.2 158.465 149.355 158.765 149.665C159.075 149.965 159.23 150.405 159.23 150.985V158.62H161.735V160H155.15ZM167.534 160C166.804 160 166.224 159.825 165.794 159.475C165.364 159.115 165.149 158.48 165.149 157.57V153.91H163.274V152.56H164.384C164.894 152.56 165.194 152.31 165.284 151.81L165.509 150.61H166.739V152.56H169.679V153.91H166.739V157.54C166.739 157.93 166.824 158.205 166.994 158.365C167.174 158.515 167.479 158.59 167.909 158.59H169.649V160H167.534ZM90.5316 236V234.62H92.3466V230.435C92.3466 230.105 92.1866 229.94 91.8666 229.94H90.6816V228.56H92.4666C92.8766 228.56 93.2116 228.68 93.4716 228.92C93.7316 229.15 93.8616 229.475 93.8616 229.895V230.075H93.9366C94.0466 229.515 94.2816 229.095 94.6416 228.815C95.0116 228.525 95.5466 228.38 96.2466 228.38H97.4016V230.06H95.7816C95.1916 230.06 94.7366 230.265 94.4166 230.675C94.0966 231.085 93.9366 231.575 93.9366 232.145V234.62H96.2466V236H90.5316ZM102.061 236.18C101.341 236.18 100.706 236.02 100.156 235.7C99.6057 235.37 99.1757 234.915 98.8657 234.335C98.5557 233.755 98.4007 233.08 98.4007 232.31C98.4007 231.53 98.5507 230.845 98.8507 230.255C99.1607 229.665 99.5907 229.205 100.141 228.875C100.701 228.545 101.346 228.38 102.076 228.38C102.796 228.38 103.416 228.545 103.936 228.875C104.456 229.195 104.856 229.625 105.136 230.165C105.426 230.705 105.571 231.3 105.571 231.95C105.571 232.05 105.571 232.16 105.571 232.28C105.571 232.39 105.566 232.515 105.556 232.655H99.9607C100.011 233.345 100.236 233.87 100.636 234.23C101.036 234.58 101.506 234.755 102.046 234.755C102.516 234.755 102.886 234.66 103.156 234.47C103.436 234.27 103.641 234 103.771 233.66H105.376C105.196 234.37 104.821 234.97 104.251 235.46C103.681 235.94 102.951 236.18 102.061 236.18ZM102.061 229.76C101.571 229.76 101.136 229.91 100.756 230.21C100.376 230.5 100.131 230.91 100.021 231.44H103.981C103.941 230.94 103.746 230.535 103.396 230.225C103.046 229.915 102.601 229.76 102.061 229.76ZM110.875 236C110.145 236 109.565 235.825 109.135 235.475C108.705 235.115 108.49 234.48 108.49 233.57V229.91H106.615V228.56H107.725C108.235 228.56 108.535 228.31 108.625 227.81L108.85 226.61H110.08V228.56H113.02V229.91H110.08V233.54C110.08 233.93 110.165 234.205 110.335 234.365C110.515 234.515 110.82 234.59 111.25 234.59H112.99V236H110.875ZM117.499 236.18C116.599 236.18 115.914 235.905 115.444 235.355C114.984 234.795 114.754 233.985 114.754 232.925V228.56H116.344V232.73C116.344 233.34 116.474 233.82 116.734 234.17C117.004 234.51 117.414 234.68 117.964 234.68C118.514 234.68 118.974 234.495 119.344 234.125C119.714 233.755 119.899 233.22 119.899 232.52V228.56H121.489V236H120.109L119.974 234.89H119.899C119.699 235.25 119.389 235.555 118.969 235.805C118.549 236.055 118.059 236.18 117.499 236.18ZM122.908 236V234.62H124.723V230.435C124.723 230.105 124.563 229.94 124.243 229.94H123.058V228.56H124.843C125.253 228.56 125.588 228.68 125.848 228.92C126.108 229.15 126.238 229.475 126.238 229.895V230.075H126.313C126.423 229.515 126.658 229.095 127.018 228.815C127.388 228.525 127.923 228.38 128.623 228.38H129.778V230.06H128.158C127.568 230.06 127.113 230.265 126.793 230.675C126.473 231.085 126.313 231.575 126.313 232.145V234.62H128.623V236H122.908ZM131.017 236V228.56H132.397L132.532 229.67H132.607C132.807 229.31 133.117 229.005 133.537 228.755C133.957 228.505 134.442 228.38 134.992 228.38C135.902 228.38 136.587 228.655 137.047 229.205C137.507 229.755 137.737 230.565 137.737 231.635V236H136.147V231.83C136.147 231.21 136.017 230.73 135.757 230.39C135.497 230.05 135.087 229.88 134.527 229.88C133.977 229.88 133.517 230.065 133.147 230.435C132.787 230.805 132.607 231.34 132.607 232.04V236H131.017Z"/><path fill="#C0C5CE" d="M184.307 162.775C183.557 162.775 182.957 162.58 182.507 162.19C182.057 161.8 181.832 161.215 181.832 160.435C181.832 160.055 181.857 159.715 181.907 159.415C181.967 159.115 182.022 158.805 182.072 158.485C182.132 158.165 182.162 157.795 182.162 157.375C182.162 156.985 182.047 156.66 181.817 156.4C181.597 156.14 181.222 156.01 180.692 156.01H180.017V154.6H180.692C181.222 154.6 181.597 154.47 181.817 154.21C182.047 153.95 182.162 153.625 182.162 153.235C182.162 152.805 182.132 152.435 182.072 152.125C182.022 151.805 181.967 151.495 181.907 151.195C181.857 150.885 181.832 150.54 181.832 150.16C181.832 149.39 182.057 148.81 182.507 148.42C182.957 148.03 183.557 147.835 184.307 147.835H185.837V149.23H184.547C184.157 149.23 183.862 149.32 183.662 149.5C183.472 149.68 183.377 149.975 183.377 150.385C183.377 150.715 183.402 151.02 183.452 151.3C183.502 151.58 183.552 151.87 183.602 152.17C183.652 152.47 183.677 152.82 183.677 153.22C183.677 153.75 183.562 154.195 183.332 154.555C183.112 154.905 182.812 155.14 182.432 155.26V155.35C182.812 155.47 183.112 155.71 183.332 156.07C183.562 156.42 183.677 156.86 183.677 157.39C183.677 157.79 183.652 158.14 183.602 158.44C183.552 158.74 183.502 159.03 183.452 159.31C183.402 159.58 183.377 159.885 183.377 160.225C183.377 160.625 183.472 160.915 183.662 161.095C183.862 161.285 184.157 161.38 184.547 161.38H185.837V162.775H184.307ZM77.6883 179.18C76.9783 179.18 76.3433 179.02 75.7833 178.7C75.2233 178.38 74.7833 177.93 74.4633 177.35C74.1433 176.76 73.9833 176.07 73.9833 175.28C73.9833 174.49 74.1433 173.805 74.4633 173.225C74.7833 172.635 75.2233 172.18 75.7833 171.86C76.3433 171.54 76.9833 171.38 77.7033 171.38C78.4233 171.38 79.0583 171.54 79.6083 171.86C80.1683 172.18 80.6033 172.635 80.9133 173.225C81.2333 173.805 81.3933 174.49 81.3933 175.28C81.3933 176.07 81.2333 176.76 80.9133 177.35C80.5933 177.93 80.1533 178.38 79.5933 178.7C79.0433 179.02 78.4083 179.18 77.6883 179.18ZM77.6883 177.665C78.0683 177.665 78.4183 177.58 78.7383 177.41C79.0583 177.24 79.3133 176.98 79.5033 176.63C79.7033 176.27 79.8033 175.82 79.8033 175.28C79.8033 174.73 79.7033 174.28 79.5033 173.93C79.3133 173.58 79.0583 173.32 78.7383 173.15C78.4283 172.98 78.0833 172.895 77.7033 172.895C77.3233 172.895 76.9733 172.98 76.6533 173.15C76.3333 173.32 76.0733 173.58 75.8733 173.93C75.6833 174.28 75.5883 174.73 75.5883 175.28C75.5883 176.1 75.7933 176.705 76.2033 177.095C76.6233 177.475 77.1183 177.665 77.6883 177.665ZM82.4524 179V171.56H83.8324L83.9674 172.67H84.0424C84.2424 172.31 84.5524 172.005 84.9724 171.755C85.3924 171.505 85.8774 171.38 86.4274 171.38C87.3374 171.38 88.0224 171.655 88.4824 172.205C88.9424 172.755 89.1724 173.565 89.1724 174.635V179H87.5824V174.83C87.5824 174.21 87.4524 173.73 87.1924 173.39C86.9324 173.05 86.5224 172.88 85.9624 172.88C85.4124 172.88 84.9524 173.065 84.5824 173.435C84.2224 173.805 84.0424 174.34 84.0424 175.04V179H82.4524ZM93.8766 179.09C93.5066 179.09 93.1916 178.97 92.9316 178.73C92.6716 178.48 92.5416 178.18 92.5416 177.83C92.5416 177.48 92.6716 177.185 92.9316 176.945C93.1916 176.705 93.5066 176.585 93.8766 176.585C94.2566 176.585 94.5716 176.705 94.8216 176.945C95.0816 177.185 95.2116 177.48 95.2116 177.83C95.2116 178.18 95.0816 178.48 94.8216 178.73C94.5716 178.97 94.2566 179.09 93.8766 179.09ZM93.8766 173.27C93.5066 173.27 93.1916 173.15 92.9316 172.91C92.6716 172.66 92.5416 172.36 92.5416 172.01C92.5416 171.66 92.6716 171.365 92.9316 171.125C93.1916 170.885 93.5066 170.765 93.8766 170.765C94.2566 170.765 94.5716 170.885 94.8216 171.125C95.0816 171.365 95.2116 171.66 95.2116 172.01C95.2116 172.36 95.0816 172.66 94.8216 172.91C94.5716 173.15 94.2566 173.27 93.8766 173.27ZM148.196 180.875L149.636 176.675H151.721L149.756 180.875H148.196ZM74.3433 198V196.62H76.1583V192.435C76.1583 192.105 75.9983 191.94 75.6783 191.94H74.4933V190.56H76.2783C76.6883 190.56 77.0233 190.68 77.2833 190.92C77.5433 191.15 77.6733 191.475 77.6733 191.895V192.075H77.7483C77.8583 191.515 78.0933 191.095 78.4533 190.815C78.8233 190.525 79.3583 190.38 80.0583 190.38H81.2133V192.06H79.5933C79.0033 192.06 78.5483 192.265 78.2283 192.675C77.9083 193.085 77.7483 193.575 77.7483 194.145V196.62H80.0583V198H74.3433ZM85.1224 198.18C84.2224 198.18 83.5374 197.905 83.0674 197.355C82.6074 196.795 82.3774 195.985 82.3774 194.925V190.56H83.9674V194.73C83.9674 195.34 84.0974 195.82 84.3574 196.17C84.6274 196.51 85.0374 196.68 85.5874 196.68C86.1374 196.68 86.5974 196.495 86.9674 196.125C87.3374 195.755 87.5224 195.22 87.5224 194.52V190.56H89.1124V198H87.7324L87.5974 196.89H87.5224C87.3224 197.25 87.0124 197.555 86.5924 197.805C86.1724 198.055 85.6824 198.18 85.1224 198.18ZM90.5466 198V190.56H91.9266L92.0616 191.67H92.1366C92.3366 191.31 92.6466 191.005 93.0666 190.755C93.4866 190.505 93.9716 190.38 94.5216 190.38C95.4316 190.38 96.1166 190.655 96.5766 191.205C97.0366 191.755 97.2666 192.565 97.2666 193.635V198H95.6766V193.83C95.6766 193.21 95.5466 192.73 95.2866 192.39C95.0266 192.05 94.6166 191.88 94.0566 191.88C93.5066 191.88 93.0466 192.065 92.6766 192.435C92.3166 192.805 92.1366 193.34 92.1366 194.04V198H90.5466ZM101.971 198.09C101.601 198.09 101.286 197.97 101.026 197.73C100.766 197.48 100.636 197.18 100.636 196.83C100.636 196.48 100.766 196.185 101.026 195.945C101.286 195.705 101.601 195.585 101.971 195.585C102.351 195.585 102.666 195.705 102.916 195.945C103.176 196.185 103.306 196.48 103.306 196.83C103.306 197.18 103.176 197.48 102.916 197.73C102.666 197.97 102.351 198.09 101.971 198.09ZM101.971 192.27C101.601 192.27 101.286 192.15 101.026 191.91C100.766 191.66 100.636 191.36 100.636 191.01C100.636 190.66 100.766 190.365 101.026 190.125C101.286 189.885 101.601 189.765 101.971 189.765C102.351 189.765 102.666 189.885 102.916 190.125C103.176 190.365 103.306 190.66 103.306 191.01C103.306 191.36 103.176 191.66 102.916 191.91C102.666 192.15 102.351 192.27 101.971 192.27ZM118.684 200.775C118.154 200.175 117.669 199.515 117.229 198.795C116.799 198.085 116.454 197.28 116.194 196.38C115.944 195.48 115.819 194.455 115.819 193.305C115.819 192.145 115.944 191.12 116.194 190.23C116.454 189.33 116.799 188.525 117.229 187.815C117.669 187.095 118.154 186.435 118.684 185.835H120.304V186.03C119.724 186.7 119.219 187.395 118.789 188.115C118.359 188.825 118.024 189.605 117.784 190.455C117.544 191.295 117.424 192.245 117.424 193.305C117.424 194.355 117.544 195.305 117.784 196.155C118.024 197.005 118.359 197.785 118.789 198.495C119.219 199.215 119.724 199.91 120.304 200.58V200.775H118.684ZM148.391 200.775V200.58C148.971 199.91 149.476 199.215 149.906 198.495C150.336 197.785 150.671 197.005 150.911 196.155C151.151 195.305 151.271 194.355 151.271 193.305C151.271 192.245 151.151 191.295 150.911 190.455C150.671 189.605 150.336 188.825 149.906 188.115C149.476 187.395 148.971 186.7 148.391 186.03V185.835H150.011C150.541 186.435 151.021 187.095 151.451 187.815C151.891 188.525 152.236 189.33 152.486 190.23C152.746 191.12 152.876 192.145 152.876 193.305C152.876 194.455 152.746 195.48 152.486 196.38C152.236 197.28 151.891 198.085 151.451 198.795C151.021 199.515 150.541 200.175 150.011 200.775H148.391ZM163.244 191.58V190.155H170.204V191.58H163.244ZM163.244 195.345V193.92H170.204V195.345H163.244ZM171.788 196.845L175.748 192.81V192.69L171.788 188.67H173.918L177.908 192.735L173.918 196.845H171.788ZM192.401 200.775C191.651 200.775 191.051 200.58 190.601 200.19C190.151 199.8 189.926 199.215 189.926 198.435C189.926 198.055 189.951 197.715 190.001 197.415C190.061 197.115 190.116 196.805 190.166 196.485C190.226 196.165 190.256 195.795 190.256 195.375C190.256 194.985 190.141 194.66 189.911 194.4C189.691 194.14 189.316 194.01 188.786 194.01H188.111V192.6H188.786C189.316 192.6 189.691 192.47 189.911 192.21C190.141 191.95 190.256 191.625 190.256 191.235C190.256 190.805 190.226 190.435 190.166 190.125C190.116 189.805 190.061 189.495 190.001 189.195C189.951 188.885 189.926 188.54 189.926 188.16C189.926 187.39 190.151 186.81 190.601 186.42C191.051 186.03 191.651 185.835 192.401 185.835H193.931V187.23H192.641C192.251 187.23 191.956 187.32 191.756 187.5C191.566 187.68 191.471 187.975 191.471 188.385C191.471 188.715 191.496 189.02 191.546 189.3C191.596 189.58 191.646 189.87 191.696 190.17C191.746 190.47 191.771 190.82 191.771 191.22C191.771 191.75 191.656 192.195 191.426 192.555C191.206 192.905 190.906 193.14 190.526 193.26V193.35C190.906 193.47 191.206 193.71 191.426 194.07C191.656 194.42 191.771 194.86 191.771 195.39C191.771 195.79 191.746 196.14 191.696 196.44C191.646 196.74 191.596 197.03 191.546 197.31C191.496 197.58 191.471 197.885 191.471 198.225C191.471 198.625 191.566 198.915 191.756 199.095C191.956 199.285 192.251 199.38 192.641 199.38H193.931V200.775H192.401ZM150.536 217.09C150.166 217.09 149.851 216.97 149.591 216.73C149.331 216.48 149.201 216.18 149.201 215.83C149.201 215.48 149.331 215.185 149.591 214.945C149.851 214.705 150.166 214.585 150.536 214.585C150.916 214.585 151.231 214.705 151.481 214.945C151.741 215.185 151.871 215.48 151.871 215.83C151.871 216.18 151.741 216.48 151.481 216.73C151.231 216.97 150.916 217.09 150.536 217.09ZM155.15 217V215.62H157.64V208.075C157.64 207.745 157.48 207.58 157.16 207.58H155.36V206.2H157.445C158.025 206.2 158.465 206.355 158.765 206.665C159.075 206.965 159.23 207.405 159.23 207.985V215.62H161.735V217H155.15ZM166.724 217.18C166.014 217.18 165.379 217.02 164.819 216.7C164.259 216.38 163.819 215.93 163.499 215.35C163.179 214.76 163.019 214.07 163.019 213.28C163.019 212.49 163.179 211.805 163.499 211.225C163.819 210.635 164.259 210.18 164.819 209.86C165.379 209.54 166.019 209.38 166.739 209.38C167.459 209.38 168.094 209.54 168.644 209.86C169.204 210.18 169.639 210.635 169.949 211.225C170.269 211.805 170.429 212.49 170.429 213.28C170.429 214.07 170.269 214.76 169.949 215.35C169.629 215.93 169.189 216.38 168.629 216.7C168.079 217.02 167.444 217.18 166.724 217.18ZM166.724 215.665C167.104 215.665 167.454 215.58 167.774 215.41C168.094 215.24 168.349 214.98 168.539 214.63C168.739 214.27 168.839 213.82 168.839 213.28C168.839 212.73 168.739 212.28 168.539 211.93C168.349 211.58 168.094 211.32 167.774 211.15C167.464 210.98 167.119 210.895 166.739 210.895C166.359 210.895 166.009 210.98 165.689 211.15C165.369 211.32 165.109 211.58 164.909 211.93C164.719 212.28 164.624 212.73 164.624 213.28C164.624 214.1 164.829 214.705 165.239 215.095C165.659 215.475 166.154 215.665 166.724 215.665ZM174.653 214.855C174.193 214.855 173.768 214.78 173.378 214.63L173.003 215.08C172.883 215.23 172.848 215.375 172.898 215.515C172.958 215.645 173.093 215.71 173.303 215.71H175.268C176.138 215.71 176.838 215.895 177.368 216.265C177.908 216.625 178.178 217.18 178.178 217.93C178.178 218.4 178.058 218.825 177.818 219.205C177.588 219.595 177.213 219.905 176.693 220.135C176.183 220.365 175.508 220.48 174.668 220.48C173.608 220.48 172.753 220.28 172.103 219.88C171.463 219.49 171.143 218.9 171.143 218.11C171.143 217.83 171.208 217.57 171.338 217.33C171.478 217.1 171.658 216.89 171.878 216.7C171.608 216.5 171.443 216.22 171.383 215.86C171.333 215.49 171.443 215.135 171.713 214.795L172.373 213.955C171.903 213.455 171.668 212.84 171.668 212.11C171.668 211.62 171.783 211.17 172.013 210.76C172.253 210.34 172.593 210.005 173.033 209.755C173.483 209.505 174.023 209.38 174.653 209.38C175.063 209.38 175.443 209.44 175.793 209.56H178.598V210.61L177.293 210.685V210.82C177.503 211.21 177.608 211.64 177.608 212.11C177.608 212.6 177.488 213.055 177.248 213.475C177.018 213.895 176.683 214.23 176.243 214.48C175.803 214.73 175.273 214.855 174.653 214.855ZM174.653 213.58C175.093 213.58 175.453 213.45 175.733 213.19C176.023 212.93 176.168 212.57 176.168 212.11C176.168 211.67 176.023 211.32 175.733 211.06C175.453 210.8 175.093 210.67 174.653 210.67C174.203 210.67 173.833 210.8 173.543 211.06C173.263 211.32 173.123 211.67 173.123 212.11C173.123 212.57 173.263 212.93 173.543 213.19C173.833 213.45 174.203 213.58 174.653 213.58ZM172.643 217.99C172.643 218.39 172.833 218.685 173.213 218.875C173.603 219.065 174.088 219.16 174.668 219.16C175.288 219.16 175.778 219.055 176.138 218.845C176.498 218.635 176.678 218.34 176.678 217.96C176.678 217.64 176.548 217.385 176.288 217.195C176.028 217.015 175.588 216.925 174.968 216.925H173.213C172.833 217.225 172.643 217.58 172.643 217.99ZM183.437 219.775C182.907 219.175 182.422 218.515 181.982 217.795C181.552 217.085 181.207 216.28 180.947 215.38C180.697 214.48 180.572 213.455 180.572 212.305C180.572 211.145 180.697 210.12 180.947 209.23C181.207 208.33 181.552 207.525 181.982 206.815C182.422 206.095 182.907 205.435 183.437 204.835H185.057V205.03C184.477 205.7 183.972 206.395 183.542 207.115C183.112 207.825 182.777 208.605 182.537 209.455C182.297 210.295 182.177 211.245 182.177 212.305C182.177 213.355 182.297 214.305 182.537 215.155C182.777 216.005 183.112 216.785 183.542 217.495C183.972 218.215 184.477 218.91 185.057 219.58V219.775H183.437ZM237.426 219.775V219.58C238.006 218.91 238.511 218.215 238.941 217.495C239.371 216.785 239.706 216.005 239.946 215.155C240.186 214.305 240.306 213.355 240.306 212.305C240.306 211.245 240.186 210.295 239.946 209.455C239.706 208.605 239.371 207.825 238.941 207.115C238.511 206.395 238.006 205.7 237.426 205.03V204.835H239.046C239.576 205.435 240.056 206.095 240.486 206.815C240.926 207.525 241.271 208.33 241.521 209.23C241.781 210.12 241.911 211.145 241.911 212.305C241.911 213.455 241.781 214.48 241.521 215.38C241.271 216.28 240.926 217.085 240.486 217.795C240.056 218.515 239.576 219.175 239.046 219.775H237.426ZM247.665 211.27C247.295 211.27 246.98 211.15 246.72 210.91C246.46 210.66 246.33 210.36 246.33 210.01C246.33 209.66 246.46 209.365 246.72 209.125C246.98 208.885 247.295 208.765 247.665 208.765C248.045 208.765 248.36 208.885 248.61 209.125C248.87 209.365 249 209.66 249 210.01C249 210.36 248.87 210.66 248.61 210.91C248.36 211.15 248.045 211.27 247.665 211.27ZM245.325 218.875L246.765 214.675H248.85L246.885 218.875H245.325ZM150.641 236.18C149.951 236.18 149.331 236.02 148.781 235.7C148.241 235.38 147.816 234.93 147.506 234.35C147.196 233.76 147.041 233.07 147.041 232.28C147.041 231.49 147.196 230.805 147.506 230.225C147.826 229.645 148.256 229.195 148.796 228.875C149.336 228.545 149.951 228.38 150.641 228.38C151.591 228.38 152.356 228.62 152.936 229.1C153.526 229.57 153.901 230.22 154.061 231.05H152.396C152.296 230.69 152.091 230.405 151.781 230.195C151.481 229.985 151.096 229.88 150.626 229.88C150.286 229.88 149.961 229.97 149.651 230.15C149.351 230.33 149.106 230.6 148.916 230.96C148.736 231.31 148.646 231.75 148.646 232.28C148.646 232.8 148.736 233.24 148.916 233.6C149.106 233.96 149.351 234.235 149.651 234.425C149.961 234.605 150.286 234.695 150.626 234.695C151.106 234.695 151.491 234.59 151.781 234.38C152.071 234.17 152.276 233.88 152.396 233.51H154.061C153.861 234.33 153.471 234.98 152.891 235.46C152.311 235.94 151.561 236.18 150.641 236.18ZM159.44 236C158.71 236 158.13 235.825 157.7 235.475C157.27 235.115 157.055 234.48 157.055 233.57V229.91H155.18V228.56H156.29C156.8 228.56 157.1 228.31 157.19 227.81L157.415 226.61H158.645V228.56H161.585V229.91H158.645V233.54C158.645 233.93 158.73 234.205 158.9 234.365C159.08 234.515 159.385 234.59 159.815 234.59H161.555V236H159.44ZM163.124 236L165.674 232.28L163.034 228.56H164.804L166.724 231.335L168.644 228.56H170.414L167.774 232.28L170.324 236H168.554L166.724 233.225L164.879 236H163.124ZM174.818 230.27C174.448 230.27 174.133 230.15 173.873 229.91C173.613 229.66 173.483 229.36 173.483 229.01C173.483 228.66 173.613 228.365 173.873 228.125C174.133 227.885 174.448 227.765 174.818 227.765C175.198 227.765 175.513 227.885 175.763 228.125C176.023 228.365 176.153 228.66 176.153 229.01C176.153 229.36 176.023 229.66 175.763 229.91C175.513 230.15 175.198 230.27 174.818 230.27ZM172.478 237.875L173.918 233.675H176.003L174.038 237.875H172.478ZM74.7633 257.775V256.38H76.0533C76.4433 256.38 76.7333 256.285 76.9233 256.095C77.1233 255.915 77.2233 255.625 77.2233 255.225C77.2233 254.885 77.1983 254.58 77.1483 254.31C77.0983 254.03 77.0483 253.74 76.9983 253.44C76.9483 253.14 76.9233 252.79 76.9233 252.39C76.9233 251.86 77.0383 251.42 77.2683 251.07C77.4983 250.71 77.7983 250.47 78.1683 250.35V250.26C77.7983 250.14 77.4983 249.905 77.2683 249.555C77.0383 249.195 76.9233 248.75 76.9233 248.22C76.9233 247.82 76.9483 247.47 76.9983 247.17C77.0483 246.87 77.0983 246.58 77.1483 246.3C77.1983 246.02 77.2233 245.715 77.2233 245.385C77.2233 244.975 77.1233 244.68 76.9233 244.5C76.7333 244.32 76.4433 244.23 76.0533 244.23H74.7633V242.835H76.2933C77.0433 242.835 77.6433 243.03 78.0933 243.42C78.5433 243.81 78.7683 244.39 78.7683 245.16C78.7683 245.54 78.7383 245.885 78.6783 246.195C78.6283 246.495 78.5733 246.805 78.5133 247.125C78.4633 247.435 78.4383 247.805 78.4383 248.235C78.4383 248.625 78.5483 248.95 78.7683 249.21C78.9983 249.47 79.3783 249.6 79.9083 249.6H80.5833V251.01H79.9083C79.3783 251.01 78.9983 251.14 78.7683 251.4C78.5483 251.66 78.4383 251.985 78.4383 252.375C78.4383 252.795 78.4633 253.165 78.5133 253.485C78.5733 253.805 78.6283 254.115 78.6783 254.415C78.7383 254.715 78.7683 255.055 78.7683 255.435C78.7683 256.215 78.5433 256.8 78.0933 257.19C77.6433 257.58 77.0433 257.775 76.2933 257.775H74.7633ZM83.4424 256.875L84.8824 252.675H86.9674L85.0024 256.875H83.4424ZM58.575 276.775V275.38H59.865C60.255 275.38 60.545 275.285 60.735 275.095C60.935 274.915 61.035 274.625 61.035 274.225C61.035 273.885 61.01 273.58 60.96 273.31C60.91 273.03 60.86 272.74 60.81 272.44C60.76 272.14 60.735 271.79 60.735 271.39C60.735 270.86 60.85 270.42 61.08 270.07C61.31 269.71 61.61 269.47 61.98 269.35V269.26C61.61 269.14 61.31 268.905 61.08 268.555C60.85 268.195 60.735 267.75 60.735 267.22C60.735 266.82 60.76 266.47 60.81 266.17C60.86 265.87 60.91 265.58 60.96 265.3C61.01 265.02 61.035 264.715 61.035 264.385C61.035 263.975 60.935 263.68 60.735 263.5C60.545 263.32 60.255 263.23 59.865 263.23H58.575V261.835H60.105C60.855 261.835 61.455 262.03 61.905 262.42C62.355 262.81 62.58 263.39 62.58 264.16C62.58 264.54 62.55 264.885 62.49 265.195C62.44 265.495 62.385 265.805 62.325 266.125C62.275 266.435 62.25 266.805 62.25 267.235C62.25 267.625 62.36 267.95 62.58 268.21C62.81 268.47 63.19 268.6 63.72 268.6H64.395V270.01H63.72C63.19 270.01 62.81 270.14 62.58 270.4C62.36 270.66 62.25 270.985 62.25 271.375C62.25 271.795 62.275 272.165 62.325 272.485C62.385 272.805 62.44 273.115 62.49 273.415C62.55 273.715 62.58 274.055 62.58 274.435C62.58 275.215 62.355 275.8 61.905 276.19C61.455 276.58 60.855 276.775 60.105 276.775H58.575ZM69.5941 268.27C69.2241 268.27 68.9091 268.15 68.6491 267.91C68.3891 267.66 68.2591 267.36 68.2591 267.01C68.2591 266.66 68.3891 266.365 68.6491 266.125C68.9091 265.885 69.2241 265.765 69.5941 265.765C69.9741 265.765 70.2891 265.885 70.5391 266.125C70.7991 266.365 70.9291 266.66 70.9291 267.01C70.9291 267.36 70.7991 267.66 70.5391 267.91C70.2891 268.15 69.9741 268.27 69.5941 268.27ZM67.2541 275.875L68.6941 271.675H70.7791L68.8141 275.875H67.2541Z"/><path fill="#A3BE8C" d="M107.47 173.315V168.5H109.24V173.315H107.47ZM110.89 173.315V168.5H112.66V173.315H110.89ZM114.859 179V168.5H121.564V169.925H116.449V172.985H121.114V174.395H116.449V177.575H121.564V179H114.859ZM122.518 179V168.5H124.078L128.473 176.195V168.5H129.988V179H128.428L124.033 171.305V179H122.518ZM130.702 179V168.5H133.222C134.912 168.5 136.167 168.97 136.987 169.91C137.807 170.84 138.217 172.12 138.217 173.75C138.217 175.38 137.807 176.665 136.987 177.605C136.167 178.535 134.912 179 133.222 179H130.702ZM132.292 177.53H133.162C134.382 177.53 135.262 177.19 135.802 176.51C136.342 175.82 136.612 174.9 136.612 173.75C136.612 172.6 136.342 171.685 135.802 171.005C135.262 170.315 134.382 169.97 133.162 169.97H132.292V177.53ZM139.846 173.315V168.5H141.616V173.315H139.846ZM143.266 173.315V168.5H145.036V173.315H143.266ZM188.411 211.315V206.5H190.181V211.315H188.411ZM191.831 211.315V206.5H193.601V211.315H191.831ZM195.44 217V206.5H199.19C200.28 206.5 201.105 206.75 201.665 207.25C202.225 207.75 202.505 208.395 202.505 209.185C202.505 209.795 202.345 210.29 202.025 210.67C201.705 211.05 201.335 211.325 200.915 211.495V211.6C201.415 211.78 201.845 212.075 202.205 212.485C202.565 212.885 202.745 213.415 202.745 214.075C202.745 214.615 202.61 215.11 202.34 215.56C202.08 216 201.695 216.35 201.185 216.61C200.675 216.87 200.05 217 199.31 217H195.44ZM197.03 210.88H198.995C199.605 210.88 200.07 210.76 200.39 210.52C200.71 210.27 200.87 209.895 200.87 209.395C200.87 208.405 200.235 207.91 198.965 207.91H197.03V210.88ZM197.03 215.53H199.1C199.75 215.53 200.25 215.39 200.6 215.11C200.95 214.83 201.125 214.42 201.125 213.88C201.125 213.35 200.94 212.945 200.57 212.665C200.2 212.375 199.7 212.23 199.07 212.23H197.03V215.53ZM204.84 220.3L206.61 216.385H206.175L203.28 209.56H205.005L207.225 215.005L209.58 209.56H211.245L206.52 220.3H204.84ZM215.379 217.18C214.659 217.18 214.024 217.02 213.474 216.7C212.924 216.37 212.494 215.915 212.184 215.335C211.874 214.755 211.719 214.08 211.719 213.31C211.719 212.53 211.869 211.845 212.169 211.255C212.479 210.665 212.909 210.205 213.459 209.875C214.019 209.545 214.664 209.38 215.394 209.38C216.114 209.38 216.734 209.545 217.254 209.875C217.774 210.195 218.174 210.625 218.454 211.165C218.744 211.705 218.889 212.3 218.889 212.95C218.889 213.05 218.889 213.16 218.889 213.28C218.889 213.39 218.884 213.515 218.874 213.655H213.279C213.329 214.345 213.554 214.87 213.954 215.23C214.354 215.58 214.824 215.755 215.364 215.755C215.834 215.755 216.204 215.66 216.474 215.47C216.754 215.27 216.959 215 217.089 214.66H218.694C218.514 215.37 218.139 215.97 217.569 216.46C216.999 216.94 216.269 217.18 215.379 217.18ZM215.379 210.76C214.889 210.76 214.454 210.91 214.074 211.21C213.694 211.5 213.449 211.91 213.339 212.44H217.299C217.259 211.94 217.064 211.535 216.714 211.225C216.364 210.915 215.919 210.76 215.379 210.76ZM222.633 213.175L222.393 206.5H224.373L224.118 213.175H222.633ZM223.398 217.09C223.028 217.09 222.713 216.97 222.453 216.73C222.193 216.48 222.063 216.18 222.063 215.83C222.063 215.48 222.193 215.185 222.453 214.945C222.713 214.705 223.028 214.585 223.398 214.585C223.778 214.585 224.093 214.705 224.343 214.945C224.603 215.185 224.733 215.48 224.733 215.83C224.733 216.18 224.603 216.48 224.343 216.73C224.093 216.97 223.778 217.09 223.398 217.09ZM228.882 211.315V206.5H230.652V211.315H228.882ZM232.302 211.315V206.5H234.072V211.315H232.302Z"/><path fill="#D08770" d="M126.358 198.18C125.668 198.18 125.048 198.02 124.498 197.7C123.958 197.38 123.533 196.93 123.223 196.35C122.913 195.76 122.758 195.07 122.758 194.28C122.758 193.49 122.913 192.805 123.223 192.225C123.543 191.645 123.973 191.195 124.513 190.875C125.053 190.545 125.668 190.38 126.358 190.38C127.308 190.38 128.073 190.62 128.653 191.1C129.243 191.57 129.618 192.22 129.778 193.05H128.113C128.013 192.69 127.808 192.405 127.498 192.195C127.198 191.985 126.813 191.88 126.343 191.88C126.003 191.88 125.678 191.97 125.368 192.15C125.068 192.33 124.823 192.6 124.633 192.96C124.453 193.31 124.363 193.75 124.363 194.28C124.363 194.8 124.453 195.24 124.633 195.6C124.823 195.96 125.068 196.235 125.368 196.425C125.678 196.605 126.003 196.695 126.343 196.695C126.823 196.695 127.208 196.59 127.498 196.38C127.788 196.17 127.993 195.88 128.113 195.51H129.778C129.578 196.33 129.188 196.98 128.608 197.46C128.028 197.94 127.278 198.18 126.358 198.18ZM135.157 198C134.427 198 133.847 197.825 133.417 197.475C132.987 197.115 132.772 196.48 132.772 195.57V191.91H130.897V190.56H132.007C132.517 190.56 132.817 190.31 132.907 189.81L133.132 188.61H134.362V190.56H137.302V191.91H134.362V195.54C134.362 195.93 134.447 196.205 134.617 196.365C134.797 196.515 135.102 196.59 135.532 196.59H137.272V198H135.157ZM138.841 198L141.391 194.28L138.751 190.56H140.521L142.441 193.335L144.361 190.56H146.131L143.491 194.28L146.041 198H144.271L142.441 195.225L140.596 198H138.841ZM93.9816 217.18C93.2916 217.18 92.6716 217.02 92.1216 216.7C91.5816 216.38 91.1566 215.93 90.8466 215.35C90.5366 214.76 90.3816 214.07 90.3816 213.28C90.3816 212.49 90.5366 211.805 90.8466 211.225C91.1666 210.645 91.5966 210.195 92.1366 209.875C92.6766 209.545 93.2916 209.38 93.9816 209.38C94.9316 209.38 95.6966 209.62 96.2766 210.1C96.8666 210.57 97.2416 211.22 97.4016 212.05H95.7366C95.6366 211.69 95.4316 211.405 95.1216 211.195C94.8216 210.985 94.4366 210.88 93.9666 210.88C93.6266 210.88 93.3016 210.97 92.9916 211.15C92.6916 211.33 92.4466 211.6 92.2566 211.96C92.0766 212.31 91.9866 212.75 91.9866 213.28C91.9866 213.8 92.0766 214.24 92.2566 214.6C92.4466 214.96 92.6916 215.235 92.9916 215.425C93.3016 215.605 93.6266 215.695 93.9666 215.695C94.4466 215.695 94.8316 215.59 95.1216 215.38C95.4116 215.17 95.6166 214.88 95.7366 214.51H97.4016C97.2016 215.33 96.8116 215.98 96.2316 216.46C95.6516 216.94 94.9016 217.18 93.9816 217.18ZM101.971 217.18C101.261 217.18 100.626 217.02 100.066 216.7C99.5057 216.38 99.0657 215.93 98.7457 215.35C98.4257 214.76 98.2657 214.07 98.2657 213.28C98.2657 212.49 98.4257 211.805 98.7457 211.225C99.0657 210.635 99.5057 210.18 100.066 209.86C100.626 209.54 101.266 209.38 101.986 209.38C102.706 209.38 103.341 209.54 103.891 209.86C104.451 210.18 104.886 210.635 105.196 211.225C105.516 211.805 105.676 212.49 105.676 213.28C105.676 214.07 105.516 214.76 105.196 215.35C104.876 215.93 104.436 216.38 103.876 216.7C103.326 217.02 102.691 217.18 101.971 217.18ZM101.971 215.665C102.351 215.665 102.701 215.58 103.021 215.41C103.341 215.24 103.596 214.98 103.786 214.63C103.986 214.27 104.086 213.82 104.086 213.28C104.086 212.73 103.986 212.28 103.786 211.93C103.596 211.58 103.341 211.32 103.021 211.15C102.711 210.98 102.366 210.895 101.986 210.895C101.606 210.895 101.256 210.98 100.936 211.15C100.616 211.32 100.356 211.58 100.156 211.93C99.9657 212.28 99.8707 212.73 99.8707 213.28C99.8707 214.1 100.076 214.705 100.486 215.095C100.906 215.475 101.401 215.665 101.971 215.665ZM106.735 217V209.56H108.115L108.25 210.67H108.325C108.525 210.31 108.835 210.005 109.255 209.755C109.675 209.505 110.16 209.38 110.71 209.38C111.62 209.38 112.305 209.655 112.765 210.205C113.225 210.755 113.455 211.565 113.455 212.635V217H111.865V212.83C111.865 212.21 111.735 211.73 111.475 211.39C111.215 211.05 110.805 210.88 110.245 210.88C109.695 210.88 109.235 211.065 108.865 211.435C108.505 211.805 108.325 212.34 108.325 213.04V217H106.735ZM118.219 217.18C117.239 217.18 116.459 216.95 115.879 216.49C115.299 216.03 114.969 215.42 114.889 214.66H116.524C116.584 215.01 116.759 215.295 117.049 215.515C117.349 215.735 117.744 215.845 118.234 215.845C118.704 215.845 119.064 215.75 119.314 215.56C119.574 215.36 119.704 215.13 119.704 214.87C119.704 214.49 119.549 214.23 119.239 214.09C118.939 213.95 118.494 213.845 117.904 213.775C117.394 213.715 116.929 213.6 116.509 213.43C116.099 213.25 115.774 213.01 115.534 212.71C115.294 212.4 115.174 212.015 115.174 211.555C115.174 210.905 115.429 210.38 115.939 209.98C116.449 209.58 117.159 209.38 118.069 209.38C118.979 209.38 119.684 209.585 120.184 209.995C120.684 210.405 120.974 210.965 121.054 211.675H119.524C119.484 211.375 119.329 211.14 119.059 210.97C118.789 210.79 118.454 210.7 118.054 210.7C117.644 210.7 117.319 210.78 117.079 210.94C116.839 211.09 116.719 211.29 116.719 211.54C116.719 212.08 117.299 212.41 118.459 212.53C119.009 212.59 119.499 212.695 119.929 212.845C120.359 212.985 120.699 213.21 120.949 213.52C121.199 213.82 121.324 214.245 121.324 214.795C121.334 215.245 121.204 215.65 120.934 216.01C120.674 216.37 120.309 216.655 119.839 216.865C119.379 217.075 118.839 217.18 118.219 217.18ZM126.253 217.18C125.543 217.18 124.908 217.02 124.348 216.7C123.788 216.38 123.348 215.93 123.028 215.35C122.708 214.76 122.548 214.07 122.548 213.28C122.548 212.49 122.708 211.805 123.028 211.225C123.348 210.635 123.788 210.18 124.348 209.86C124.908 209.54 125.548 209.38 126.268 209.38C126.988 209.38 127.623 209.54 128.173 209.86C128.733 210.18 129.168 210.635 129.478 211.225C129.798 211.805 129.958 212.49 129.958 213.28C129.958 214.07 129.798 214.76 129.478 215.35C129.158 215.93 128.718 216.38 128.158 216.7C127.608 217.02 126.973 217.18 126.253 217.18ZM126.253 215.665C126.633 215.665 126.983 215.58 127.303 215.41C127.623 215.24 127.878 214.98 128.068 214.63C128.268 214.27 128.368 213.82 128.368 213.28C128.368 212.73 128.268 212.28 128.068 211.93C127.878 211.58 127.623 211.32 127.303 211.15C126.993 210.98 126.648 210.895 126.268 210.895C125.888 210.895 125.538 210.98 125.218 211.15C124.898 211.32 124.638 211.58 124.438 211.93C124.248 212.28 124.153 212.73 124.153 213.28C124.153 214.1 124.358 214.705 124.768 215.095C125.188 215.475 125.683 215.665 126.253 215.665ZM130.867 217V215.62H133.357V208.075C133.357 207.745 133.197 207.58 132.877 207.58H131.077V206.2H133.162C133.742 206.2 134.182 206.355 134.482 206.665C134.792 206.965 134.947 207.405 134.947 207.985V215.62H137.452V217H130.867ZM142.531 217.18C141.811 217.18 141.176 217.02 140.626 216.7C140.076 216.37 139.646 215.915 139.336 215.335C139.026 214.755 138.871 214.08 138.871 213.31C138.871 212.53 139.021 211.845 139.321 211.255C139.631 210.665 140.061 210.205 140.611 209.875C141.171 209.545 141.816 209.38 142.546 209.38C143.266 209.38 143.886 209.545 144.406 209.875C144.926 210.195 145.326 210.625 145.606 211.165C145.896 211.705 146.041 212.3 146.041 212.95C146.041 213.05 146.041 213.16 146.041 213.28C146.041 213.39 146.036 213.515 146.026 213.655H140.431C140.481 214.345 140.706 214.87 141.106 215.23C141.506 215.58 141.976 215.755 142.516 215.755C142.986 215.755 143.356 215.66 143.626 215.47C143.906 215.27 144.111 215 144.241 214.66H145.846C145.666 215.37 145.291 215.97 144.721 216.46C144.151 216.94 143.421 217.18 142.531 217.18ZM142.531 210.76C142.041 210.76 141.606 210.91 141.226 211.21C140.846 211.5 140.601 211.91 140.491 212.44H144.451C144.411 211.94 144.216 211.535 143.866 211.225C143.516 210.915 143.071 210.76 142.531 210.76Z"/><circle cx="42.306" cy="135.306" r="5.306" fill="#FF6058"/><circle cx="60.5" cy="135.306" r="5.306" fill="#FFBE2D"/><circle cx="78.694" cy="135.306" r="5.306" fill="#26CA40"/><circle cx="62.306" cy="20.306" r="5.306" fill="#FF6058"/><circle cx="80.5" cy="20.306" r="5.306" fill="#FFBE2D"/><circle cx="98.694" cy="20.306" r="5.306" fill="#26CA40"/><rect width="268" height="100" x="117" y="251" fill="#35445F" rx="10"/><circle cx="136.306" cy="268.306" r="5.306" fill="#FF6058"/><circle cx="154.5" cy="268.306" r="5.306" fill="#FFBE2D"/><circle cx="172.694" cy="268.306" r="5.306" fill="#26CA40"/><path fill="#7E8FAD" d="M137.47 293.845L141.43 289.81V289.69L137.47 285.67H139.6L143.59 289.735L139.6 293.845H137.47Z"/><path fill="#C0C5CE" d="M156.688 295.09C156.318 295.09 156.003 294.97 155.743 294.73C155.483 294.48 155.353 294.18 155.353 293.83C155.353 293.48 155.483 293.185 155.743 292.945C156.003 292.705 156.318 292.585 156.688 292.585C157.068 292.585 157.383 292.705 157.633 292.945C157.893 293.185 158.023 293.48 158.023 293.83C158.023 294.18 157.893 294.48 157.633 294.73C157.383 294.97 157.068 295.09 156.688 295.09ZM161.377 296.35L166.567 283.6H168.187L162.982 296.35H161.377ZM173.282 295.18C172.732 295.18 172.267 295.07 171.887 294.85C171.517 294.62 171.232 294.305 171.032 293.905H170.942L170.807 295H169.442V284.2H171.032V288.52C171.212 288.22 171.497 287.955 171.887 287.725C172.277 287.495 172.742 287.38 173.282 287.38C173.902 287.38 174.457 287.53 174.947 287.83C175.437 288.12 175.822 288.555 176.102 289.135C176.392 289.715 176.537 290.43 176.537 291.28C176.537 292.13 176.392 292.845 176.102 293.425C175.822 294.005 175.437 294.445 174.947 294.745C174.457 295.035 173.902 295.18 173.282 295.18ZM172.952 293.665C173.522 293.665 173.992 293.47 174.362 293.08C174.742 292.68 174.932 292.085 174.932 291.295C174.932 290.495 174.742 289.895 174.362 289.495C173.992 289.095 173.522 288.895 172.952 288.895C172.382 288.895 171.907 289.095 171.527 289.495C171.157 289.885 170.972 290.48 170.972 291.28C170.972 292.07 171.157 292.665 171.527 293.065C171.907 293.465 172.382 293.665 172.952 293.665ZM180.821 286.42C180.471 286.42 180.176 286.31 179.936 286.09C179.706 285.86 179.591 285.58 179.591 285.25C179.591 284.92 179.706 284.645 179.936 284.425C180.176 284.205 180.471 284.095 180.821 284.095C181.181 284.095 181.476 284.205 181.706 284.425C181.946 284.645 182.066 284.92 182.066 285.25C182.066 285.58 181.946 285.86 181.706 286.09C181.476 286.31 181.181 286.42 180.821 286.42ZM177.836 295V293.62H180.176V289.435C180.176 289.105 180.016 288.94 179.696 288.94H178.046V287.56H179.981C180.601 287.56 181.051 287.705 181.331 287.995C181.621 288.275 181.766 288.725 181.766 289.345V293.62H184.106V295H177.836ZM185.735 295V287.56H187.115L187.25 288.67H187.325C187.525 288.31 187.835 288.005 188.255 287.755C188.675 287.505 189.16 287.38 189.71 287.38C190.62 287.38 191.305 287.655 191.765 288.205C192.225 288.755 192.455 289.565 192.455 290.635V295H190.865V290.83C190.865 290.21 190.735 289.73 190.475 289.39C190.215 289.05 189.805 288.88 189.245 288.88C188.695 288.88 188.235 289.065 187.865 289.435C187.505 289.805 187.325 290.34 187.325 291.04V295H185.735ZM193.754 296.35L198.944 283.6H200.564L195.359 296.35H193.754ZM205.358 295.18C204.668 295.18 204.048 295.02 203.498 294.7C202.958 294.38 202.533 293.93 202.223 293.35C201.913 292.76 201.758 292.07 201.758 291.28C201.758 290.49 201.913 289.805 202.223 289.225C202.543 288.645 202.973 288.195 203.513 287.875C204.053 287.545 204.668 287.38 205.358 287.38C206.308 287.38 207.073 287.62 207.653 288.1C208.243 288.57 208.618 289.22 208.778 290.05H207.113C207.013 289.69 206.808 289.405 206.498 289.195C206.198 288.985 205.813 288.88 205.343 288.88C205.003 288.88 204.678 288.97 204.368 289.15C204.068 289.33 203.823 289.6 203.633 289.96C203.453 290.31 203.363 290.75 203.363 291.28C203.363 291.8 203.453 292.24 203.633 292.6C203.823 292.96 204.068 293.235 204.368 293.425C204.678 293.605 205.003 293.695 205.343 293.695C205.823 293.695 206.208 293.59 206.498 293.38C206.788 293.17 206.993 292.88 207.113 292.51H208.778C208.578 293.33 208.188 293.98 207.608 294.46C207.028 294.94 206.278 295.18 205.358 295.18ZM209.222 295V287.56H210.542L210.677 288.43H210.752C210.882 288.12 211.082 287.87 211.352 287.68C211.622 287.48 211.942 287.38 212.312 287.38C212.672 287.38 212.987 287.47 213.257 287.65C213.527 287.83 213.727 288.09 213.857 288.43H213.917C214.047 288.13 214.252 287.88 214.532 287.68C214.812 287.48 215.157 287.38 215.567 287.38C216.117 287.38 216.532 287.56 216.812 287.92C217.102 288.28 217.247 288.785 217.247 289.435V295H215.717V289.75C215.717 289.45 215.652 289.215 215.522 289.045C215.402 288.865 215.207 288.775 214.937 288.775C214.667 288.775 214.442 288.88 214.262 289.09C214.092 289.3 214.007 289.595 214.007 289.975V295H212.462V289.75C212.462 289.45 212.402 289.215 212.282 289.045C212.162 288.865 211.967 288.775 211.697 288.775C211.427 288.775 211.202 288.88 211.022 289.09C210.842 289.3 210.752 289.595 210.752 289.975V295H209.222ZM221.036 295.18C220.416 295.18 219.861 295.035 219.371 294.745C218.881 294.445 218.491 294.005 218.201 293.425C217.921 292.845 217.781 292.13 217.781 291.28C217.781 290.43 217.926 289.715 218.216 289.135C218.506 288.555 218.896 288.12 219.386 287.83C219.886 287.53 220.441 287.38 221.051 287.38C221.621 287.38 222.091 287.49 222.461 287.71C222.831 287.92 223.106 288.19 223.286 288.52V284.2H224.876V295H223.511L223.376 293.905H223.286C223.086 294.295 222.801 294.605 222.431 294.835C222.071 295.065 221.606 295.18 221.036 295.18ZM221.366 293.665C221.936 293.665 222.406 293.465 222.776 293.065C223.156 292.665 223.346 292.07 223.346 291.28C223.346 290.48 223.156 289.885 222.776 289.495C222.406 289.095 221.936 288.895 221.366 288.895C220.796 288.895 220.321 289.095 219.941 289.495C219.571 289.895 219.386 290.495 219.386 291.295C219.386 292.085 219.571 292.68 219.941 293.08C220.321 293.47 220.796 293.665 221.366 293.665ZM136.615 313V302.5H138.205V306.85H142.795V302.5H144.385V313H142.795V308.305H138.205V313H136.615ZM148.684 313.18C147.964 313.18 147.329 313.02 146.779 312.7C146.229 312.37 145.799 311.915 145.489 311.335C145.179 310.755 145.024 310.08 145.024 309.31C145.024 308.53 145.174 307.845 145.474 307.255C145.784 306.665 146.214 306.205 146.764 305.875C147.324 305.545 147.969 305.38 148.699 305.38C149.419 305.38 150.039 305.545 150.559 305.875C151.079 306.195 151.479 306.625 151.759 307.165C152.049 307.705 152.194 308.3 152.194 308.95C152.194 309.05 152.194 309.16 152.194 309.28C152.194 309.39 152.189 309.515 152.179 309.655H146.584C146.634 310.345 146.859 310.87 147.259 311.23C147.659 311.58 148.129 311.755 148.669 311.755C149.139 311.755 149.509 311.66 149.779 311.47C150.059 311.27 150.264 311 150.394 310.66H151.999C151.819 311.37 151.444 311.97 150.874 312.46C150.304 312.94 149.574 313.18 148.684 313.18ZM148.684 306.76C148.194 306.76 147.759 306.91 147.379 307.21C146.999 307.5 146.754 307.91 146.644 308.44H150.604C150.564 307.94 150.369 307.535 150.019 307.225C149.669 306.915 149.224 306.76 148.684 306.76ZM153.208 313V311.62H155.698V304.075C155.698 303.745 155.538 303.58 155.218 303.58H153.418V302.2H155.503C156.083 302.2 156.523 302.355 156.823 302.665C157.133 302.965 157.288 303.405 157.288 303.985V311.62H159.793V313H153.208ZM161.302 313V311.62H163.792V304.075C163.792 303.745 163.632 303.58 163.312 303.58H161.512V302.2H163.597C164.177 302.2 164.617 302.355 164.917 302.665C165.227 302.965 165.382 303.405 165.382 303.985V311.62H167.887V313H161.302ZM172.877 313.18C172.167 313.18 171.532 313.02 170.972 312.7C170.412 312.38 169.972 311.93 169.652 311.35C169.332 310.76 169.172 310.07 169.172 309.28C169.172 308.49 169.332 307.805 169.652 307.225C169.972 306.635 170.412 306.18 170.972 305.86C171.532 305.54 172.172 305.38 172.892 305.38C173.612 305.38 174.247 305.54 174.797 305.86C175.357 306.18 175.792 306.635 176.102 307.225C176.422 307.805 176.582 308.49 176.582 309.28C176.582 310.07 176.422 310.76 176.102 311.35C175.782 311.93 175.342 312.38 174.782 312.7C174.232 313.02 173.597 313.18 172.877 313.18ZM172.877 311.665C173.257 311.665 173.607 311.58 173.927 311.41C174.247 311.24 174.502 310.98 174.692 310.63C174.892 310.27 174.992 309.82 174.992 309.28C174.992 308.73 174.892 308.28 174.692 307.93C174.502 307.58 174.247 307.32 173.927 307.15C173.617 306.98 173.272 306.895 172.892 306.895C172.512 306.895 172.162 306.98 171.842 307.15C171.522 307.32 171.262 307.58 171.062 307.93C170.872 308.28 170.777 308.73 170.777 309.28C170.777 310.1 170.982 310.705 171.392 311.095C171.812 311.475 172.307 311.665 172.877 311.665ZM180.221 309.175L179.981 302.5H181.961L181.706 309.175H180.221ZM180.986 313.09C180.616 313.09 180.301 312.97 180.041 312.73C179.781 312.48 179.651 312.18 179.651 311.83C179.651 311.48 179.781 311.185 180.041 310.945C180.301 310.705 180.616 310.585 180.986 310.585C181.366 310.585 181.681 310.705 181.931 310.945C182.191 311.185 182.321 311.48 182.321 311.83C182.321 312.18 182.191 312.48 181.931 312.73C181.681 312.97 181.366 313.09 180.986 313.09ZM136.84 331V320.5H140.59C141.68 320.5 142.505 320.75 143.065 321.25C143.625 321.75 143.905 322.395 143.905 323.185C143.905 323.795 143.745 324.29 143.425 324.67C143.105 325.05 142.735 325.325 142.315 325.495V325.6C142.815 325.78 143.245 326.075 143.605 326.485C143.965 326.885 144.145 327.415 144.145 328.075C144.145 328.615 144.01 329.11 143.74 329.56C143.48 330 143.095 330.35 142.585 330.61C142.075 330.87 141.45 331 140.71 331H136.84ZM138.43 324.88H140.395C141.005 324.88 141.47 324.76 141.79 324.52C142.11 324.27 142.27 323.895 142.27 323.395C142.27 322.405 141.635 321.91 140.365 321.91H138.43V324.88ZM138.43 329.53H140.5C141.15 329.53 141.65 329.39 142 329.11C142.35 328.83 142.525 328.42 142.525 327.88C142.525 327.35 142.34 326.945 141.97 326.665C141.6 326.375 141.1 326.23 140.47 326.23H138.43V329.53ZM146.239 334.3L148.009 330.385H147.574L144.679 323.56H146.404L148.624 329.005L150.979 323.56H152.644L147.919 334.3H146.239ZM156.778 331.18C156.058 331.18 155.423 331.02 154.873 330.7C154.323 330.37 153.893 329.915 153.583 329.335C153.273 328.755 153.118 328.08 153.118 327.31C153.118 326.53 153.268 325.845 153.568 325.255C153.878 324.665 154.308 324.205 154.858 323.875C155.418 323.545 156.063 323.38 156.793 323.38C157.513 323.38 158.133 323.545 158.653 323.875C159.173 324.195 159.573 324.625 159.853 325.165C160.143 325.705 160.288 326.3 160.288 326.95C160.288 327.05 160.288 327.16 160.288 327.28C160.288 327.39 160.283 327.515 160.273 327.655H154.678C154.728 328.345 154.953 328.87 155.353 329.23C155.753 329.58 156.223 329.755 156.763 329.755C157.233 329.755 157.603 329.66 157.873 329.47C158.153 329.27 158.358 329 158.488 328.66H160.093C159.913 329.37 159.538 329.97 158.968 330.46C158.398 330.94 157.668 331.18 156.778 331.18ZM156.778 324.76C156.288 324.76 155.853 324.91 155.473 325.21C155.093 325.5 154.848 325.91 154.738 326.44H158.698C158.658 325.94 158.463 325.535 158.113 325.225C157.763 324.915 157.318 324.76 156.778 324.76ZM164.032 327.175L163.792 320.5H165.772L165.517 327.175H164.032ZM164.797 331.09C164.427 331.09 164.112 330.97 163.852 330.73C163.592 330.48 163.462 330.18 163.462 329.83C163.462 329.48 163.592 329.185 163.852 328.945C164.112 328.705 164.427 328.585 164.797 328.585C165.177 328.585 165.492 328.705 165.742 328.945C166.002 329.185 166.132 329.48 166.132 329.83C166.132 330.18 166.002 330.48 165.742 330.73C165.492 330.97 165.177 331.09 164.797 331.09Z"/><path fill="#C8B483" d="M237.465 292.855C237.005 292.855 236.58 292.78 236.19 292.63L235.815 293.08C235.695 293.23 235.66 293.375 235.71 293.515C235.77 293.645 235.905 293.71 236.115 293.71H238.08C238.95 293.71 239.65 293.895 240.18 294.265C240.72 294.625 240.99 295.18 240.99 295.93C240.99 296.4 240.87 296.825 240.63 297.205C240.4 297.595 240.025 297.905 239.505 298.135C238.995 298.365 238.32 298.48 237.48 298.48C236.42 298.48 235.565 298.28 234.915 297.88C234.275 297.49 233.955 296.9 233.955 296.11C233.955 295.83 234.02 295.57 234.15 295.33C234.29 295.1 234.47 294.89 234.69 294.7C234.42 294.5 234.255 294.22 234.195 293.86C234.145 293.49 234.255 293.135 234.525 292.795L235.185 291.955C234.715 291.455 234.48 290.84 234.48 290.11C234.48 289.62 234.595 289.17 234.825 288.76C235.065 288.34 235.405 288.005 235.845 287.755C236.295 287.505 236.835 287.38 237.465 287.38C237.875 287.38 238.255 287.44 238.605 287.56H241.41V288.61L240.105 288.685V288.82C240.315 289.21 240.42 289.64 240.42 290.11C240.42 290.6 240.3 291.055 240.06 291.475C239.83 291.895 239.495 292.23 239.055 292.48C238.615 292.73 238.085 292.855 237.465 292.855ZM237.465 291.58C237.905 291.58 238.265 291.45 238.545 291.19C238.835 290.93 238.98 290.57 238.98 290.11C238.98 289.67 238.835 289.32 238.545 289.06C238.265 288.8 237.905 288.67 237.465 288.67C237.015 288.67 236.645 288.8 236.355 289.06C236.075 289.32 235.935 289.67 235.935 290.11C235.935 290.57 236.075 290.93 236.355 291.19C236.645 291.45 237.015 291.58 237.465 291.58ZM235.455 295.99C235.455 296.39 235.645 296.685 236.025 296.875C236.415 297.065 236.9 297.16 237.48 297.16C238.1 297.16 238.59 297.055 238.95 296.845C239.31 296.635 239.49 296.34 239.49 295.96C239.49 295.64 239.36 295.385 239.1 295.195C238.84 295.015 238.4 294.925 237.78 294.925H236.025C235.645 295.225 235.455 295.58 235.455 295.99ZM242.379 295V293.62H244.194V289.435C244.194 289.105 244.034 288.94 243.714 288.94H242.529V287.56H244.314C244.724 287.56 245.059 287.68 245.319 287.92C245.579 288.15 245.709 288.475 245.709 288.895V289.075H245.784C245.894 288.515 246.129 288.095 246.489 287.815C246.859 287.525 247.394 287.38 248.094 287.38H249.249V289.06H247.629C247.039 289.06 246.584 289.265 246.264 289.675C245.944 290.085 245.784 290.575 245.784 291.145V293.62H248.094V295H242.379ZM253.908 295.18C253.188 295.18 252.553 295.02 252.003 294.7C251.453 294.37 251.023 293.915 250.713 293.335C250.403 292.755 250.248 292.08 250.248 291.31C250.248 290.53 250.398 289.845 250.698 289.255C251.008 288.665 251.438 288.205 251.988 287.875C252.548 287.545 253.193 287.38 253.923 287.38C254.643 287.38 255.263 287.545 255.783 287.875C256.303 288.195 256.703 288.625 256.983 289.165C257.273 289.705 257.418 290.3 257.418 290.95C257.418 291.05 257.418 291.16 257.418 291.28C257.418 291.39 257.413 291.515 257.403 291.655H251.808C251.858 292.345 252.083 292.87 252.483 293.23C252.883 293.58 253.353 293.755 253.893 293.755C254.363 293.755 254.733 293.66 255.003 293.47C255.283 293.27 255.488 293 255.618 292.66H257.223C257.043 293.37 256.668 293.97 256.098 294.46C255.528 294.94 254.798 295.18 253.908 295.18ZM253.908 288.76C253.418 288.76 252.983 288.91 252.603 289.21C252.223 289.5 251.978 289.91 251.868 290.44H255.828C255.788 289.94 255.593 289.535 255.243 289.225C254.893 288.915 254.448 288.76 253.908 288.76ZM262.002 295.18C261.282 295.18 260.647 295.02 260.097 294.7C259.547 294.37 259.117 293.915 258.807 293.335C258.497 292.755 258.342 292.08 258.342 291.31C258.342 290.53 258.492 289.845 258.792 289.255C259.102 288.665 259.532 288.205 260.082 287.875C260.642 287.545 261.287 287.38 262.017 287.38C262.737 287.38 263.357 287.545 263.877 287.875C264.397 288.195 264.797 288.625 265.077 289.165C265.367 289.705 265.512 290.3 265.512 290.95C265.512 291.05 265.512 291.16 265.512 291.28C265.512 291.39 265.507 291.515 265.497 291.655H259.902C259.952 292.345 260.177 292.87 260.577 293.23C260.977 293.58 261.447 293.755 261.987 293.755C262.457 293.755 262.827 293.66 263.097 293.47C263.377 293.27 263.582 293 263.712 292.66H265.317C265.137 293.37 264.762 293.97 264.192 294.46C263.622 294.94 262.892 295.18 262.002 295.18ZM262.002 288.76C261.512 288.76 261.077 288.91 260.697 289.21C260.317 289.5 260.072 289.91 259.962 290.44H263.922C263.882 289.94 263.687 289.535 263.337 289.225C262.987 288.915 262.542 288.76 262.002 288.76ZM270.816 295C270.086 295 269.506 294.825 269.076 294.475C268.646 294.115 268.431 293.48 268.431 292.57V288.91H266.556V287.56H267.666C268.176 287.56 268.476 287.31 268.566 286.81L268.791 285.61H270.021V287.56H272.961V288.91H270.021V292.54C270.021 292.93 270.106 293.205 270.276 293.365C270.456 293.515 270.761 293.59 271.191 293.59H272.931V295H270.816Z"/><path fill="#8798BA" d="M7 128L12.6292 135.5H1.37083L7 128Z"/><path fill="#8798BA" d="M7 146L12.6292 138.5H1.37083L7 146Z"/></svg>