<svg xmlns="http://www.w3.org/2000/svg" width="450" height="400" fill="none" viewBox="0 0 450 400"><g clip-path="url(#clip0)"><path stroke="#425CB5" stroke-opacity=".1" stroke-width="2" d="M47.14 309.2V282.2L23.75 268.7L0.369995 282.2V309.2L23.75 322.7M47.14 309.2L23.75 322.7M47.14 309.2L70.52 322.7M23.75 322.7V349.7L47.14 363.2L70.52 349.7M70.52 187.7V160.7L47.14 147.2L23.75 160.7V187.7L47.14 201.2M70.52 187.7L47.14 201.2M70.52 187.7L93.9 201.2V228.2L70.52 241.7L47.14 228.2V201.2M70.52 322.7V349.7M70.52 322.7L93.9 309.2L117.29 322.7V349.7L93.9 363.2L70.52 349.7M117.29 25.7L140.67 39.2M117.29 25.7L93.9 39.2V66.2L117.29 79.7L140.67 66.2V39.2M117.29 25.7V-1.3L140.67 -14.8L164.05 -1.3V25.7L140.67 39.2M257.59 241.7L234.2 228.2L210.82 241.7V268.7L234.2 282.2L257.59 268.7M257.59 241.7V268.7M257.59 241.7L280.97 228.2M257.59 268.7L280.97 282.2M304.35 79.7L327.74 66.2V39.2L304.35 25.7L280.97 39.2V66.2M304.35 79.7L280.97 66.2M304.35 79.7V106.7L280.97 120.2L257.59 106.7V79.7L280.97 66.2M304.35 241.7L327.74 228.2V201.2L304.35 187.7L280.97 201.2V228.2M304.35 241.7L280.97 228.2M304.35 241.7V268.7M304.35 268.7L280.97 282.2M304.35 268.7L327.74 282.2M280.97 282.2V309.2L304.35 322.7L327.74 309.2M327.74 282.2V309.2M327.74 282.2L351.12 268.7L374.5 282.2V309.2L351.12 322.7L327.74 309.2M374.5 66.2L397.89 79.7V106.7L374.5 120.2L351.12 106.7V79.7L374.5 66.2ZM444.65 268.7L468.04 282.2V309.2L444.65 322.7L421.27 309.2V282.2L444.65 268.7Z"/><circle cx="234" cy="200" r="146.5" stroke="#8E99B6" stroke-dasharray="7 7" stroke-linecap="round" stroke-linejoin="round"/><rect width="283" height="80" x="130" y="103" fill="#DAEBFE" rx="10"/><path fill="#5F81AD" fill-opacity=".66" d="M155 155C154.646 155 154.307 154.86 154.057 154.609C153.807 154.359 153.667 154.02 153.667 153.667V132.333C153.667 131.98 153.807 131.641 154.057 131.391C154.307 131.14 154.646 131 155 131H164.885L167.552 133.667H177.667C178.02 133.667 178.359 133.807 178.609 134.057C178.86 134.307 179 134.646 179 135V139H176.333V136.333H166.448L163.781 133.667H156.333V149.664L158.333 141.667H181L177.92 153.991C177.848 154.279 177.681 154.535 177.447 154.718C177.213 154.901 176.924 155 176.627 155H155V155ZM177.584 144.333H160.416L158.416 152.333H175.584L177.584 144.333Z"/><path fill="#5F81AD" d="M202.555 137.09C201.465 137.09 200.51 136.88 199.69 136.46C198.88 136.04 198.245 135.445 197.785 134.675C197.335 133.915 197.11 133.015 197.11 131.975C197.11 130.885 197.3 129.875 197.68 128.945C198.06 128.015 198.595 127.2 199.285 126.5C199.975 125.8 200.785 125.26 201.715 124.88C202.645 124.49 203.665 124.295 204.775 124.295C205.915 124.295 206.9 124.51 207.73 124.94C208.56 125.37 209.2 125.97 209.65 126.74C210.11 127.51 210.34 128.395 210.34 129.395C210.34 129.985 210.265 130.56 210.115 131.12C209.965 131.68 209.745 132.185 209.455 132.635C209.175 133.075 208.825 133.43 208.405 133.7C207.995 133.96 207.52 134.09 206.98 134.09C206.47 134.09 206.07 133.97 205.78 133.73C205.5 133.48 205.33 133.145 205.27 132.725C204.97 133.155 204.585 133.49 204.115 133.73C203.655 133.97 203.16 134.09 202.63 134.09C201.88 134.09 201.29 133.865 200.86 133.415C200.44 132.955 200.23 132.335 200.23 131.555C200.23 131.005 200.315 130.48 200.485 129.98C200.655 129.47 200.9 129.02 201.22 128.63C201.54 128.23 201.915 127.915 202.345 127.685C202.785 127.455 203.27 127.34 203.8 127.34C204.77 127.34 205.405 127.725 205.705 128.495L205.885 127.505H207.205L206.485 131.645C206.415 132.055 206.43 132.39 206.53 132.65C206.63 132.9 206.855 133.025 207.205 133.025C207.515 133.025 207.785 132.915 208.015 132.695C208.255 132.475 208.45 132.19 208.6 131.84C208.76 131.49 208.88 131.11 208.96 130.7C209.04 130.28 209.08 129.87 209.08 129.47C209.08 128.2 208.685 127.205 207.895 126.485C207.105 125.755 206.005 125.39 204.595 125.39C203.705 125.39 202.88 125.56 202.12 125.9C201.36 126.23 200.7 126.69 200.14 127.28C199.58 127.86 199.145 128.54 198.835 129.32C198.525 130.1 198.37 130.94 198.37 131.84C198.37 133.15 198.765 134.165 199.555 134.885C200.345 135.615 201.425 135.98 202.795 135.98C203.235 135.98 203.67 135.935 204.1 135.845C204.54 135.755 204.95 135.625 205.33 135.455L205.585 136.505C204.665 136.895 203.655 137.09 202.555 137.09ZM203.125 132.905C203.515 132.905 203.875 132.8 204.205 132.59C204.535 132.37 204.805 132.075 205.015 131.705C205.225 131.325 205.35 130.895 205.39 130.415C205.44 129.895 205.34 129.45 205.09 129.08C204.84 128.71 204.445 128.525 203.905 128.525C203.445 128.525 203.045 128.66 202.705 128.93C202.365 129.2 202.105 129.545 201.925 129.965C201.745 130.385 201.655 130.83 201.655 131.3C201.655 131.78 201.775 132.17 202.015 132.47C202.265 132.76 202.635 132.905 203.125 132.905ZM212.009 134V123.2H213.599V134H212.009ZM218.643 134.18C217.913 134.18 217.263 134.02 216.693 133.7C216.133 133.37 215.693 132.915 215.373 132.335C215.053 131.755 214.893 131.08 214.893 130.31C214.893 129.53 215.048 128.845 215.358 128.255C215.678 127.665 216.118 127.205 216.678 126.875C217.248 126.545 217.908 126.38 218.658 126.38C219.388 126.38 220.023 126.545 220.563 126.875C221.103 127.195 221.523 127.625 221.823 128.165C222.123 128.705 222.273 129.3 222.273 129.95C222.273 130.05 222.268 130.16 222.258 130.28C222.258 130.39 222.253 130.515 222.243 130.655H216.453C216.503 131.375 216.738 131.925 217.158 132.305C217.588 132.675 218.083 132.86 218.643 132.86C219.093 132.86 219.468 132.76 219.768 132.56C220.078 132.35 220.308 132.07 220.458 131.72H222.048C221.848 132.42 221.448 133.005 220.848 133.475C220.258 133.945 219.523 134.18 218.643 134.18ZM218.643 127.685C218.113 127.685 217.643 127.845 217.233 128.165C216.823 128.475 216.573 128.945 216.483 129.575H220.683C220.653 128.995 220.448 128.535 220.068 128.195C219.688 127.855 219.213 127.685 218.643 127.685ZM226.442 134.18C225.502 134.18 224.727 133.95 224.117 133.49C223.507 133.03 223.157 132.42 223.067 131.66H224.672C224.752 132 224.942 132.295 225.242 132.545C225.542 132.785 225.937 132.905 226.427 132.905C226.907 132.905 227.257 132.805 227.477 132.605C227.697 132.405 227.807 132.175 227.807 131.915C227.807 131.535 227.652 131.28 227.342 131.15C227.042 131.01 226.622 130.885 226.082 130.775C225.662 130.685 225.242 130.565 224.822 130.415C224.412 130.265 224.067 130.055 223.787 129.785C223.517 129.505 223.382 129.13 223.382 128.66C223.382 128.01 223.632 127.47 224.132 127.04C224.632 126.6 225.332 126.38 226.232 126.38C227.062 126.38 227.732 126.58 228.242 126.98C228.762 127.38 229.067 127.945 229.157 128.675H227.627C227.577 128.355 227.427 128.105 227.177 127.925C226.937 127.745 226.612 127.655 226.202 127.655C225.802 127.655 225.492 127.74 225.272 127.91C225.052 128.07 224.942 128.28 224.942 128.54C224.942 128.8 225.092 129.005 225.392 129.155C225.702 129.305 226.107 129.44 226.607 129.56C227.107 129.67 227.567 129.8 227.987 129.95C228.417 130.09 228.762 130.3 229.022 130.58C229.282 130.86 229.412 131.27 229.412 131.81C229.422 132.49 229.157 133.055 228.617 133.505C228.087 133.955 227.362 134.18 226.442 134.18ZM231.202 137.3L232.987 133.385H232.552L229.612 126.56H231.337L233.617 132.065L236.002 126.56H237.682L232.882 137.3H231.202ZM237.324 135.545L241.074 122.435H242.634L238.869 135.545H237.324ZM243.582 134V123.2H245.172V134H243.582ZM250.216 134.18C249.486 134.18 248.836 134.02 248.266 133.7C247.706 133.37 247.266 132.915 246.946 132.335C246.626 131.755 246.466 131.08 246.466 130.31C246.466 129.53 246.621 128.845 246.931 128.255C247.251 127.665 247.691 127.205 248.251 126.875C248.821 126.545 249.481 126.38 250.231 126.38C250.961 126.38 251.596 126.545 252.136 126.875C252.676 127.195 253.096 127.625 253.396 128.165C253.696 128.705 253.846 129.3 253.846 129.95C253.846 130.05 253.841 130.16 253.831 130.28C253.831 130.39 253.826 130.515 253.816 130.655H248.026C248.076 131.375 248.311 131.925 248.731 132.305C249.161 132.675 249.656 132.86 250.216 132.86C250.666 132.86 251.041 132.76 251.341 132.56C251.651 132.35 251.881 132.07 252.031 131.72H253.621C253.421 132.42 253.021 133.005 252.421 133.475C251.831 133.945 251.096 134.18 250.216 134.18ZM250.216 127.685C249.686 127.685 249.216 127.845 248.806 128.165C248.396 128.475 248.146 128.945 248.056 129.575H252.256C252.226 128.995 252.021 128.535 251.641 128.195C251.261 127.855 250.786 127.685 250.216 127.685ZM258.016 134.18C257.076 134.18 256.301 133.95 255.691 133.49C255.081 133.03 254.731 132.42 254.641 131.66H256.246C256.326 132 256.516 132.295 256.816 132.545C257.116 132.785 257.511 132.905 258.001 132.905C258.481 132.905 258.831 132.805 259.051 132.605C259.271 132.405 259.381 132.175 259.381 131.915C259.381 131.535 259.226 131.28 258.916 131.15C258.616 131.01 258.196 130.885 257.656 130.775C257.236 130.685 256.816 130.565 256.396 130.415C255.986 130.265 255.641 130.055 255.361 129.785C255.091 129.505 254.956 129.13 254.956 128.66C254.956 128.01 255.206 127.47 255.706 127.04C256.206 126.6 256.906 126.38 257.806 126.38C258.636 126.38 259.306 126.58 259.816 126.98C260.336 127.38 260.641 127.945 260.731 128.675H259.201C259.151 128.355 259.001 128.105 258.751 127.925C258.511 127.745 258.186 127.655 257.776 127.655C257.376 127.655 257.066 127.74 256.846 127.91C256.626 128.07 256.516 128.28 256.516 128.54C256.516 128.8 256.666 129.005 256.966 129.155C257.276 129.305 257.681 129.44 258.181 129.56C258.681 129.67 259.141 129.8 259.561 129.95C259.991 130.09 260.336 130.3 260.596 130.58C260.856 130.86 260.986 131.27 260.986 131.81C260.996 132.49 260.731 133.055 260.191 133.505C259.661 133.955 258.936 134.18 258.016 134.18ZM262.775 137.3L264.56 133.385H264.125L261.185 126.56H262.91L265.19 132.065L267.575 126.56H269.255L264.455 137.3H262.775ZM269.962 130.31V128.975H276.067V130.31H269.962ZM277.455 137.3V126.56H278.88L279.045 127.715C279.285 127.365 279.615 127.055 280.035 126.785C280.455 126.515 280.995 126.38 281.655 126.38C282.375 126.38 283.01 126.55 283.56 126.89C284.11 127.23 284.54 127.695 284.85 128.285C285.17 128.875 285.33 129.545 285.33 130.295C285.33 131.045 285.17 131.715 284.85 132.305C284.54 132.885 284.11 133.345 283.56 133.685C283.01 134.015 282.37 134.18 281.64 134.18C281.06 134.18 280.545 134.065 280.095 133.835C279.655 133.605 279.305 133.28 279.045 132.86V137.3H277.455ZM281.37 132.8C282.05 132.8 282.61 132.57 283.05 132.11C283.49 131.64 283.71 131.03 283.71 130.28C283.71 129.79 283.61 129.355 283.41 128.975C283.21 128.595 282.935 128.3 282.585 128.09C282.235 127.87 281.83 127.76 281.37 127.76C280.69 127.76 280.13 127.995 279.69 128.465C279.26 128.935 279.045 129.54 279.045 130.28C279.045 131.03 279.26 131.64 279.69 132.11C280.13 132.57 280.69 132.8 281.37 132.8ZM286.6 134V123.2H288.19V134H286.6ZM292.499 134.18C291.599 134.18 290.889 133.9 290.369 133.34C289.859 132.78 289.604 131.945 289.604 130.835V126.56H291.194V130.67C291.194 132.11 291.784 132.83 292.964 132.83C293.554 132.83 294.039 132.62 294.419 132.2C294.799 131.78 294.989 131.18 294.989 130.4V126.56H296.579V134H295.169L295.049 132.695C294.819 133.155 294.479 133.52 294.029 133.79C293.589 134.05 293.079 134.18 292.499 134.18ZM301.196 131.72C300.806 131.72 300.446 131.675 300.116 131.585L299.471 132.215C299.581 132.285 299.716 132.345 299.876 132.395C300.036 132.445 300.261 132.49 300.551 132.53C300.841 132.57 301.236 132.61 301.736 132.65C302.726 132.74 303.441 132.98 303.881 133.37C304.321 133.75 304.541 134.26 304.541 134.9C304.541 135.34 304.421 135.755 304.181 136.145C303.951 136.545 303.586 136.865 303.086 137.105C302.596 137.355 301.966 137.48 301.196 137.48C300.156 137.48 299.311 137.28 298.661 136.88C298.021 136.49 297.701 135.895 297.701 135.095C297.701 134.785 297.781 134.475 297.941 134.165C298.111 133.865 298.376 133.58 298.736 133.31C298.526 133.22 298.341 133.125 298.181 133.025C298.031 132.915 297.896 132.805 297.776 132.695V132.335L299.066 131.015C298.486 130.515 298.196 129.86 298.196 129.05C298.196 128.56 298.311 128.115 298.541 127.715C298.781 127.305 299.126 126.98 299.576 126.74C300.026 126.5 300.566 126.38 301.196 126.38C301.616 126.38 302.006 126.44 302.366 126.56H305.141V127.61L303.821 127.685C304.061 128.095 304.181 128.55 304.181 129.05C304.181 129.55 304.061 130 303.821 130.4C303.591 130.8 303.251 131.12 302.801 131.36C302.361 131.6 301.826 131.72 301.196 131.72ZM301.196 130.475C301.656 130.475 302.026 130.355 302.306 130.115C302.596 129.865 302.741 129.515 302.741 129.065C302.741 128.605 302.596 128.255 302.306 128.015C302.026 127.775 301.656 127.655 301.196 127.655C300.726 127.655 300.346 127.775 300.056 128.015C299.776 128.255 299.636 128.605 299.636 129.065C299.636 129.515 299.776 129.865 300.056 130.115C300.346 130.355 300.726 130.475 301.196 130.475ZM299.201 134.945C299.201 135.375 299.391 135.695 299.771 135.905C300.151 136.125 300.626 136.235 301.196 136.235C301.746 136.235 302.191 136.115 302.531 135.875C302.871 135.645 303.041 135.335 303.041 134.945C303.041 134.655 302.926 134.405 302.696 134.195C302.466 133.995 302.031 133.87 301.391 133.82C300.911 133.79 300.486 133.745 300.116 133.685C299.766 133.875 299.526 134.08 299.396 134.3C299.266 134.52 299.201 134.735 299.201 134.945ZM307.009 125.15C306.709 125.15 306.459 125.06 306.259 124.88C306.069 124.69 305.974 124.455 305.974 124.175C305.974 123.895 306.069 123.665 306.259 123.485C306.459 123.295 306.709 123.2 307.009 123.2C307.309 123.2 307.554 123.295 307.744 123.485C307.944 123.665 308.044 123.895 308.044 124.175C308.044 124.455 307.944 124.69 307.744 124.88C307.554 125.06 307.309 125.15 307.009 125.15ZM306.214 134V126.56H307.804V134H306.214ZM309.453 134V126.56H310.863L310.983 127.865C311.213 127.405 311.548 127.045 311.988 126.785C312.438 126.515 312.953 126.38 313.533 126.38C314.433 126.38 315.138 126.66 315.648 127.22C316.168 127.78 316.428 128.615 316.428 129.725V134H314.853V129.89C314.853 128.45 314.263 127.73 313.083 127.73C312.493 127.73 312.003 127.94 311.613 128.36C311.233 128.78 311.043 129.38 311.043 130.16V134H309.453ZM317.701 130.31V128.975H323.806V130.31H317.701ZM328.239 131.72C327.849 131.72 327.489 131.675 327.159 131.585L326.514 132.215C326.624 132.285 326.759 132.345 326.919 132.395C327.079 132.445 327.304 132.49 327.594 132.53C327.884 132.57 328.279 132.61 328.779 132.65C329.769 132.74 330.484 132.98 330.924 133.37C331.364 133.75 331.584 134.26 331.584 134.9C331.584 135.34 331.464 135.755 331.224 136.145C330.994 136.545 330.629 136.865 330.129 137.105C329.639 137.355 329.009 137.48 328.239 137.48C327.199 137.48 326.354 137.28 325.704 136.88C325.064 136.49 324.744 135.895 324.744 135.095C324.744 134.785 324.824 134.475 324.984 134.165C325.154 133.865 325.419 133.58 325.779 133.31C325.569 133.22 325.384 133.125 325.224 133.025C325.074 132.915 324.939 132.805 324.819 132.695V132.335L326.109 131.015C325.529 130.515 325.239 129.86 325.239 129.05C325.239 128.56 325.354 128.115 325.584 127.715C325.824 127.305 326.169 126.98 326.619 126.74C327.069 126.5 327.609 126.38 328.239 126.38C328.659 126.38 329.049 126.44 329.409 126.56H332.184V127.61L330.864 127.685C331.104 128.095 331.224 128.55 331.224 129.05C331.224 129.55 331.104 130 330.864 130.4C330.634 130.8 330.294 131.12 329.844 131.36C329.404 131.6 328.869 131.72 328.239 131.72ZM328.239 130.475C328.699 130.475 329.069 130.355 329.349 130.115C329.639 129.865 329.784 129.515 329.784 129.065C329.784 128.605 329.639 128.255 329.349 128.015C329.069 127.775 328.699 127.655 328.239 127.655C327.769 127.655 327.389 127.775 327.099 128.015C326.819 128.255 326.679 128.605 326.679 129.065C326.679 129.515 326.819 129.865 327.099 130.115C327.389 130.355 327.769 130.475 328.239 130.475ZM326.244 134.945C326.244 135.375 326.434 135.695 326.814 135.905C327.194 136.125 327.669 136.235 328.239 136.235C328.789 136.235 329.234 136.115 329.574 135.875C329.914 135.645 330.084 135.335 330.084 134.945C330.084 134.655 329.969 134.405 329.739 134.195C329.509 133.995 329.074 133.87 328.434 133.82C327.954 133.79 327.529 133.745 327.159 133.685C326.809 133.875 326.569 134.08 326.439 134.3C326.309 134.52 326.244 134.735 326.244 134.945ZM336.339 134.18C335.609 134.18 334.959 134.02 334.389 133.7C333.829 133.37 333.389 132.915 333.069 132.335C332.749 131.755 332.589 131.08 332.589 130.31C332.589 129.53 332.744 128.845 333.054 128.255C333.374 127.665 333.814 127.205 334.374 126.875C334.944 126.545 335.604 126.38 336.354 126.38C337.084 126.38 337.719 126.545 338.259 126.875C338.799 127.195 339.219 127.625 339.519 128.165C339.819 128.705 339.969 129.3 339.969 129.95C339.969 130.05 339.964 130.16 339.954 130.28C339.954 130.39 339.949 130.515 339.939 130.655H334.149C334.199 131.375 334.434 131.925 334.854 132.305C335.284 132.675 335.779 132.86 336.339 132.86C336.789 132.86 337.164 132.76 337.464 132.56C337.774 132.35 338.004 132.07 338.154 131.72H339.744C339.544 132.42 339.144 133.005 338.544 133.475C337.954 133.945 337.219 134.18 336.339 134.18ZM336.339 127.685C335.809 127.685 335.339 127.845 334.929 128.165C334.519 128.475 334.269 128.945 334.179 129.575H338.379C338.349 128.995 338.144 128.535 337.764 128.195C337.384 127.855 336.909 127.685 336.339 127.685ZM341.169 134V126.56H342.579L342.699 127.865C342.929 127.405 343.264 127.045 343.704 126.785C344.154 126.515 344.669 126.38 345.249 126.38C346.149 126.38 346.854 126.66 347.364 127.22C347.884 127.78 348.144 128.615 348.144 129.725V134H346.569V129.89C346.569 128.45 345.979 127.73 344.799 127.73C344.209 127.73 343.719 127.94 343.329 128.36C342.949 128.78 342.759 129.38 342.759 130.16V134H341.169ZM353.047 134.18C352.317 134.18 351.667 134.02 351.097 133.7C350.537 133.37 350.097 132.915 349.777 132.335C349.457 131.755 349.297 131.08 349.297 130.31C349.297 129.53 349.452 128.845 349.762 128.255C350.082 127.665 350.522 127.205 351.082 126.875C351.652 126.545 352.312 126.38 353.062 126.38C353.792 126.38 354.427 126.545 354.967 126.875C355.507 127.195 355.927 127.625 356.227 128.165C356.527 128.705 356.677 129.3 356.677 129.95C356.677 130.05 356.672 130.16 356.662 130.28C356.662 130.39 356.657 130.515 356.647 130.655H350.857C350.907 131.375 351.142 131.925 351.562 132.305C351.992 132.675 352.487 132.86 353.047 132.86C353.497 132.86 353.872 132.76 354.172 132.56C354.482 132.35 354.712 132.07 354.862 131.72H356.452C356.252 132.42 355.852 133.005 355.252 133.475C354.662 133.945 353.927 134.18 353.047 134.18ZM353.047 127.685C352.517 127.685 352.047 127.845 351.637 128.165C351.227 128.475 350.977 128.945 350.887 129.575H355.087C355.057 128.995 354.852 128.535 354.472 128.195C354.092 127.855 353.617 127.685 353.047 127.685ZM357.876 134V126.56H359.301L359.436 127.97C359.696 127.48 360.056 127.095 360.516 126.815C360.986 126.525 361.551 126.38 362.211 126.38V128.045H361.776C361.336 128.045 360.941 128.12 360.591 128.27C360.251 128.41 359.976 128.655 359.766 129.005C359.566 129.345 359.466 129.82 359.466 130.43V134H357.876ZM365.645 134.18C365.015 134.18 364.495 134.075 364.085 133.865C363.675 133.655 363.37 133.38 363.17 133.04C362.97 132.69 362.87 132.31 362.87 131.9C362.87 131.18 363.15 130.61 363.71 130.19C364.27 129.77 365.07 129.56 366.11 129.56H368.06V129.425C368.06 128.845 367.9 128.41 367.58 128.12C367.27 127.83 366.865 127.685 366.365 127.685C365.925 127.685 365.54 127.795 365.21 128.015C364.89 128.225 364.695 128.54 364.625 128.96H363.035C363.085 128.42 363.265 127.96 363.575 127.58C363.895 127.19 364.295 126.895 364.775 126.695C365.265 126.485 365.8 126.38 366.38 126.38C367.42 126.38 368.225 126.655 368.795 127.205C369.365 127.745 369.65 128.485 369.65 129.425V134H368.27L368.135 132.725C367.925 133.135 367.62 133.48 367.22 133.76C366.82 134.04 366.295 134.18 365.645 134.18ZM365.96 132.89C366.39 132.89 366.75 132.79 367.04 132.59C367.34 132.38 367.57 132.105 367.73 131.765C367.9 131.425 368.005 131.05 368.045 130.64H366.275C365.645 130.64 365.195 130.75 364.925 130.97C364.665 131.19 364.535 131.465 364.535 131.795C364.535 132.135 364.66 132.405 364.91 132.605C365.17 132.795 365.52 132.89 365.96 132.89ZM374.027 134C373.297 134 372.717 133.825 372.287 133.475C371.857 133.115 371.642 132.48 371.642 131.57V127.895H370.367V126.56H371.642L371.837 124.67H373.232V126.56H375.332V127.895H373.232V131.57C373.232 131.98 373.317 132.265 373.487 132.425C373.667 132.575 373.972 132.65 374.402 132.65H375.257V134H374.027ZM379.811 134.18C379.101 134.18 378.461 134.02 377.891 133.7C377.331 133.37 376.886 132.915 376.556 132.335C376.226 131.745 376.061 131.06 376.061 130.28C376.061 129.5 376.226 128.82 376.556 128.24C376.896 127.65 377.351 127.195 377.921 126.875C378.491 126.545 379.126 126.38 379.826 126.38C380.536 126.38 381.171 126.545 381.731 126.875C382.301 127.195 382.751 127.65 383.081 128.24C383.421 128.82 383.591 129.5 383.591 130.28C383.591 131.06 383.421 131.745 383.081 132.335C382.751 132.915 382.301 133.37 381.731 133.7C381.161 134.02 380.521 134.18 379.811 134.18ZM379.811 132.815C380.191 132.815 380.541 132.72 380.861 132.53C381.191 132.34 381.456 132.06 381.656 131.69C381.856 131.31 381.956 130.84 381.956 130.28C381.956 129.72 381.856 129.255 381.656 128.885C381.466 128.505 381.206 128.22 380.876 128.03C380.556 127.84 380.206 127.745 379.826 127.745C379.446 127.745 379.091 127.84 378.761 128.03C378.441 128.22 378.181 128.505 377.981 128.885C377.781 129.255 377.681 129.72 377.681 130.28C377.681 130.84 377.781 131.31 377.981 131.69C378.181 132.06 378.441 132.34 378.761 132.53C379.081 132.72 379.431 132.815 379.811 132.815ZM384.861 134V126.56H386.286L386.421 127.97C386.681 127.48 387.041 127.095 387.501 126.815C387.971 126.525 388.536 126.38 389.196 126.38V128.045H388.761C388.321 128.045 387.926 128.12 387.576 128.27C387.236 128.41 386.961 128.655 386.751 129.005C386.551 129.345 386.451 129.82 386.451 130.43V134H384.861Z"/><rect width="94" height="9" x="200" y="144" fill="#BFD3ED" rx="4.5"/><rect width="152" height="9" x="200" y="160" fill="#BFD3ED" rx="4.5"/><path fill="#5F81AD" fill-opacity=".66" d="M155 155C154.646 155 154.307 154.86 154.057 154.609C153.807 154.359 153.667 154.02 153.667 153.667V132.333C153.667 131.98 153.807 131.641 154.057 131.391C154.307 131.14 154.646 131 155 131H164.885L167.552 133.667H177.667C178.02 133.667 178.359 133.807 178.609 134.057C178.86 134.307 179 134.646 179 135V139H176.333V136.333H166.448L163.781 133.667H156.333V149.664L158.333 141.667H181L177.92 153.991C177.848 154.279 177.681 154.535 177.447 154.718C177.213 154.901 176.924 155 176.627 155H155V155ZM177.584 144.333H160.416L158.416 152.333H175.584L177.584 144.333Z"/><rect width="94" height="9" x="200" y="144" fill="#BFD3ED" rx="4.5"/><rect width="152" height="9" x="200" y="160" fill="#BFD3ED" rx="4.5"/><rect width="283" height="80" x="39" y="212" fill="#F3E1E8" rx="10"/><path fill="#C98DA5" d="M111.555 244.09C110.465 244.09 109.51 243.88 108.69 243.46C107.88 243.04 107.245 242.445 106.785 241.675C106.335 240.915 106.11 240.015 106.11 238.975C106.11 237.885 106.3 236.875 106.68 235.945C107.06 235.015 107.595 234.2 108.285 233.5C108.975 232.8 109.785 232.26 110.715 231.88C111.645 231.49 112.665 231.295 113.775 231.295C114.915 231.295 115.9 231.51 116.73 231.94C117.56 232.37 118.2 232.97 118.65 233.74C119.11 234.51 119.34 235.395 119.34 236.395C119.34 236.985 119.265 237.56 119.115 238.12C118.965 238.68 118.745 239.185 118.455 239.635C118.175 240.075 117.825 240.43 117.405 240.7C116.995 240.96 116.52 241.09 115.98 241.09C115.47 241.09 115.07 240.97 114.78 240.73C114.5 240.48 114.33 240.145 114.27 239.725C113.97 240.155 113.585 240.49 113.115 240.73C112.655 240.97 112.16 241.09 111.63 241.09C110.88 241.09 110.29 240.865 109.86 240.415C109.44 239.955 109.23 239.335 109.23 238.555C109.23 238.005 109.315 237.48 109.485 236.98C109.655 236.47 109.9 236.02 110.22 235.63C110.54 235.23 110.915 234.915 111.345 234.685C111.785 234.455 112.27 234.34 112.8 234.34C113.77 234.34 114.405 234.725 114.705 235.495L114.885 234.505H116.205L115.485 238.645C115.415 239.055 115.43 239.39 115.53 239.65C115.63 239.9 115.855 240.025 116.205 240.025C116.515 240.025 116.785 239.915 117.015 239.695C117.255 239.475 117.45 239.19 117.6 238.84C117.76 238.49 117.88 238.11 117.96 237.7C118.04 237.28 118.08 236.87 118.08 236.47C118.08 235.2 117.685 234.205 116.895 233.485C116.105 232.755 115.005 232.39 113.595 232.39C112.705 232.39 111.88 232.56 111.12 232.9C110.36 233.23 109.7 233.69 109.14 234.28C108.58 234.86 108.145 235.54 107.835 236.32C107.525 237.1 107.37 237.94 107.37 238.84C107.37 240.15 107.765 241.165 108.555 241.885C109.345 242.615 110.425 242.98 111.795 242.98C112.235 242.98 112.67 242.935 113.1 242.845C113.54 242.755 113.95 242.625 114.33 242.455L114.585 243.505C113.665 243.895 112.655 244.09 111.555 244.09ZM112.125 239.905C112.515 239.905 112.875 239.8 113.205 239.59C113.535 239.37 113.805 239.075 114.015 238.705C114.225 238.325 114.35 237.895 114.39 237.415C114.44 236.895 114.34 236.45 114.09 236.08C113.84 235.71 113.445 235.525 112.905 235.525C112.445 235.525 112.045 235.66 111.705 235.93C111.365 236.2 111.105 236.545 110.925 236.965C110.745 237.385 110.655 237.83 110.655 238.3C110.655 238.78 110.775 239.17 111.015 239.47C111.265 239.76 111.635 239.905 112.125 239.905ZM121.009 241V230.2H122.599V241H121.009ZM127.643 241.18C126.913 241.18 126.263 241.02 125.693 240.7C125.133 240.37 124.693 239.915 124.373 239.335C124.053 238.755 123.893 238.08 123.893 237.31C123.893 236.53 124.048 235.845 124.358 235.255C124.678 234.665 125.118 234.205 125.678 233.875C126.248 233.545 126.908 233.38 127.658 233.38C128.388 233.38 129.023 233.545 129.563 233.875C130.103 234.195 130.523 234.625 130.823 235.165C131.123 235.705 131.273 236.3 131.273 236.95C131.273 237.05 131.268 237.16 131.258 237.28C131.258 237.39 131.253 237.515 131.243 237.655H125.453C125.503 238.375 125.738 238.925 126.158 239.305C126.588 239.675 127.083 239.86 127.643 239.86C128.093 239.86 128.468 239.76 128.768 239.56C129.078 239.35 129.308 239.07 129.458 238.72H131.048C130.848 239.42 130.448 240.005 129.848 240.475C129.258 240.945 128.523 241.18 127.643 241.18ZM127.643 234.685C127.113 234.685 126.643 234.845 126.233 235.165C125.823 235.475 125.573 235.945 125.483 236.575H129.683C129.653 235.995 129.448 235.535 129.068 235.195C128.688 234.855 128.213 234.685 127.643 234.685ZM135.442 241.18C134.502 241.18 133.727 240.95 133.117 240.49C132.507 240.03 132.157 239.42 132.067 238.66H133.672C133.752 239 133.942 239.295 134.242 239.545C134.542 239.785 134.937 239.905 135.427 239.905C135.907 239.905 136.257 239.805 136.477 239.605C136.697 239.405 136.807 239.175 136.807 238.915C136.807 238.535 136.652 238.28 136.342 238.15C136.042 238.01 135.622 237.885 135.082 237.775C134.662 237.685 134.242 237.565 133.822 237.415C133.412 237.265 133.067 237.055 132.787 236.785C132.517 236.505 132.382 236.13 132.382 235.66C132.382 235.01 132.632 234.47 133.132 234.04C133.632 233.6 134.332 233.38 135.232 233.38C136.062 233.38 136.732 233.58 137.242 233.98C137.762 234.38 138.067 234.945 138.157 235.675H136.627C136.577 235.355 136.427 235.105 136.177 234.925C135.937 234.745 135.612 234.655 135.202 234.655C134.802 234.655 134.492 234.74 134.272 234.91C134.052 235.07 133.942 235.28 133.942 235.54C133.942 235.8 134.092 236.005 134.392 236.155C134.702 236.305 135.107 236.44 135.607 236.56C136.107 236.67 136.567 236.8 136.987 236.95C137.417 237.09 137.762 237.3 138.022 237.58C138.282 237.86 138.412 238.27 138.412 238.81C138.422 239.49 138.157 240.055 137.617 240.505C137.087 240.955 136.362 241.18 135.442 241.18ZM140.202 244.3L141.987 240.385H141.552L138.612 233.56H140.337L142.617 239.065L145.002 233.56H146.682L141.882 244.3H140.202ZM146.324 242.545L150.074 229.435H151.634L147.869 242.545H146.324ZM152.582 241V230.2H154.172V241H152.582ZM159.216 241.18C158.486 241.18 157.836 241.02 157.266 240.7C156.706 240.37 156.266 239.915 155.946 239.335C155.626 238.755 155.466 238.08 155.466 237.31C155.466 236.53 155.621 235.845 155.931 235.255C156.251 234.665 156.691 234.205 157.251 233.875C157.821 233.545 158.481 233.38 159.231 233.38C159.961 233.38 160.596 233.545 161.136 233.875C161.676 234.195 162.096 234.625 162.396 235.165C162.696 235.705 162.846 236.3 162.846 236.95C162.846 237.05 162.841 237.16 162.831 237.28C162.831 237.39 162.826 237.515 162.816 237.655H157.026C157.076 238.375 157.311 238.925 157.731 239.305C158.161 239.675 158.656 239.86 159.216 239.86C159.666 239.86 160.041 239.76 160.341 239.56C160.651 239.35 160.881 239.07 161.031 238.72H162.621C162.421 239.42 162.021 240.005 161.421 240.475C160.831 240.945 160.096 241.18 159.216 241.18ZM159.216 234.685C158.686 234.685 158.216 234.845 157.806 235.165C157.396 235.475 157.146 235.945 157.056 236.575H161.256C161.226 235.995 161.021 235.535 160.641 235.195C160.261 234.855 159.786 234.685 159.216 234.685ZM167.016 241.18C166.076 241.18 165.301 240.95 164.691 240.49C164.081 240.03 163.731 239.42 163.641 238.66H165.246C165.326 239 165.516 239.295 165.816 239.545C166.116 239.785 166.511 239.905 167.001 239.905C167.481 239.905 167.831 239.805 168.051 239.605C168.271 239.405 168.381 239.175 168.381 238.915C168.381 238.535 168.226 238.28 167.916 238.15C167.616 238.01 167.196 237.885 166.656 237.775C166.236 237.685 165.816 237.565 165.396 237.415C164.986 237.265 164.641 237.055 164.361 236.785C164.091 236.505 163.956 236.13 163.956 235.66C163.956 235.01 164.206 234.47 164.706 234.04C165.206 233.6 165.906 233.38 166.806 233.38C167.636 233.38 168.306 233.58 168.816 233.98C169.336 234.38 169.641 234.945 169.731 235.675H168.201C168.151 235.355 168.001 235.105 167.751 234.925C167.511 234.745 167.186 234.655 166.776 234.655C166.376 234.655 166.066 234.74 165.846 234.91C165.626 235.07 165.516 235.28 165.516 235.54C165.516 235.8 165.666 236.005 165.966 236.155C166.276 236.305 166.681 236.44 167.181 236.56C167.681 236.67 168.141 236.8 168.561 236.95C168.991 237.09 169.336 237.3 169.596 237.58C169.856 237.86 169.986 238.27 169.986 238.81C169.996 239.49 169.731 240.055 169.191 240.505C168.661 240.955 167.936 241.18 167.016 241.18ZM171.775 244.3L173.56 240.385H173.125L170.185 233.56H171.91L174.19 239.065L176.575 233.56H178.255L173.455 244.3H171.775ZM178.962 237.31V235.975H185.067V237.31H178.962ZM186.455 244.3V233.56H187.88L188.045 234.715C188.285 234.365 188.615 234.055 189.035 233.785C189.455 233.515 189.995 233.38 190.655 233.38C191.375 233.38 192.01 233.55 192.56 233.89C193.11 234.23 193.54 234.695 193.85 235.285C194.17 235.875 194.33 236.545 194.33 237.295C194.33 238.045 194.17 238.715 193.85 239.305C193.54 239.885 193.11 240.345 192.56 240.685C192.01 241.015 191.37 241.18 190.64 241.18C190.06 241.18 189.545 241.065 189.095 240.835C188.655 240.605 188.305 240.28 188.045 239.86V244.3H186.455ZM190.37 239.8C191.05 239.8 191.61 239.57 192.05 239.11C192.49 238.64 192.71 238.03 192.71 237.28C192.71 236.79 192.61 236.355 192.41 235.975C192.21 235.595 191.935 235.3 191.585 235.09C191.235 234.87 190.83 234.76 190.37 234.76C189.69 234.76 189.13 234.995 188.69 235.465C188.26 235.935 188.045 236.54 188.045 237.28C188.045 238.03 188.26 238.64 188.69 239.11C189.13 239.57 189.69 239.8 190.37 239.8ZM195.6 241V230.2H197.19V241H195.6ZM201.499 241.18C200.599 241.18 199.889 240.9 199.369 240.34C198.859 239.78 198.604 238.945 198.604 237.835V233.56H200.194V237.67C200.194 239.11 200.784 239.83 201.964 239.83C202.554 239.83 203.039 239.62 203.419 239.2C203.799 238.78 203.989 238.18 203.989 237.4V233.56H205.579V241H204.169L204.049 239.695C203.819 240.155 203.479 240.52 203.029 240.79C202.589 241.05 202.079 241.18 201.499 241.18ZM210.196 238.72C209.806 238.72 209.446 238.675 209.116 238.585L208.471 239.215C208.581 239.285 208.716 239.345 208.876 239.395C209.036 239.445 209.261 239.49 209.551 239.53C209.841 239.57 210.236 239.61 210.736 239.65C211.726 239.74 212.441 239.98 212.881 240.37C213.321 240.75 213.541 241.26 213.541 241.9C213.541 242.34 213.421 242.755 213.181 243.145C212.951 243.545 212.586 243.865 212.086 244.105C211.596 244.355 210.966 244.48 210.196 244.48C209.156 244.48 208.311 244.28 207.661 243.88C207.021 243.49 206.701 242.895 206.701 242.095C206.701 241.785 206.781 241.475 206.941 241.165C207.111 240.865 207.376 240.58 207.736 240.31C207.526 240.22 207.341 240.125 207.181 240.025C207.031 239.915 206.896 239.805 206.776 239.695V239.335L208.066 238.015C207.486 237.515 207.196 236.86 207.196 236.05C207.196 235.56 207.311 235.115 207.541 234.715C207.781 234.305 208.126 233.98 208.576 233.74C209.026 233.5 209.566 233.38 210.196 233.38C210.616 233.38 211.006 233.44 211.366 233.56H214.141V234.61L212.821 234.685C213.061 235.095 213.181 235.55 213.181 236.05C213.181 236.55 213.061 237 212.821 237.4C212.591 237.8 212.251 238.12 211.801 238.36C211.361 238.6 210.826 238.72 210.196 238.72ZM210.196 237.475C210.656 237.475 211.026 237.355 211.306 237.115C211.596 236.865 211.741 236.515 211.741 236.065C211.741 235.605 211.596 235.255 211.306 235.015C211.026 234.775 210.656 234.655 210.196 234.655C209.726 234.655 209.346 234.775 209.056 235.015C208.776 235.255 208.636 235.605 208.636 236.065C208.636 236.515 208.776 236.865 209.056 237.115C209.346 237.355 209.726 237.475 210.196 237.475ZM208.201 241.945C208.201 242.375 208.391 242.695 208.771 242.905C209.151 243.125 209.626 243.235 210.196 243.235C210.746 243.235 211.191 243.115 211.531 242.875C211.871 242.645 212.041 242.335 212.041 241.945C212.041 241.655 211.926 241.405 211.696 241.195C211.466 240.995 211.031 240.87 210.391 240.82C209.911 240.79 209.486 240.745 209.116 240.685C208.766 240.875 208.526 241.08 208.396 241.3C208.266 241.52 208.201 241.735 208.201 241.945ZM216.009 232.15C215.709 232.15 215.459 232.06 215.259 231.88C215.069 231.69 214.974 231.455 214.974 231.175C214.974 230.895 215.069 230.665 215.259 230.485C215.459 230.295 215.709 230.2 216.009 230.2C216.309 230.2 216.554 230.295 216.744 230.485C216.944 230.665 217.044 230.895 217.044 231.175C217.044 231.455 216.944 231.69 216.744 231.88C216.554 232.06 216.309 232.15 216.009 232.15ZM215.214 241V233.56H216.804V241H215.214ZM218.453 241V233.56H219.863L219.983 234.865C220.213 234.405 220.548 234.045 220.988 233.785C221.438 233.515 221.953 233.38 222.533 233.38C223.433 233.38 224.138 233.66 224.648 234.22C225.168 234.78 225.428 235.615 225.428 236.725V241H223.853V236.89C223.853 235.45 223.263 234.73 222.083 234.73C221.493 234.73 221.003 234.94 220.613 235.36C220.233 235.78 220.043 236.38 220.043 237.16V241H218.453ZM226.701 237.31V235.975H232.806V237.31H226.701ZM237.164 241.18C236.224 241.18 235.449 240.95 234.839 240.49C234.229 240.03 233.879 239.42 233.789 238.66H235.394C235.474 239 235.664 239.295 235.964 239.545C236.264 239.785 236.659 239.905 237.149 239.905C237.629 239.905 237.979 239.805 238.199 239.605C238.419 239.405 238.529 239.175 238.529 238.915C238.529 238.535 238.374 238.28 238.064 238.15C237.764 238.01 237.344 237.885 236.804 237.775C236.384 237.685 235.964 237.565 235.544 237.415C235.134 237.265 234.789 237.055 234.509 236.785C234.239 236.505 234.104 236.13 234.104 235.66C234.104 235.01 234.354 234.47 234.854 234.04C235.354 233.6 236.054 233.38 236.954 233.38C237.784 233.38 238.454 233.58 238.964 233.98C239.484 234.38 239.789 234.945 239.879 235.675H238.349C238.299 235.355 238.149 235.105 237.899 234.925C237.659 234.745 237.334 234.655 236.924 234.655C236.524 234.655 236.214 234.74 235.994 234.91C235.774 235.07 235.664 235.28 235.664 235.54C235.664 235.8 235.814 236.005 236.114 236.155C236.424 236.305 236.829 236.44 237.329 236.56C237.829 236.67 238.289 236.8 238.709 236.95C239.139 237.09 239.484 237.3 239.744 237.58C240.004 237.86 240.134 238.27 240.134 238.81C240.144 239.49 239.879 240.055 239.339 240.505C238.809 240.955 238.084 241.18 237.164 241.18ZM244.262 241C243.532 241 242.952 240.825 242.522 240.475C242.092 240.115 241.877 239.48 241.877 238.57V234.895H240.602V233.56H241.877L242.072 231.67H243.467V233.56H245.567V234.895H243.467V238.57C243.467 238.98 243.552 239.265 243.722 239.425C243.902 239.575 244.207 239.65 244.637 239.65H245.492V241H244.262ZM250.046 241.18C249.336 241.18 248.696 241.02 248.126 240.7C247.566 240.37 247.121 239.915 246.791 239.335C246.461 238.745 246.296 238.06 246.296 237.28C246.296 236.5 246.461 235.82 246.791 235.24C247.131 234.65 247.586 234.195 248.156 233.875C248.726 233.545 249.361 233.38 250.061 233.38C250.771 233.38 251.406 233.545 251.966 233.875C252.536 234.195 252.986 234.65 253.316 235.24C253.656 235.82 253.826 236.5 253.826 237.28C253.826 238.06 253.656 238.745 253.316 239.335C252.986 239.915 252.536 240.37 251.966 240.7C251.396 241.02 250.756 241.18 250.046 241.18ZM250.046 239.815C250.426 239.815 250.776 239.72 251.096 239.53C251.426 239.34 251.691 239.06 251.891 238.69C252.091 238.31 252.191 237.84 252.191 237.28C252.191 236.72 252.091 236.255 251.891 235.885C251.701 235.505 251.441 235.22 251.111 235.03C250.791 234.84 250.441 234.745 250.061 234.745C249.681 234.745 249.326 234.84 248.996 235.03C248.676 235.22 248.416 235.505 248.216 235.885C248.016 236.255 247.916 236.72 247.916 237.28C247.916 237.84 248.016 238.31 248.216 238.69C248.416 239.06 248.676 239.34 248.996 239.53C249.316 239.72 249.666 239.815 250.046 239.815ZM255.095 241V233.56H256.52L256.655 234.97C256.915 234.48 257.275 234.095 257.735 233.815C258.205 233.525 258.77 233.38 259.43 233.38V235.045H258.995C258.555 235.045 258.16 235.12 257.81 235.27C257.47 235.41 257.195 235.655 256.985 236.005C256.785 236.345 256.685 236.82 256.685 237.43V241H255.095ZM263.618 241.18C262.888 241.18 262.238 241.02 261.668 240.7C261.108 240.37 260.668 239.915 260.348 239.335C260.028 238.755 259.868 238.08 259.868 237.31C259.868 236.53 260.023 235.845 260.333 235.255C260.653 234.665 261.093 234.205 261.653 233.875C262.223 233.545 262.883 233.38 263.633 233.38C264.363 233.38 264.998 233.545 265.538 233.875C266.078 234.195 266.498 234.625 266.798 235.165C267.098 235.705 267.248 236.3 267.248 236.95C267.248 237.05 267.243 237.16 267.233 237.28C267.233 237.39 267.228 237.515 267.218 237.655H261.428C261.478 238.375 261.713 238.925 262.133 239.305C262.563 239.675 263.058 239.86 263.618 239.86C264.068 239.86 264.443 239.76 264.743 239.56C265.053 239.35 265.283 239.07 265.433 238.72H267.023C266.823 239.42 266.423 240.005 265.823 240.475C265.233 240.945 264.498 241.18 263.618 241.18ZM263.618 234.685C263.088 234.685 262.618 234.845 262.208 235.165C261.798 235.475 261.548 235.945 261.458 236.575H265.658C265.628 235.995 265.423 235.535 265.043 235.195C264.663 234.855 264.188 234.685 263.618 234.685Z"/><rect width="74" height="9" x="109" y="251" fill="#E2C7D2" rx="4.5"/><rect width="185" height="9" x="109" y="267" fill="#E2C7D2" rx="4.5"/><path fill="#D2A9BA" d="M65.6667 252.667C65.6667 253.084 66.2813 253.811 67.7067 254.524C69.552 255.447 72.1693 256 75 256C77.8307 256 80.448 255.447 82.2933 254.524C83.7187 253.811 84.3333 253.084 84.3333 252.667V249.772C82.1333 251.132 78.7693 252 75 252C71.2307 252 67.8667 251.131 65.6667 249.772V252.667ZM84.3333 256.439C82.1333 257.799 78.7693 258.667 75 258.667C71.2307 258.667 67.8667 257.797 65.6667 256.439V259.333C65.6667 259.751 66.2813 260.477 67.7067 261.191C69.552 262.113 72.1693 262.667 75 262.667C77.8307 262.667 80.448 262.113 82.2933 261.191C83.7187 260.477 84.3333 259.751 84.3333 259.333V256.439ZM63 259.333V246C63 242.687 68.3733 240 75 240C81.6267 240 87 242.687 87 246V259.333C87 262.647 81.6267 265.333 75 265.333C68.3733 265.333 63 262.647 63 259.333ZM75 249.333C77.8307 249.333 80.448 248.78 82.2933 247.857C83.7187 247.144 84.3333 246.417 84.3333 246C84.3333 245.583 83.7187 244.856 82.2933 244.143C80.448 243.22 77.8307 242.667 75 242.667C72.1693 242.667 69.552 243.22 67.7067 244.143C66.2813 244.856 65.6667 245.583 65.6667 246C65.6667 246.417 66.2813 247.144 67.7067 247.857C69.552 248.78 72.1693 249.333 75 249.333Z"/><rect width="283" height="80" x="-83" y="13" fill="url(#paint0_linear)" rx="10"/><path fill="url(#paint1_linear)" d="M-10.445 45.09C-11.535 45.09 -12.49 44.88 -13.31 44.46C-14.12 44.04 -14.755 43.445 -15.215 42.675C-15.665 41.915 -15.89 41.015 -15.89 39.975C-15.89 38.885 -15.7 37.875 -15.32 36.945C-14.94 36.015 -14.405 35.2 -13.715 34.5C-13.025 33.8 -12.215 33.26 -11.285 32.88C-10.355 32.49 -9.335 32.295 -8.225 32.295C-7.085 32.295 -6.1 32.51 -5.27 32.94C-4.44 33.37 -3.8 33.97 -3.35 34.74C-2.89 35.51 -2.66 36.395 -2.66 37.395C-2.66 37.985 -2.735 38.56 -2.885 39.12C-3.035 39.68 -3.255 40.185 -3.545 40.635C-3.825 41.075 -4.175 41.43 -4.595 41.7C-5.005 41.96 -5.48 42.09 -6.02 42.09C-6.53 42.09 -6.93 41.97 -7.22 41.73C-7.5 41.48 -7.67 41.145 -7.73 40.725C-8.03 41.155 -8.415 41.49 -8.885 41.73C-9.345 41.97 -9.84 42.09 -10.37 42.09C-11.12 42.09 -11.71 41.865 -12.14 41.415C-12.56 40.955 -12.77 40.335 -12.77 39.555C-12.77 39.005 -12.685 38.48 -12.515 37.98C-12.345 37.47 -12.1 37.02 -11.78 36.63C-11.46 36.23 -11.085 35.915 -10.655 35.685C-10.215 35.455 -9.73 35.34 -9.2 35.34C-8.23 35.34 -7.595 35.725 -7.295 36.495L-7.115 35.505H-5.795L-6.515 39.645C-6.585 40.055 -6.57 40.39 -6.47 40.65C-6.37 40.9 -6.145 41.025 -5.795 41.025C-5.485 41.025 -5.215 40.915 -4.985 40.695C-4.745 40.475 -4.55 40.19 -4.4 39.84C-4.24 39.49 -4.12 39.11 -4.04 38.7C-3.96 38.28 -3.92 37.87 -3.92 37.47C-3.92 36.2 -4.315 35.205 -5.105 34.485C-5.895 33.755 -6.995 33.39 -8.405 33.39C-9.295 33.39 -10.12 33.56 -10.88 33.9C-11.64 34.23 -12.3 34.69 -12.86 35.28C-13.42 35.86 -13.855 36.54 -14.165 37.32C-14.475 38.1 -14.63 38.94 -14.63 39.84C-14.63 41.15 -14.235 42.165 -13.445 42.885C-12.655 43.615 -11.575 43.98 -10.205 43.98C-9.765 43.98 -9.33 43.935 -8.9 43.845C-8.46 43.755 -8.05 43.625 -7.67 43.455L-7.415 44.505C-8.335 44.895 -9.345 45.09 -10.445 45.09ZM-9.875 40.905C-9.485 40.905 -9.125 40.8 -8.795 40.59C-8.465 40.37 -8.195 40.075 -7.985 39.705C-7.775 39.325 -7.65 38.895 -7.61 38.415C-7.56 37.895 -7.66 37.45 -7.91 37.08C-8.16 36.71 -8.555 36.525 -9.095 36.525C-9.555 36.525 -9.955 36.66 -10.295 36.93C-10.635 37.2 -10.895 37.545 -11.075 37.965C-11.255 38.385 -11.345 38.83 -11.345 39.3C-11.345 39.78 -11.225 40.17 -10.985 40.47C-10.735 40.76 -10.365 40.905 -9.875 40.905ZM-0.990898 42V31.2H0.599102V42H-0.990898ZM5.64262 42.18C4.91262 42.18 4.26262 42.02 3.69262 41.7C3.13262 41.37 2.69262 40.915 2.37262 40.335C2.05262 39.755 1.89262 39.08 1.89262 38.31C1.89262 37.53 2.04762 36.845 2.35762 36.255C2.67762 35.665 3.11762 35.205 3.67762 34.875C4.24762 34.545 4.90762 34.38 5.65762 34.38C6.38762 34.38 7.02262 34.545 7.56262 34.875C8.10262 35.195 8.52262 35.625 8.82262 36.165C9.12262 36.705 9.27262 37.3 9.27262 37.95C9.27262 38.05 9.26762 38.16 9.25762 38.28C9.25762 38.39 9.25262 38.515 9.24262 38.655H3.45262C3.50262 39.375 3.73762 39.925 4.15762 40.305C4.58762 40.675 5.08262 40.86 5.64262 40.86C6.09262 40.86 6.46762 40.76 6.76762 40.56C7.07762 40.35 7.30762 40.07 7.45762 39.72H9.04762C8.84762 40.42 8.44762 41.005 7.84762 41.475C7.25762 41.945 6.52262 42.18 5.64262 42.18ZM5.64262 35.685C5.11262 35.685 4.64262 35.845 4.23262 36.165C3.82262 36.475 3.57262 36.945 3.48262 37.575H7.68262C7.65262 36.995 7.44762 36.535 7.06762 36.195C6.68762 35.855 6.21262 35.685 5.64262 35.685ZM13.4424 42.18C12.5024 42.18 11.7274 41.95 11.1174 41.49C10.5074 41.03 10.1574 40.42 10.0674 39.66H11.6724C11.7524 40 11.9424 40.295 12.2424 40.545C12.5424 40.785 12.9374 40.905 13.4274 40.905C13.9074 40.905 14.2574 40.805 14.4774 40.605C14.6974 40.405 14.8074 40.175 14.8074 39.915C14.8074 39.535 14.6524 39.28 14.3424 39.15C14.0424 39.01 13.6224 38.885 13.0824 38.775C12.6624 38.685 12.2424 38.565 11.8224 38.415C11.4124 38.265 11.0674 38.055 10.7874 37.785C10.5174 37.505 10.3824 37.13 10.3824 36.66C10.3824 36.01 10.6324 35.47 11.1324 35.04C11.6324 34.6 12.3324 34.38 13.2324 34.38C14.0624 34.38 14.7324 34.58 15.2424 34.98C15.7624 35.38 16.0674 35.945 16.1574 36.675H14.6274C14.5774 36.355 14.4274 36.105 14.1774 35.925C13.9374 35.745 13.6124 35.655 13.2024 35.655C12.8024 35.655 12.4924 35.74 12.2724 35.91C12.0524 36.07 11.9424 36.28 11.9424 36.54C11.9424 36.8 12.0924 37.005 12.3924 37.155C12.7024 37.305 13.1074 37.44 13.6074 37.56C14.1074 37.67 14.5674 37.8 14.9874 37.95C15.4174 38.09 15.7624 38.3 16.0224 38.58C16.2824 38.86 16.4124 39.27 16.4124 39.81C16.4224 40.49 16.1574 41.055 15.6174 41.505C15.0874 41.955 14.3624 42.18 13.4424 42.18ZM18.202 45.3L19.987 41.385H19.552L16.612 34.56H18.337L20.617 40.065L23.002 34.56H24.682L19.882 45.3H18.202ZM24.3236 43.545L28.0736 30.435H29.6336L25.8686 43.545H24.3236ZM30.5823 42V31.2H32.1723V42H30.5823ZM37.2159 42.18C36.4859 42.18 35.8359 42.02 35.2659 41.7C34.7059 41.37 34.2659 40.915 33.9459 40.335C33.6259 39.755 33.4659 39.08 33.4659 38.31C33.4659 37.53 33.6209 36.845 33.9309 36.255C34.2509 35.665 34.6909 35.205 35.2509 34.875C35.8209 34.545 36.4809 34.38 37.2309 34.38C37.9609 34.38 38.5959 34.545 39.1359 34.875C39.6759 35.195 40.0959 35.625 40.3959 36.165C40.6959 36.705 40.8459 37.3 40.8459 37.95C40.8459 38.05 40.8409 38.16 40.8309 38.28C40.8309 38.39 40.8259 38.515 40.8159 38.655H35.0259C35.0759 39.375 35.3109 39.925 35.7309 40.305C36.1609 40.675 36.6559 40.86 37.2159 40.86C37.6659 40.86 38.0409 40.76 38.3409 40.56C38.6509 40.35 38.8809 40.07 39.0309 39.72H40.6209C40.4209 40.42 40.0209 41.005 39.4209 41.475C38.8309 41.945 38.0959 42.18 37.2159 42.18ZM37.2159 35.685C36.6859 35.685 36.2159 35.845 35.8059 36.165C35.3959 36.475 35.1459 36.945 35.0559 37.575H39.2559C39.2259 36.995 39.0209 36.535 38.6409 36.195C38.2609 35.855 37.7859 35.685 37.2159 35.685ZM45.0156 42.18C44.0756 42.18 43.3006 41.95 42.6906 41.49C42.0806 41.03 41.7306 40.42 41.6406 39.66H43.2456C43.3256 40 43.5156 40.295 43.8156 40.545C44.1156 40.785 44.5106 40.905 45.0006 40.905C45.4806 40.905 45.8306 40.805 46.0506 40.605C46.2706 40.405 46.3806 40.175 46.3806 39.915C46.3806 39.535 46.2256 39.28 45.9156 39.15C45.6156 39.01 45.1956 38.885 44.6556 38.775C44.2356 38.685 43.8156 38.565 43.3956 38.415C42.9856 38.265 42.6406 38.055 42.3606 37.785C42.0906 37.505 41.9556 37.13 41.9556 36.66C41.9556 36.01 42.2056 35.47 42.7056 35.04C43.2056 34.6 43.9056 34.38 44.8056 34.38C45.6356 34.38 46.3056 34.58 46.8156 34.98C47.3356 35.38 47.6406 35.945 47.7306 36.675H46.2006C46.1506 36.355 46.0006 36.105 45.7506 35.925C45.5106 35.745 45.1856 35.655 44.7756 35.655C44.3756 35.655 44.0656 35.74 43.8456 35.91C43.6256 36.07 43.5156 36.28 43.5156 36.54C43.5156 36.8 43.6656 37.005 43.9656 37.155C44.2756 37.305 44.6806 37.44 45.1806 37.56C45.6806 37.67 46.1406 37.8 46.5606 37.95C46.9906 38.09 47.3356 38.3 47.5956 38.58C47.8556 38.86 47.9856 39.27 47.9856 39.81C47.9956 40.49 47.7306 41.055 47.1906 41.505C46.6606 41.955 45.9356 42.18 45.0156 42.18ZM49.7752 45.3L51.5602 41.385H51.1252L48.1852 34.56H49.9102L52.1902 40.065L54.5752 34.56H56.2552L51.4552 45.3H49.7752ZM56.9624 38.31V36.975H63.0674V38.31H56.9624ZM64.4554 45.3V34.56H65.8804L66.0454 35.715C66.2854 35.365 66.6154 35.055 67.0354 34.785C67.4554 34.515 67.9954 34.38 68.6554 34.38C69.3754 34.38 70.0104 34.55 70.5604 34.89C71.1104 35.23 71.5404 35.695 71.8504 36.285C72.1704 36.875 72.3304 37.545 72.3304 38.295C72.3304 39.045 72.1704 39.715 71.8504 40.305C71.5404 40.885 71.1104 41.345 70.5604 41.685C70.0104 42.015 69.3704 42.18 68.6404 42.18C68.0604 42.18 67.5454 42.065 67.0954 41.835C66.6554 41.605 66.3054 41.28 66.0454 40.86V45.3H64.4554ZM68.3704 40.8C69.0504 40.8 69.6104 40.57 70.0504 40.11C70.4904 39.64 70.7104 39.03 70.7104 38.28C70.7104 37.79 70.6104 37.355 70.4104 36.975C70.2104 36.595 69.9354 36.3 69.5854 36.09C69.2354 35.87 68.8304 35.76 68.3704 35.76C67.6904 35.76 67.1304 35.995 66.6904 36.465C66.2604 36.935 66.0454 37.54 66.0454 38.28C66.0454 39.03 66.2604 39.64 66.6904 40.11C67.1304 40.57 67.6904 40.8 68.3704 40.8ZM73.6001 42V31.2H75.1901V42H73.6001ZM79.4986 42.18C78.5986 42.18 77.8886 41.9 77.3686 41.34C76.8586 40.78 76.6036 39.945 76.6036 38.835V34.56H78.1936V38.67C78.1936 40.11 78.7836 40.83 79.9636 40.83C80.5536 40.83 81.0386 40.62 81.4186 40.2C81.7986 39.78 81.9886 39.18 81.9886 38.4V34.56H83.5786V42H82.1686L82.0486 40.695C81.8186 41.155 81.4786 41.52 81.0286 41.79C80.5886 42.05 80.0786 42.18 79.4986 42.18ZM88.1963 39.72C87.8063 39.72 87.4463 39.675 87.1163 39.585L86.4713 40.215C86.5813 40.285 86.7163 40.345 86.8763 40.395C87.0363 40.445 87.2613 40.49 87.5513 40.53C87.8413 40.57 88.2363 40.61 88.7363 40.65C89.7263 40.74 90.4413 40.98 90.8813 41.37C91.3213 41.75 91.5413 42.26 91.5413 42.9C91.5413 43.34 91.4213 43.755 91.1813 44.145C90.9513 44.545 90.5863 44.865 90.0863 45.105C89.5963 45.355 88.9663 45.48 88.1963 45.48C87.1563 45.48 86.3113 45.28 85.6613 44.88C85.0213 44.49 84.7013 43.895 84.7013 43.095C84.7013 42.785 84.7813 42.475 84.9413 42.165C85.1113 41.865 85.3763 41.58 85.7363 41.31C85.5263 41.22 85.3413 41.125 85.1813 41.025C85.0313 40.915 84.8963 40.805 84.7763 40.695V40.335L86.0663 39.015C85.4863 38.515 85.1963 37.86 85.1963 37.05C85.1963 36.56 85.3113 36.115 85.5413 35.715C85.7813 35.305 86.1263 34.98 86.5763 34.74C87.0263 34.5 87.5663 34.38 88.1963 34.38C88.6163 34.38 89.0063 34.44 89.3663 34.56H92.1413V35.61L90.8213 35.685C91.0613 36.095 91.1813 36.55 91.1813 37.05C91.1813 37.55 91.0613 38 90.8213 38.4C90.5913 38.8 90.2513 39.12 89.8013 39.36C89.3613 39.6 88.8263 39.72 88.1963 39.72ZM88.1963 38.475C88.6563 38.475 89.0263 38.355 89.3063 38.115C89.5963 37.865 89.7413 37.515 89.7413 37.065C89.7413 36.605 89.5963 36.255 89.3063 36.015C89.0263 35.775 88.6563 35.655 88.1963 35.655C87.7263 35.655 87.3463 35.775 87.0563 36.015C86.7763 36.255 86.6363 36.605 86.6363 37.065C86.6363 37.515 86.7763 37.865 87.0563 38.115C87.3463 38.355 87.7263 38.475 88.1963 38.475ZM86.2013 42.945C86.2013 43.375 86.3913 43.695 86.7713 43.905C87.1513 44.125 87.6263 44.235 88.1963 44.235C88.7463 44.235 89.1913 44.115 89.5313 43.875C89.8713 43.645 90.0413 43.335 90.0413 42.945C90.0413 42.655 89.9263 42.405 89.6963 42.195C89.4663 41.995 89.0313 41.87 88.3913 41.82C87.9113 41.79 87.4863 41.745 87.1163 41.685C86.7663 41.875 86.5263 42.08 86.3963 42.3C86.2663 42.52 86.2013 42.735 86.2013 42.945ZM94.0095 33.15C93.7095 33.15 93.4595 33.06 93.2595 32.88C93.0695 32.69 92.9745 32.455 92.9745 32.175C92.9745 31.895 93.0695 31.665 93.2595 31.485C93.4595 31.295 93.7095 31.2 94.0095 31.2C94.3095 31.2 94.5545 31.295 94.7445 31.485C94.9445 31.665 95.0445 31.895 95.0445 32.175C95.0445 32.455 94.9445 32.69 94.7445 32.88C94.5545 33.06 94.3095 33.15 94.0095 33.15ZM93.2145 42V34.56H94.8045V42H93.2145ZM96.4534 42V34.56H97.8634L97.9834 35.865C98.2134 35.405 98.5484 35.045 98.9884 34.785C99.4384 34.515 99.9534 34.38 100.533 34.38C101.433 34.38 102.138 34.66 102.648 35.22C103.168 35.78 103.428 36.615 103.428 37.725V42H101.853V37.89C101.853 36.45 101.263 35.73 100.083 35.73C99.4934 35.73 99.0034 35.94 98.6134 36.36C98.2334 36.78 98.0434 37.38 98.0434 38.16V42H96.4534ZM104.701 38.31V36.975H110.806V38.31H104.701ZM115.719 42.18C114.989 42.18 114.334 42.015 113.754 41.685C113.184 41.355 112.734 40.9 112.404 40.32C112.084 39.73 111.924 39.05 111.924 38.28C111.924 37.51 112.084 36.835 112.404 36.255C112.734 35.665 113.184 35.205 113.754 34.875C114.334 34.545 114.989 34.38 115.719 34.38C116.639 34.38 117.409 34.62 118.029 35.1C118.659 35.58 119.064 36.23 119.244 37.05H117.579C117.479 36.64 117.259 36.32 116.919 36.09C116.579 35.86 116.179 35.745 115.719 35.745C115.329 35.745 114.969 35.845 114.639 36.045C114.309 36.235 114.044 36.52 113.844 36.9C113.644 37.27 113.544 37.73 113.544 38.28C113.544 38.83 113.644 39.295 113.844 39.675C114.044 40.045 114.309 40.33 114.639 40.53C114.969 40.73 115.329 40.83 115.719 40.83C116.179 40.83 116.579 40.715 116.919 40.485C117.259 40.255 117.479 39.93 117.579 39.51H119.244C119.074 40.31 118.674 40.955 118.044 41.445C117.414 41.935 116.639 42.18 115.719 42.18ZM123.998 42.18C123.288 42.18 122.648 42.02 122.078 41.7C121.518 41.37 121.073 40.915 120.743 40.335C120.413 39.745 120.248 39.06 120.248 38.28C120.248 37.5 120.413 36.82 120.743 36.24C121.083 35.65 121.538 35.195 122.108 34.875C122.678 34.545 123.313 34.38 124.013 34.38C124.723 34.38 125.358 34.545 125.918 34.875C126.488 35.195 126.938 35.65 127.268 36.24C127.608 36.82 127.778 37.5 127.778 38.28C127.778 39.06 127.608 39.745 127.268 40.335C126.938 40.915 126.488 41.37 125.918 41.7C125.348 42.02 124.708 42.18 123.998 42.18ZM123.998 40.815C124.378 40.815 124.728 40.72 125.048 40.53C125.378 40.34 125.643 40.06 125.843 39.69C126.043 39.31 126.143 38.84 126.143 38.28C126.143 37.72 126.043 37.255 125.843 36.885C125.653 36.505 125.393 36.22 125.063 36.03C124.743 35.84 124.393 35.745 124.013 35.745C123.633 35.745 123.278 35.84 122.948 36.03C122.628 36.22 122.368 36.505 122.168 36.885C121.968 37.255 121.868 37.72 121.868 38.28C121.868 38.84 121.968 39.31 122.168 39.69C122.368 40.06 122.628 40.34 122.948 40.53C123.268 40.72 123.618 40.815 123.998 40.815ZM129.048 42V34.56H130.458L130.578 35.865C130.808 35.405 131.143 35.045 131.583 34.785C132.033 34.515 132.548 34.38 133.128 34.38C134.028 34.38 134.733 34.66 135.243 35.22C135.763 35.78 136.023 36.615 136.023 37.725V42H134.448V37.89C134.448 36.45 133.858 35.73 132.678 35.73C132.088 35.73 131.598 35.94 131.208 36.36C130.828 36.78 130.638 37.38 130.638 38.16V42H129.048ZM137.821 42V35.895H136.756V34.56H137.821V33.48C137.821 32.67 138.021 32.09 138.421 31.74C138.831 31.38 139.406 31.2 140.146 31.2H140.926V32.55H140.386C140.036 32.55 139.786 32.625 139.636 32.775C139.486 32.915 139.411 33.155 139.411 33.495V34.56H144.121V42H142.531V35.895H139.411V42H137.821ZM143.341 33.315C143.041 33.315 142.791 33.225 142.591 33.045C142.401 32.855 142.306 32.615 142.306 32.325C142.306 32.045 142.401 31.815 142.591 31.635C142.791 31.455 143.041 31.365 143.341 31.365C143.641 31.365 143.886 31.455 144.076 31.635C144.276 31.815 144.376 32.045 144.376 32.325C144.376 32.615 144.276 32.855 144.076 33.045C143.886 33.225 143.641 33.315 143.341 33.315ZM148.83 39.72C148.44 39.72 148.08 39.675 147.75 39.585L147.105 40.215C147.215 40.285 147.35 40.345 147.51 40.395C147.67 40.445 147.895 40.49 148.185 40.53C148.475 40.57 148.87 40.61 149.37 40.65C150.36 40.74 151.075 40.98 151.515 41.37C151.955 41.75 152.175 42.26 152.175 42.9C152.175 43.34 152.055 43.755 151.815 44.145C151.585 44.545 151.22 44.865 150.72 45.105C150.23 45.355 149.6 45.48 148.83 45.48C147.79 45.48 146.945 45.28 146.295 44.88C145.655 44.49 145.335 43.895 145.335 43.095C145.335 42.785 145.415 42.475 145.575 42.165C145.745 41.865 146.01 41.58 146.37 41.31C146.16 41.22 145.975 41.125 145.815 41.025C145.665 40.915 145.53 40.805 145.41 40.695V40.335L146.7 39.015C146.12 38.515 145.83 37.86 145.83 37.05C145.83 36.56 145.945 36.115 146.175 35.715C146.415 35.305 146.76 34.98 147.21 34.74C147.66 34.5 148.2 34.38 148.83 34.38C149.25 34.38 149.64 34.44 150 34.56H152.775V35.61L151.455 35.685C151.695 36.095 151.815 36.55 151.815 37.05C151.815 37.55 151.695 38 151.455 38.4C151.225 38.8 150.885 39.12 150.435 39.36C149.995 39.6 149.46 39.72 148.83 39.72ZM148.83 38.475C149.29 38.475 149.66 38.355 149.94 38.115C150.23 37.865 150.375 37.515 150.375 37.065C150.375 36.605 150.23 36.255 149.94 36.015C149.66 35.775 149.29 35.655 148.83 35.655C148.36 35.655 147.98 35.775 147.69 36.015C147.41 36.255 147.27 36.605 147.27 37.065C147.27 37.515 147.41 37.865 147.69 38.115C147.98 38.355 148.36 38.475 148.83 38.475ZM146.835 42.945C146.835 43.375 147.025 43.695 147.405 43.905C147.785 44.125 148.26 44.235 148.83 44.235C149.38 44.235 149.825 44.115 150.165 43.875C150.505 43.645 150.675 43.335 150.675 42.945C150.675 42.655 150.56 42.405 150.33 42.195C150.1 41.995 149.665 41.87 149.025 41.82C148.545 41.79 148.12 41.745 147.75 41.685C147.4 41.875 147.16 42.08 147.03 42.3C146.9 42.52 146.835 42.735 146.835 42.945Z"/><rect width="74" height="9" x="-13" y="52" fill="url(#paint2_linear)" rx="4.5"/><rect width="185" height="9" x="-13" y="68" fill="url(#paint3_linear)" rx="4.5"/><rect width="283" height="80" x="216" y="313" fill="url(#paint4_linear)" rx="10"/><path fill="url(#paint5_linear)" d="M288.555 345.09C287.465 345.09 286.51 344.88 285.69 344.46C284.88 344.04 284.245 343.445 283.785 342.675C283.335 341.915 283.11 341.015 283.11 339.975C283.11 338.885 283.3 337.875 283.68 336.945C284.06 336.015 284.595 335.2 285.285 334.5C285.975 333.8 286.785 333.26 287.715 332.88C288.645 332.49 289.665 332.295 290.775 332.295C291.915 332.295 292.9 332.51 293.73 332.94C294.56 333.37 295.2 333.97 295.65 334.74C296.11 335.51 296.34 336.395 296.34 337.395C296.34 337.985 296.265 338.56 296.115 339.12C295.965 339.68 295.745 340.185 295.455 340.635C295.175 341.075 294.825 341.43 294.405 341.7C293.995 341.96 293.52 342.09 292.98 342.09C292.47 342.09 292.07 341.97 291.78 341.73C291.5 341.48 291.33 341.145 291.27 340.725C290.97 341.155 290.585 341.49 290.115 341.73C289.655 341.97 289.16 342.09 288.63 342.09C287.88 342.09 287.29 341.865 286.86 341.415C286.44 340.955 286.23 340.335 286.23 339.555C286.23 339.005 286.315 338.48 286.485 337.98C286.655 337.47 286.9 337.02 287.22 336.63C287.54 336.23 287.915 335.915 288.345 335.685C288.785 335.455 289.27 335.34 289.8 335.34C290.77 335.34 291.405 335.725 291.705 336.495L291.885 335.505H293.205L292.485 339.645C292.415 340.055 292.43 340.39 292.53 340.65C292.63 340.9 292.855 341.025 293.205 341.025C293.515 341.025 293.785 340.915 294.015 340.695C294.255 340.475 294.45 340.19 294.6 339.84C294.76 339.49 294.88 339.11 294.96 338.7C295.04 338.28 295.08 337.87 295.08 337.47C295.08 336.2 294.685 335.205 293.895 334.485C293.105 333.755 292.005 333.39 290.595 333.39C289.705 333.39 288.88 333.56 288.12 333.9C287.36 334.23 286.7 334.69 286.14 335.28C285.58 335.86 285.145 336.54 284.835 337.32C284.525 338.1 284.37 338.94 284.37 339.84C284.37 341.15 284.765 342.165 285.555 342.885C286.345 343.615 287.425 343.98 288.795 343.98C289.235 343.98 289.67 343.935 290.1 343.845C290.54 343.755 290.95 343.625 291.33 343.455L291.585 344.505C290.665 344.895 289.655 345.09 288.555 345.09ZM289.125 340.905C289.515 340.905 289.875 340.8 290.205 340.59C290.535 340.37 290.805 340.075 291.015 339.705C291.225 339.325 291.35 338.895 291.39 338.415C291.44 337.895 291.34 337.45 291.09 337.08C290.84 336.71 290.445 336.525 289.905 336.525C289.445 336.525 289.045 336.66 288.705 336.93C288.365 337.2 288.105 337.545 287.925 337.965C287.745 338.385 287.655 338.83 287.655 339.3C287.655 339.78 287.775 340.17 288.015 340.47C288.265 340.76 288.635 340.905 289.125 340.905ZM298.009 342V331.2H299.599V342H298.009ZM304.643 342.18C303.913 342.18 303.263 342.02 302.693 341.7C302.133 341.37 301.693 340.915 301.373 340.335C301.053 339.755 300.893 339.08 300.893 338.31C300.893 337.53 301.048 336.845 301.358 336.255C301.678 335.665 302.118 335.205 302.678 334.875C303.248 334.545 303.908 334.38 304.658 334.38C305.388 334.38 306.023 334.545 306.563 334.875C307.103 335.195 307.523 335.625 307.823 336.165C308.123 336.705 308.273 337.3 308.273 337.95C308.273 338.05 308.268 338.16 308.258 338.28C308.258 338.39 308.253 338.515 308.243 338.655H302.453C302.503 339.375 302.738 339.925 303.158 340.305C303.588 340.675 304.083 340.86 304.643 340.86C305.093 340.86 305.468 340.76 305.768 340.56C306.078 340.35 306.308 340.07 306.458 339.72H308.048C307.848 340.42 307.448 341.005 306.848 341.475C306.258 341.945 305.523 342.18 304.643 342.18ZM304.643 335.685C304.113 335.685 303.643 335.845 303.233 336.165C302.823 336.475 302.573 336.945 302.483 337.575H306.683C306.653 336.995 306.448 336.535 306.068 336.195C305.688 335.855 305.213 335.685 304.643 335.685ZM312.442 342.18C311.502 342.18 310.727 341.95 310.117 341.49C309.507 341.03 309.157 340.42 309.067 339.66H310.672C310.752 340 310.942 340.295 311.242 340.545C311.542 340.785 311.937 340.905 312.427 340.905C312.907 340.905 313.257 340.805 313.477 340.605C313.697 340.405 313.807 340.175 313.807 339.915C313.807 339.535 313.652 339.28 313.342 339.15C313.042 339.01 312.622 338.885 312.082 338.775C311.662 338.685 311.242 338.565 310.822 338.415C310.412 338.265 310.067 338.055 309.787 337.785C309.517 337.505 309.382 337.13 309.382 336.66C309.382 336.01 309.632 335.47 310.132 335.04C310.632 334.6 311.332 334.38 312.232 334.38C313.062 334.38 313.732 334.58 314.242 334.98C314.762 335.38 315.067 335.945 315.157 336.675H313.627C313.577 336.355 313.427 336.105 313.177 335.925C312.937 335.745 312.612 335.655 312.202 335.655C311.802 335.655 311.492 335.74 311.272 335.91C311.052 336.07 310.942 336.28 310.942 336.54C310.942 336.8 311.092 337.005 311.392 337.155C311.702 337.305 312.107 337.44 312.607 337.56C313.107 337.67 313.567 337.8 313.987 337.95C314.417 338.09 314.762 338.3 315.022 338.58C315.282 338.86 315.412 339.27 315.412 339.81C315.422 340.49 315.157 341.055 314.617 341.505C314.087 341.955 313.362 342.18 312.442 342.18ZM317.202 345.3L318.987 341.385H318.552L315.612 334.56H317.337L319.617 340.065L322.002 334.56H323.682L318.882 345.3H317.202ZM323.324 343.545L327.074 330.435H328.634L324.869 343.545H323.324ZM329.582 342V331.2H331.172V342H329.582ZM336.216 342.18C335.486 342.18 334.836 342.02 334.266 341.7C333.706 341.37 333.266 340.915 332.946 340.335C332.626 339.755 332.466 339.08 332.466 338.31C332.466 337.53 332.621 336.845 332.931 336.255C333.251 335.665 333.691 335.205 334.251 334.875C334.821 334.545 335.481 334.38 336.231 334.38C336.961 334.38 337.596 334.545 338.136 334.875C338.676 335.195 339.096 335.625 339.396 336.165C339.696 336.705 339.846 337.3 339.846 337.95C339.846 338.05 339.841 338.16 339.831 338.28C339.831 338.39 339.826 338.515 339.816 338.655H334.026C334.076 339.375 334.311 339.925 334.731 340.305C335.161 340.675 335.656 340.86 336.216 340.86C336.666 340.86 337.041 340.76 337.341 340.56C337.651 340.35 337.881 340.07 338.031 339.72H339.621C339.421 340.42 339.021 341.005 338.421 341.475C337.831 341.945 337.096 342.18 336.216 342.18ZM336.216 335.685C335.686 335.685 335.216 335.845 334.806 336.165C334.396 336.475 334.146 336.945 334.056 337.575H338.256C338.226 336.995 338.021 336.535 337.641 336.195C337.261 335.855 336.786 335.685 336.216 335.685ZM344.016 342.18C343.076 342.18 342.301 341.95 341.691 341.49C341.081 341.03 340.731 340.42 340.641 339.66H342.246C342.326 340 342.516 340.295 342.816 340.545C343.116 340.785 343.511 340.905 344.001 340.905C344.481 340.905 344.831 340.805 345.051 340.605C345.271 340.405 345.381 340.175 345.381 339.915C345.381 339.535 345.226 339.28 344.916 339.15C344.616 339.01 344.196 338.885 343.656 338.775C343.236 338.685 342.816 338.565 342.396 338.415C341.986 338.265 341.641 338.055 341.361 337.785C341.091 337.505 340.956 337.13 340.956 336.66C340.956 336.01 341.206 335.47 341.706 335.04C342.206 334.6 342.906 334.38 343.806 334.38C344.636 334.38 345.306 334.58 345.816 334.98C346.336 335.38 346.641 335.945 346.731 336.675H345.201C345.151 336.355 345.001 336.105 344.751 335.925C344.511 335.745 344.186 335.655 343.776 335.655C343.376 335.655 343.066 335.74 342.846 335.91C342.626 336.07 342.516 336.28 342.516 336.54C342.516 336.8 342.666 337.005 342.966 337.155C343.276 337.305 343.681 337.44 344.181 337.56C344.681 337.67 345.141 337.8 345.561 337.95C345.991 338.09 346.336 338.3 346.596 338.58C346.856 338.86 346.986 339.27 346.986 339.81C346.996 340.49 346.731 341.055 346.191 341.505C345.661 341.955 344.936 342.18 344.016 342.18ZM348.775 345.3L350.56 341.385H350.125L347.185 334.56H348.91L351.19 340.065L353.575 334.56H355.255L350.455 345.3H348.775ZM355.962 338.31V336.975H362.067V338.31H355.962ZM363.455 345.3V334.56H364.88L365.045 335.715C365.285 335.365 365.615 335.055 366.035 334.785C366.455 334.515 366.995 334.38 367.655 334.38C368.375 334.38 369.01 334.55 369.56 334.89C370.11 335.23 370.54 335.695 370.85 336.285C371.17 336.875 371.33 337.545 371.33 338.295C371.33 339.045 371.17 339.715 370.85 340.305C370.54 340.885 370.11 341.345 369.56 341.685C369.01 342.015 368.37 342.18 367.64 342.18C367.06 342.18 366.545 342.065 366.095 341.835C365.655 341.605 365.305 341.28 365.045 340.86V345.3H363.455ZM367.37 340.8C368.05 340.8 368.61 340.57 369.05 340.11C369.49 339.64 369.71 339.03 369.71 338.28C369.71 337.79 369.61 337.355 369.41 336.975C369.21 336.595 368.935 336.3 368.585 336.09C368.235 335.87 367.83 335.76 367.37 335.76C366.69 335.76 366.13 335.995 365.69 336.465C365.26 336.935 365.045 337.54 365.045 338.28C365.045 339.03 365.26 339.64 365.69 340.11C366.13 340.57 366.69 340.8 367.37 340.8ZM372.6 342V331.2H374.19V342H372.6ZM378.499 342.18C377.599 342.18 376.889 341.9 376.369 341.34C375.859 340.78 375.604 339.945 375.604 338.835V334.56H377.194V338.67C377.194 340.11 377.784 340.83 378.964 340.83C379.554 340.83 380.039 340.62 380.419 340.2C380.799 339.78 380.989 339.18 380.989 338.4V334.56H382.579V342H381.169L381.049 340.695C380.819 341.155 380.479 341.52 380.029 341.79C379.589 342.05 379.079 342.18 378.499 342.18ZM387.196 339.72C386.806 339.72 386.446 339.675 386.116 339.585L385.471 340.215C385.581 340.285 385.716 340.345 385.876 340.395C386.036 340.445 386.261 340.49 386.551 340.53C386.841 340.57 387.236 340.61 387.736 340.65C388.726 340.74 389.441 340.98 389.881 341.37C390.321 341.75 390.541 342.26 390.541 342.9C390.541 343.34 390.421 343.755 390.181 344.145C389.951 344.545 389.586 344.865 389.086 345.105C388.596 345.355 387.966 345.48 387.196 345.48C386.156 345.48 385.311 345.28 384.661 344.88C384.021 344.49 383.701 343.895 383.701 343.095C383.701 342.785 383.781 342.475 383.941 342.165C384.111 341.865 384.376 341.58 384.736 341.31C384.526 341.22 384.341 341.125 384.181 341.025C384.031 340.915 383.896 340.805 383.776 340.695V340.335L385.066 339.015C384.486 338.515 384.196 337.86 384.196 337.05C384.196 336.56 384.311 336.115 384.541 335.715C384.781 335.305 385.126 334.98 385.576 334.74C386.026 334.5 386.566 334.38 387.196 334.38C387.616 334.38 388.006 334.44 388.366 334.56H391.141V335.61L389.821 335.685C390.061 336.095 390.181 336.55 390.181 337.05C390.181 337.55 390.061 338 389.821 338.4C389.591 338.8 389.251 339.12 388.801 339.36C388.361 339.6 387.826 339.72 387.196 339.72ZM387.196 338.475C387.656 338.475 388.026 338.355 388.306 338.115C388.596 337.865 388.741 337.515 388.741 337.065C388.741 336.605 388.596 336.255 388.306 336.015C388.026 335.775 387.656 335.655 387.196 335.655C386.726 335.655 386.346 335.775 386.056 336.015C385.776 336.255 385.636 336.605 385.636 337.065C385.636 337.515 385.776 337.865 386.056 338.115C386.346 338.355 386.726 338.475 387.196 338.475ZM385.201 342.945C385.201 343.375 385.391 343.695 385.771 343.905C386.151 344.125 386.626 344.235 387.196 344.235C387.746 344.235 388.191 344.115 388.531 343.875C388.871 343.645 389.041 343.335 389.041 342.945C389.041 342.655 388.926 342.405 388.696 342.195C388.466 341.995 388.031 341.87 387.391 341.82C386.911 341.79 386.486 341.745 386.116 341.685C385.766 341.875 385.526 342.08 385.396 342.3C385.266 342.52 385.201 342.735 385.201 342.945ZM393.009 333.15C392.709 333.15 392.459 333.06 392.259 332.88C392.069 332.69 391.974 332.455 391.974 332.175C391.974 331.895 392.069 331.665 392.259 331.485C392.459 331.295 392.709 331.2 393.009 331.2C393.309 331.2 393.554 331.295 393.744 331.485C393.944 331.665 394.044 331.895 394.044 332.175C394.044 332.455 393.944 332.69 393.744 332.88C393.554 333.06 393.309 333.15 393.009 333.15ZM392.214 342V334.56H393.804V342H392.214ZM395.453 342V334.56H396.863L396.983 335.865C397.213 335.405 397.548 335.045 397.988 334.785C398.438 334.515 398.953 334.38 399.533 334.38C400.433 334.38 401.138 334.66 401.648 335.22C402.168 335.78 402.428 336.615 402.428 337.725V342H400.853V337.89C400.853 336.45 400.263 335.73 399.083 335.73C398.493 335.73 398.003 335.94 397.613 336.36C397.233 336.78 397.043 337.38 397.043 338.16V342H395.453ZM403.701 338.31V336.975H409.806V338.31H403.701ZM411.194 342V331.2H412.784V335.76C413.034 335.33 413.379 334.995 413.819 334.755C414.269 334.505 414.764 334.38 415.304 334.38C416.194 334.38 416.894 334.66 417.404 335.22C417.914 335.78 418.169 336.615 418.169 337.725V342H416.594V337.89C416.594 336.45 416.019 335.73 414.869 335.73C414.269 335.73 413.769 335.94 413.369 336.36C412.979 336.78 412.784 337.38 412.784 338.16V342H411.194ZM423.072 342.18C422.342 342.18 421.692 342.02 421.122 341.7C420.562 341.37 420.122 340.915 419.802 340.335C419.482 339.755 419.322 339.08 419.322 338.31C419.322 337.53 419.477 336.845 419.787 336.255C420.107 335.665 420.547 335.205 421.107 334.875C421.677 334.545 422.337 334.38 423.087 334.38C423.817 334.38 424.452 334.545 424.992 334.875C425.532 335.195 425.952 335.625 426.252 336.165C426.552 336.705 426.702 337.3 426.702 337.95C426.702 338.05 426.697 338.16 426.687 338.28C426.687 338.39 426.682 338.515 426.672 338.655H420.882C420.932 339.375 421.167 339.925 421.587 340.305C422.017 340.675 422.512 340.86 423.072 340.86C423.522 340.86 423.897 340.76 424.197 340.56C424.507 340.35 424.737 340.07 424.887 339.72H426.477C426.277 340.42 425.877 341.005 425.277 341.475C424.687 341.945 423.952 342.18 423.072 342.18ZM423.072 335.685C422.542 335.685 422.072 335.845 421.662 336.165C421.252 336.475 421.002 336.945 420.912 337.575H425.112C425.082 336.995 424.877 336.535 424.497 336.195C424.117 335.855 423.642 335.685 423.072 335.685ZM427.901 342V331.2H429.491V342H427.901ZM431.055 345.3V334.56H432.48L432.645 335.715C432.885 335.365 433.215 335.055 433.635 334.785C434.055 334.515 434.595 334.38 435.255 334.38C435.975 334.38 436.61 334.55 437.16 334.89C437.71 335.23 438.14 335.695 438.45 336.285C438.77 336.875 438.93 337.545 438.93 338.295C438.93 339.045 438.77 339.715 438.45 340.305C438.14 340.885 437.71 341.345 437.16 341.685C436.61 342.015 435.97 342.18 435.24 342.18C434.66 342.18 434.145 342.065 433.695 341.835C433.255 341.605 432.905 341.28 432.645 340.86V345.3H431.055ZM434.97 340.8C435.65 340.8 436.21 340.57 436.65 340.11C437.09 339.64 437.31 339.03 437.31 338.28C437.31 337.79 437.21 337.355 437.01 336.975C436.81 336.595 436.535 336.3 436.185 336.09C435.835 335.87 435.43 335.76 434.97 335.76C434.29 335.76 433.73 335.995 433.29 336.465C432.86 336.935 432.645 337.54 432.645 338.28C432.645 339.03 432.86 339.64 433.29 340.11C433.73 340.57 434.29 340.8 434.97 340.8Z"/><rect width="74" height="9" x="286" y="352" fill="#DDD4B3" rx="4.5"/><rect width="185" height="9" x="286" y="368" fill="url(#paint6_linear)" rx="4.5"/><path fill="#C5B78A" d="M251 364.333C243.636 364.333 237.667 358.364 237.667 351C237.667 343.636 243.636 337.667 251 337.667C258.364 337.667 264.333 343.636 264.333 351C264.333 358.364 258.364 364.333 251 364.333ZM251 361.667C253.829 361.667 256.542 360.543 258.542 358.542C260.543 356.542 261.667 353.829 261.667 351C261.667 348.171 260.543 345.458 258.542 343.458C256.542 341.457 253.829 340.333 251 340.333C248.171 340.333 245.458 341.457 243.458 343.458C241.457 345.458 240.333 348.171 240.333 351C240.333 353.829 241.457 356.542 243.458 358.542C245.458 360.543 248.171 361.667 251 361.667V361.667ZM249.667 355H252.333V357.667H249.667V355ZM252.333 352.807V353.667H249.667V351.667C249.667 351.313 249.807 350.974 250.057 350.724C250.307 350.474 250.646 350.333 251 350.333C251.379 350.333 251.75 350.226 252.07 350.023C252.39 349.82 252.646 349.531 252.808 349.189C252.97 348.846 253.031 348.465 252.985 348.089C252.939 347.713 252.787 347.358 252.546 347.065C252.306 346.772 251.988 346.554 251.628 346.435C251.269 346.316 250.883 346.301 250.515 346.393C250.148 346.485 249.814 346.679 249.552 346.953C249.291 347.227 249.113 347.57 249.039 347.941L246.423 347.417C246.585 346.607 246.959 345.854 247.508 345.235C248.056 344.617 248.759 344.155 249.545 343.898C250.33 343.64 251.17 343.596 251.978 343.769C252.787 343.942 253.534 344.327 254.145 344.884C254.756 345.441 255.208 346.15 255.455 346.939C255.702 347.728 255.735 348.568 255.55 349.374C255.366 350.18 254.971 350.922 254.406 351.525C253.841 352.128 253.126 352.571 252.333 352.807V352.807Z"/></g><defs><linearGradient id="paint0_linear" x1="193.5" x2="1.5" y1="53" y2="53" gradientUnits="userSpaceOnUse"><stop stop-color="#E1F3ED"/><stop offset=".672" stop-color="#E1F3ED"/><stop offset="1" stop-color="#E1F3ED" stop-opacity="0"/></linearGradient><linearGradient id="paint1_linear" x1="149.5" x2="-94.5" y1="37" y2="37" gradientUnits="userSpaceOnUse"><stop stop-color="#7BB4A1"/><stop offset="1" stop-color="#E1F3ED" stop-opacity="0"/></linearGradient><linearGradient id="paint2_linear" x1="61" x2="0" y1="56" y2="56" gradientUnits="userSpaceOnUse"><stop stop-color="#B4ECD9"/><stop offset="1" stop-color="#E1F3ED" stop-opacity="0"/></linearGradient><linearGradient id="paint3_linear" x1="172" x2="-13" y1="72" y2="72" gradientUnits="userSpaceOnUse"><stop stop-color="#B4ECD9"/><stop offset="1" stop-color="#B4ECD9" stop-opacity="0"/></linearGradient><linearGradient id="paint4_linear" x1="216" x2="449" y1="353" y2="353" gradientUnits="userSpaceOnUse"><stop stop-color="#F3EFE1"/><stop offset=".734" stop-color="#F3EFE1"/><stop offset="1" stop-color="#F3EFE1" stop-opacity="0"/></linearGradient><linearGradient id="paint5_linear" x1="282" x2="448.5" y1="339.5" y2="337" gradientUnits="userSpaceOnUse"><stop stop-color="#BAAD81"/><stop offset="1" stop-color="#BAAD81" stop-opacity="0"/></linearGradient><linearGradient id="paint6_linear" x1="286" x2="447.5" y1="373" y2="371.5" gradientUnits="userSpaceOnUse"><stop stop-color="#DDD4B3"/><stop offset="1" stop-color="#DDD4B3" stop-opacity="0"/></linearGradient><clipPath id="clip0"><rect width="450" height="400" fill="#fff"/></clipPath></defs></svg>