<svg width="64" height="64" viewBox="0 0 64 64" fill="none" xmlns="http://www.w3.org/2000/svg">
<path d="M47.25 56H16.75C14 56 11.75 53.75 11.75 51V11C11.75 8.25 14 6 16.75 6H47.25C50 6 52.25 8.25 52.25 11V51C52.25 53.75 50 56 47.25 56Z" fill="white"/>
<path d="M44.25 16.5H18.75C17.9 16.5 17.25 15.85 17.25 15C17.25 14.15 17.9 13.5 18.75 13.5H44.25C45.1 13.5 45.75 14.15 45.75 15C45.75 15.85 45.1 16.5 44.25 16.5ZM44.25 24H18.75C17.9 24 17.25 23.35 17.25 22.5C17.25 21.65 17.9 21 18.75 21H44.25C45.1 21 45.75 21.65 45.75 22.5C45.75 23.35 45.1 24 44.25 24ZM32 31.5H18.75C17.9 31.5 17.25 30.85 17.25 30C17.25 29.15 17.9 28.5 18.75 28.5H32C32.85 28.5 33.5 29.15 33.5 30C33.5 30.85 32.85 31.5 32 31.5Z" fill="#CAD2E8"/>
<path d="M47.25 57.5H16.75C13.15 57.5 10.25 54.6 10.25 51V11C10.25 7.4 13.15 4.5 16.75 4.5H47.25C50.85 4.5 53.75 7.4 53.75 11V51C53.75 54.6 50.85 57.5 47.25 57.5ZM16.75 7.5C14.8 7.5 13.25 9.05 13.25 11V51C13.25 52.95 14.8 54.5 16.75 54.5H47.25C49.2 54.5 50.75 52.95 50.75 51V11C50.75 9.05 49.2 7.5 47.25 7.5H16.75Z" fill="#2D527C"/>
</svg>
