<svg width="109" height="115" viewBox="0 0 109 115" fill="none" xmlns="http://www.w3.org/2000/svg">
<path d="M108.773 71.1353C108.773 108.93 84.4237 114.105 54.3867 114.105C24.3498 114.105 0 108.93 0 71.1353C0 18.0856 24.3498 9.59766 54.3867 9.59766C84.4237 9.59766 108.773 21.7991 108.773 71.1353Z" fill="#434864"/>
<path d="M103.441 66.2265C103.441 100.019 79.9921 106.641 52.9 106.641C25.8078 106.641 5.33179 100.019 5.33179 66.2265C5.33179 37.0429 22.6869 14.7796 43.0713 27.0053C48.7049 30.3841 56.3783 29.7848 61.7929 26.0649C80.9271 12.9193 103.441 37.1304 103.441 66.2265Z" fill="white"/>
<circle cx="29.325" cy="58.1191" r="12.2637" fill="#434864"/>
<circle cx="74.114" cy="58.1191" r="12.2637" fill="#434864"/>
<ellipse cx="28.2585" cy="53.3203" rx="3.73242" ry="4.26563" fill="white"/>
<ellipse cx="73.0476" cy="53.3203" rx="3.73242" ry="4.26563" fill="white"/>
<path d="M39.73 73.8454L50.8163 69.0941C52.074 68.5551 53.4977 68.5551 54.7555 69.0941L65.8418 73.8454C68.4892 74.98 69.1058 78.4564 67.0101 80.4323L57.588 89.3161C54.8914 91.8586 50.6804 91.8586 47.9838 89.3161L38.5616 80.4323C36.466 78.4564 37.0826 74.98 39.73 73.8454Z" fill="#D96969"/>
<path d="M46.3268 78.9141L51.7089 78.9141L58.0858 78.9141C59.4285 78.9141 60.3898 80.211 59.9993 81.4957L58.8355 85.325C56.7881 92.0615 47.1952 91.9 45.3758 85.0984L44.3947 81.4309C44.055 80.1609 45.0121 78.9141 46.3268 78.9141Z" fill="url(#paint0_linear)"/>
<path fill-rule="evenodd" clip-rule="evenodd" d="M48.1364 20.0461C55.6258 20.0461 61.6971 15.5587 61.6971 10.0231C61.6971 4.48748 55.6258 0 48.1364 0C45.7482 0 43.5041 0.456329 41.5552 1.25746C48.2409 1.8764 53.4134 6.09288 53.4134 11.2023C53.4134 14.9727 50.5968 18.2568 46.4341 19.9679C46.9917 20.0195 47.5599 20.0461 48.1364 20.0461Z" fill="#434864"/>
<path fill-rule="evenodd" clip-rule="evenodd" d="M48.7521 26.002C54.2905 24.7412 58.3157 20.9288 58.3157 16.4215C58.3157 10.8859 52.2444 6.39841 44.755 6.39841C41.5381 6.39841 38.5827 7.22637 36.2578 8.60972C37.5213 8.32206 38.8636 8.16721 40.2549 8.16721C47.7442 8.16721 53.8155 12.6547 53.8155 18.1903C53.8155 21.3481 51.8397 24.1649 48.7521 26.002Z" fill="#434864"/>
<defs>
<linearGradient id="paint0_linear" x1="52.2527" y1="78.9141" x2="52.2527" y2="108.773" gradientUnits="userSpaceOnUse">
<stop stop-color="#D2A4A4" stop-opacity="0"/>
<stop offset="0.53125" stop-color="#7A2626"/>
</linearGradient>
</defs>
</svg>
