<svg width="60" height="60" viewBox="0 0 60 60" fill="none" xmlns="http://www.w3.org/2000/svg">
<path d="M27.387 38.5958C18.6032 38.5958 11.457 31.4496 11.457 22.6658V11.4764C11.457 10.5654 12.1957 9.82678 13.1067 9.82678C14.0177 9.82678 14.7563 10.5653 14.7563 11.4764V22.666C14.7563 29.6308 20.4225 35.2968 27.3871 35.2968C34.3518 35.2968 40.018 29.6306 40.018 22.666V19.7592C40.018 18.8482 40.7566 18.1096 41.6676 18.1096C42.5785 18.1096 43.3173 18.8481 43.3173 19.7592V22.666C43.317 31.4496 36.1708 38.5958 27.387 38.5958Z" fill="#2D527C"/>
<path d="M44.5314 13.126H10.2434C9.3325 13.126 8.59375 12.3874 8.59375 11.4763C8.59375 10.5652 9.33238 9.82666 10.2434 9.82666H44.5312C45.4421 9.82666 46.1808 10.5652 46.1808 11.4763C46.1808 12.3874 45.4423 13.126 44.5314 13.126Z" fill="#2D527C"/>
<path d="M22.1987 11.4764H16.3789V4.55954C16.3789 2.95255 17.6818 1.64966 19.2888 1.64966C20.8958 1.64966 22.1987 2.95255 22.1987 4.55954V11.4764Z" fill="#CAD2E8"/>
<path d="M22.1989 13.1259H16.3791C15.4682 13.1259 14.7295 12.3874 14.7295 11.4763V4.55953C14.7296 2.04527 16.7749 0 19.289 0C21.803 0 23.8485 2.04527 23.8485 4.55953V11.4764C23.8485 12.3874 23.1098 13.1259 22.1989 13.1259ZM18.0288 9.82676H20.5494V4.55953C20.5494 3.86461 19.9841 3.2993 19.2891 3.2993C18.5942 3.2993 18.0287 3.86461 18.0287 4.55953L18.0288 9.82676Z" fill="#2D527C"/>
<path d="M38.3969 11.4764H32.5771V4.55954C32.5771 2.95255 33.88 1.64966 35.487 1.64966C37.094 1.64966 38.3969 2.95255 38.3969 4.55954V11.4764Z" fill="#CAD2E8"/>
<path d="M38.397 13.1259H32.5774C31.6665 13.1259 30.9277 12.3874 30.9277 11.4763V4.55953C30.9279 2.04527 32.9731 0 35.4873 0C38.0014 0 40.0468 2.04527 40.0468 4.55953V11.4764C40.0467 12.3874 39.3082 13.1259 38.397 13.1259ZM34.227 9.82676H36.7475V4.55953C36.7475 3.86461 36.1822 3.2993 35.4873 3.2993C34.7923 3.2993 34.227 3.86461 34.227 4.55953V9.82676Z" fill="#2D527C"/>
<path d="M33.5764 35.3557H21.2012V42.5631H33.5764V35.3557Z" fill="#CAD2E8"/>
<path d="M33.5758 44.213H21.2014C20.2905 44.213 19.5518 43.4745 19.5518 42.5634V35.3561C19.5518 34.4451 20.2904 33.7065 21.2014 33.7065H33.5758C34.4867 33.7065 35.2255 34.445 35.2255 35.3561V42.5634C35.2254 43.4745 34.4867 44.213 33.5758 44.213ZM22.8509 40.9139H31.9262V37.0058H22.8509V40.9139Z" fill="#2D527C"/>
<path d="M32.9799 60C28.9868 60 25.7383 56.7514 25.7383 52.7584V42.5636C25.7383 41.6526 26.4769 40.914 27.3879 40.914C28.2988 40.914 29.0376 41.6525 29.0376 42.5636V52.7585C29.0376 54.9323 30.8061 56.7008 32.9798 56.7008C35.1535 56.7008 36.9222 54.9323 36.9222 52.7585V51.5553C36.9222 50.6442 37.6608 49.9057 38.5718 49.9057C39.4827 49.9057 40.2215 50.6442 40.2215 51.5553V52.7585C40.2215 56.7513 36.9729 60 32.9799 60Z" fill="#2D527C"/>
<path d="M49.7565 52.0497C48.8456 52.0497 48.1069 51.3112 48.1069 50.4001V41.6373C48.1069 39.4635 46.3382 37.6949 44.1646 37.6949C41.991 37.6949 40.2221 39.4633 40.2221 41.6373V43.6779C40.2221 44.5889 39.4835 45.3275 38.5725 45.3275C37.6616 45.3275 36.9229 44.589 36.9229 43.6779V41.6373C36.9229 37.6442 40.1714 34.3957 44.1644 34.3957C48.1575 34.3957 51.406 37.6442 51.406 41.6373V50.4001C51.4062 51.3112 50.6677 52.0497 49.7565 52.0497Z" fill="#2D527C"/>
<path d="M33.5754 19.5251H13.1077C12.1968 19.5251 11.458 18.7866 11.458 17.8754C11.458 16.9644 12.1966 16.2258 13.1077 16.2258H33.5752C34.4861 16.2258 35.2248 16.9643 35.2248 17.8754C35.2248 18.7866 34.4863 19.5251 33.5754 19.5251Z" fill="#2D527C"/>
</svg>
