<svg width="60" height="60" viewBox="0 0 60 60" fill="none" xmlns="http://www.w3.org/2000/svg">
<g clip-path="url(#clip0)">
<path d="M18.8771 15.2909L22.441 16.5151C19.3815 20.4485 16.585 24.7954 14.1628 29.573L5.11038 29.2911C2.17073 29.2004 0.83519 25.5784 3.0115 23.6005L10.1755 17.0873C12.5309 14.9461 15.8661 14.2578 18.8771 15.2909Z" fill="#CAD2E8"/>
<path d="M44.7098 41.1235C45.7429 44.1345 45.0546 47.4697 42.9134 49.8251L36.4002 56.9891C34.4223 59.1654 30.8003 57.8299 30.7096 54.8902C30.7095 54.8883 30.4277 45.8398 30.4277 45.8378C34.9255 43.5593 39.3316 40.7923 43.4856 37.5596L44.7098 41.1235Z" fill="#CAD2E8"/>
<path d="M44.649 15.3514C47.1519 17.8531 47.1519 21.9105 44.649 24.4123C42.1473 26.9152 38.0899 26.9152 35.5881 24.4123C33.0852 21.9105 33.0852 17.8531 35.5881 15.3514C38.0899 12.8484 42.1473 12.8484 44.649 15.3514Z" fill="#CAD2E8"/>
<path d="M40.2639 3.39497C42.0282 2.85168 43.066 5.33017 41.4334 6.19162C37.864 8.07505 34.5475 10.6722 31.6631 14.0025C27.6693 18.6591 24.074 23.9265 21.0852 29.7677L16.5391 25.2215C19.0568 20.9281 21.9864 16.8673 25.0507 13.3299C29.1562 8.57383 34.4551 5.18392 40.2639 3.39497Z" fill="white"/>
<path d="M41.6214 13.6542C42.8907 13.9587 42.8156 15.7684 41.5265 15.9734C38.8294 16.4024 36.6495 18.5264 36.2102 21.2904C36.0053 22.5799 34.1954 22.6544 33.8909 21.3848C32.7728 16.722 36.9585 12.5355 41.6214 13.6542Z" fill="#E8F8FC"/>
<path d="M11.8284 15.8727C13.1224 15.133 14.3699 16.8898 13.258 17.8824C13.211 17.9244 6.08311 24.405 6.03654 24.4474C5.18186 25.2243 4.86903 26.2548 4.9825 27.2255C5.11146 28.329 3.81475 29.045 2.96794 28.3257C1.43291 27.0218 1.72699 24.7687 3.01233 23.6006C10.4891 16.8028 10.6456 16.5487 11.8284 15.8727Z" fill="#CAD2E8"/>
<path d="M44.3965 40.2102C38.9371 44.4177 32.6914 47.8771 30.5197 48.8089C30.5197 48.807 30.4277 45.8398 30.4277 45.8378C34.9258 43.5592 39.3316 40.7923 43.4856 37.5596L44.3965 40.2102Z" fill="#CAD2E8"/>
<path d="M59.4377 3.7786L59.1828 2.37616C59.0386 1.58282 58.4178 0.96223 57.6246 0.817909L56.2221 0.563018C50.2596 -0.52078 44.0882 -0.0309594 38.3757 1.98034C30.9431 4.59711 26.0684 8.90315 21.7737 14.2393L19.5055 13.4608C15.826 12.1974 11.7519 13.0387 8.87339 15.6557L1.70985 22.1681C-1.74792 25.3113 0.378179 31.0807 5.05064 31.2262L11.3871 31.4237C11.0607 33.3913 11.6843 35.4434 13.1477 36.9067L23.0941 46.8533C24.5081 48.2672 26.538 48.9527 28.5774 48.6144L28.7748 54.9505C28.9207 59.6362 34.6999 61.7377 37.8329 58.2911L44.3452 51.1276C46.9622 48.249 47.8032 44.175 46.5403 40.4955L45.7617 38.2272C50.9581 34.0448 55.3383 29.2443 58.0206 21.6253C60.0318 15.9125 60.5219 9.74113 59.4377 3.7786ZM4.31367 25.0324L11.4772 18.52C13.3104 16.8536 15.9052 16.3178 18.2486 17.1222L19.2946 17.4812C17.0353 20.5914 14.9099 23.9781 13.0044 27.601L5.17101 27.3569C3.96672 27.3194 3.42162 25.8434 4.31367 25.0324ZM42.8787 41.7522C43.683 44.0957 43.1475 46.6902 41.4807 48.5235L34.9682 55.6871C34.158 56.5788 32.6814 56.0349 32.6439 54.8299L32.3997 46.9966C35.9219 45.144 39.3054 43.0412 42.5195 40.7061L42.8787 41.7522ZM45.2213 33.6436C40.1783 37.9694 34.5897 41.6495 28.6106 44.5819C27.6824 45.0371 26.5653 44.8498 25.8314 44.1158C25.8436 44.1158 25.9216 44.2061 15.8849 34.1692C15.1509 33.4353 14.9637 32.3183 15.4189 31.39C15.9147 30.3788 16.4338 29.3798 16.9721 28.3917L27.4717 38.8913C28.2276 39.6473 29.453 39.6471 30.2089 38.8913C30.9648 38.1355 30.9648 36.9099 30.2089 36.154L18.9763 24.9216C21.236 21.2318 23.7246 17.8365 26.5161 14.5943C33.5206 6.47945 44.5352 2.37689 55.6136 4.38686C57.569 15.164 53.8046 26.2607 45.2213 33.6436ZM34.2197 13.9822C28.9739 19.2277 32.7215 28.2209 40.1192 28.2209C47.51 28.2209 51.2705 19.2338 46.0187 13.9822C42.7654 10.7291 37.4728 10.7291 34.2197 13.9822ZM43.2813 23.0438C41.5376 24.7873 38.7006 24.7873 36.9569 23.0438C35.2133 21.3002 35.2133 18.463 36.9569 16.7195C38.7007 14.9759 41.5376 14.9759 43.2813 16.7195C45.0249 18.463 45.0249 21.3002 43.2813 23.0438ZM2.97232 45.2675C2.21636 44.5117 2.21636 43.2861 2.97232 42.5303L5.47877 40.024C6.23461 39.2681 7.46018 39.2681 8.21602 40.024C8.97198 40.7798 8.97198 42.0054 8.21602 42.7612L5.70958 45.2677C4.95362 46.0235 3.72816 46.0235 2.97232 45.2675ZM20.0732 51.8811C20.8292 52.637 20.8292 53.8626 20.0732 54.6184L17.5669 57.1248C17.1888 57.5028 16.6936 57.6918 16.1982 57.6918C14.4894 57.6918 13.6066 55.6105 14.8295 54.3877L17.3358 51.8813C18.0919 51.1253 19.3174 51.1251 20.0732 51.8811ZM15.8453 46.8927L7.33473 55.4033C6.57865 56.1592 5.35332 56.1592 4.59748 55.4033C3.84152 54.6474 3.84152 53.4219 4.59748 52.666L13.1081 44.1553C13.864 43.3995 15.0895 43.3995 15.8453 44.1553C16.6013 44.9113 16.6013 46.1369 15.8453 46.8927Z" fill="#2D527C"/>
</g>
<defs>
<clipPath id="clip0">
<rect width="60" height="60" fill="white"/>
</clipPath>
</defs>
</svg>
