<svg width="512" height="512" viewBox="0 0 512 512" fill="none" xmlns="http://www.w3.org/2000/svg">
<path fill-rule="evenodd" clip-rule="evenodd" d="M512 256L511.996 324.677L511.985 339.716L511.967 349.997L511.941 358.046L511.909 364.759L511.868 370.569L511.821 375.72L511.766 380.367L511.704 384.613L511.634 388.531L511.557 392.176L511.473 395.589L511.381 398.801L511.282 401.838L511.175 404.721L511.061 407.466L510.94 410.088L510.811 412.599L510.675 415.009L510.531 417.326L510.38 419.559L510.222 421.714L510.055 423.796L509.882 425.81L509.7 427.762L509.512 429.655L509.315 431.493L509.111 433.28L508.899 435.017L508.68 436.709L508.453 438.356L508.218 439.962L507.975 441.529L507.724 443.058L507.466 444.551L507.2 446.01L506.926 447.436L506.644 448.831L506.354 450.196L506.056 451.531L505.75 452.839L505.435 454.119L505.113 455.374L504.782 456.604L504.444 457.809L504.097 458.991L503.741 460.151L503.378 461.288L503.005 462.404L502.625 463.5L502.235 464.575L501.838 465.631L501.431 466.667L501.016 467.685L500.592 468.685L500.159 469.668L499.717 470.633L499.266 471.581L498.806 472.513L498.337 473.429L497.859 474.329L497.371 475.214L496.874 476.084L496.368 476.939L495.852 477.78L495.326 478.607L494.79 479.419L494.245 480.218L493.689 481.004L493.124 481.776L492.548 482.535L491.962 483.282L491.365 484.016L490.758 484.738L490.14 485.448L489.512 486.146L488.872 486.832L488.221 487.506L487.559 488.169L486.886 488.82L486.201 489.461L485.504 490.091L484.795 490.709L484.074 491.317L483.341 491.915L482.595 492.501L481.837 493.078L481.066 493.644L480.281 494.201L479.483 494.747L478.672 495.283L477.846 495.81L477.007 496.327L476.153 496.834L475.284 497.332L474.401 497.82L473.502 498.299L472.587 498.769L471.656 499.23L470.709 499.681L469.745 500.124L468.764 500.558L467.766 500.982L466.749 501.398L465.714 501.805L464.66 502.204L463.586 502.594L462.492 502.975L461.378 503.348L460.242 503.713L459.085 504.069L457.904 504.416L456.701 504.756L455.473 505.087L454.22 505.41L452.942 505.725L451.636 506.031L450.303 506.33L448.941 506.621L447.549 506.904L446.125 507.178L444.669 507.445L443.178 507.704L441.652 507.955L440.089 508.198L438.486 508.434L436.841 508.662L435.154 508.882L433.42 509.094L431.638 509.299L429.804 509.496L427.915 509.686L425.968 509.868L423.958 510.042L421.882 510.209L419.734 510.368L417.507 510.52L415.197 510.664L412.795 510.801L410.292 510.93L407.679 511.052L404.944 511.167L402.073 511.274L399.049 511.373L395.852 511.466L392.456 511.55L388.831 511.628L384.936 511.698L380.719 511.761L376.107 511.817L371.001 511.865L365.251 511.906L358.622 511.939L350.703 511.965L340.656 511.984L326.197 511.996L289.33 512L188.932 511.997L173.249 511.986L162.723 511.969L154.538 511.944L147.738 511.911L141.867 511.872L136.67 511.825L131.987 511.77L127.712 511.709L123.77 511.64L120.105 511.563L116.675 511.48L113.448 511.388L110.398 511.29L107.503 511.184L104.748 511.071L102.116 510.95L99.5967 510.822L97.1792 510.686L94.8547 510.543L92.6156 510.393L90.4552 510.234L88.3676 510.069L86.3477 509.896L84.391 509.715L82.4932 509.527L80.6508 509.331L78.8605 509.127L77.1192 508.916L75.4242 508.697L73.7732 508.471L72.1639 508.237L70.5941 507.994L69.0621 507.745L67.5661 507.487L66.1045 507.221L64.6758 506.948L63.2786 506.666L61.9118 506.377L60.574 506.08L59.2643 505.774L57.9815 505.461L56.7247 505.139L55.493 504.809L54.2857 504.471L53.1018 504.125L51.9406 503.77L50.8015 503.407L49.6837 503.035L48.5867 502.655L47.5099 502.267L46.4527 501.87L45.4145 501.464L44.395 501.049L43.3935 500.626L42.4097 500.194L41.4432 499.753L40.4934 499.302L39.5602 498.843L38.6429 498.375L37.7415 497.897L36.8554 497.41L35.9843 496.914L35.128 496.408L34.2862 495.893L33.4586 495.368L32.6449 494.833L31.8449 494.288L31.0583 493.734L30.2849 493.169L29.5244 492.594L28.7768 492.009L28.0416 491.413L27.3188 490.807L26.6081 490.19L25.9094 489.562L25.2225 488.923L24.5472 488.273L23.8834 487.612L23.2308 486.94L22.5894 486.256L21.959 485.56L21.3395 484.852L20.7307 484.132L20.1325 483.4L19.5447 482.655L18.9673 481.898L18.4001 481.127L17.8431 480.344L17.296 479.547L16.7589 478.737L16.2315 477.913L15.7138 477.074L15.2057 476.221L14.7072 475.354L14.218 474.471L13.7382 473.574L13.2677 472.66L12.8063 471.731L12.354 470.785L11.9108 469.823L11.4764 468.843L11.051 467.846L10.6344 466.831L10.2265 465.797L9.82725 464.744L9.43665 463.672L9.05461 462.58L8.68107 461.467L8.31597 460.333L7.95927 459.177L7.6109 457.999L7.27083 456.797L6.939 455.572L6.61536 454.321L6.29987 453.044L5.99248 451.741L5.69316 450.41L5.40186 449.05L5.11855 447.661L4.84318 446.24L4.57572 444.786L4.31613 443.298L4.06439 441.775L3.82045 440.214L3.58429 438.615L3.35587 436.974L3.13517 435.29L2.92217 433.56L2.71682 431.781L2.51911 429.952L2.32902 428.067L2.14652 426.125L1.97158 424.121L1.80419 422.05L1.64432 419.907L1.49197 417.688L1.3471 415.384L1.2097 412.99L1.07976 410.495L0.957258 407.892L0.842181 405.167L0.734516 402.307L0.63425 399.296L0.541372 396.113L0.45587 392.734L0.377735 389.129L0.306958 385.257L0.243531 381.068L0.187446 376.491L0.138697 371.428L0.0972778 365.737L0.0631844 359.19L0.0364125 351.396L0.0169592 341.569L0.00482212 327.638L0 296.63L0.00249225 190.644L0.0122991 174.244L0.0294218 163.456L0.0538622 155.131L0.0856232 148.241L0.124708 142.307L0.171122 137.063L0.22487 132.344L0.285958 128.04L0.354393 124.073L0.430183 120.387L0.513337 116.94L0.603864 113.698L0.701776 110.635L0.807083 107.729L0.919797 104.962L1.03993 102.321L1.1675 99.7934L1.30252 97.3681L1.44501 95.0365L1.59498 92.7908L1.75245 90.6243L1.91744 88.5312L2.08997 86.5061L2.27006 84.5445L2.45774 82.6422L2.65302 80.7955L2.85593 79.0011L3.06649 77.256L3.28474 75.5575L3.51069 73.903L3.74438 72.2904L3.98584 70.7176L4.23509 69.1827L4.49218 67.6838L4.75713 66.2195L5.02997 64.7883L5.31075 63.3887L5.5995 62.0194L5.89627 60.6794L6.20108 59.3675L6.51398 58.0826L6.83502 56.8237L7.16424 55.5901L7.50168 54.3808L7.8474 53.1951L8.20144 52.0321L8.56386 50.8913L8.9347 49.7718L9.31403 48.6732L9.7019 47.5948L10.0984 46.536L10.5035 45.4964L10.9173 44.4754L11.34 43.4725L11.7714 42.4873L12.2119 41.5194L12.6613 40.5684L13.1197 39.6338L13.5874 38.7153L14.0642 37.8126L14.5504 36.9252L15.0459 36.053L15.5509 35.1956L16.0655 34.3526L16.5898 33.5239L17.1238 32.7091L17.6677 31.908L18.2216 31.1203L18.7856 30.3459L19.3597 29.5844L19.9441 28.8357L20.539 28.0996L21.1444 27.3758L21.7605 26.6641L22.3875 25.9645L23.0253 25.2767L23.6743 24.6004L24.3345 23.9357L25.0061 23.2823L25.6893 22.64L26.3843 22.0087L27.0911 21.3883L27.81 20.7787L28.5412 20.1796L29.2849 19.591L30.0413 19.0128L30.8105 18.4448L31.5929 17.887L32.3886 17.3391L33.1979 16.8012L34.0211 16.273L34.8583 15.7546L35.71 15.2457L36.5763 14.7464L37.4576 14.2565L38.3541 13.776L39.2663 13.3047L40.1944 12.8426L41.1389 12.3896L42.1 11.9456L43.0783 11.5106L44.074 11.0844L45.0878 10.6671L46.1199 10.2585L47.171 9.8586L48.2415 9.46732L49.3321 9.0846L50.4431 8.71039L51.5754 8.34462L52.7295 7.98725L53.906 7.63823L55.1059 7.29749L56.3297 6.965L57.5784 6.64071L58.8528 6.32458L60.1538 6.01655L61.4826 5.71659L62.84 5.42465L64.2274 5.1407L65.6459 4.8647L67.0969 4.59661L68.5818 4.3364L70.1021 4.08403L71.6596 3.83947L73.2562 3.60269L74.8937 3.37366L76.5744 3.15235L78.3006 2.93873L80.075 2.73278L81.9005 2.53446L83.7803 2.34376L85.7178 2.16066L87.7171 1.98512L89.7826 1.81713L91.9192 1.65666L94.1325 1.50371L96.4291 1.35825L98.816 1.22025L101.302 1.08972L103.897 0.966625L106.611 0.850957L109.46 0.742702L112.458 0.641848L115.626 0.548382L118.988 0.462293L122.575 0.383572L126.423 0.312209L130.585 0.248197L135.128 0.191527L140.148 0.142194L145.782 0.100192L152.25 0.065515L159.923 0.0381602L169.541 0.0181242L182.989 0.00540459L210.38 0L319.524 0.00190979L336.729 0.0111342L347.795 0.0276742L356.267 0.0515318L363.249 0.0827097L369.248 0.121211L374.54 0.167041L379.296 0.220205L383.631 0.280708L387.622 0.348558L391.328 0.423762L394.793 0.506329L398.05 0.596269L401.127 0.693592L404.045 0.79831L406.822 0.910434L409.473 1.02998L412.009 1.15696L414.442 1.29138L416.781 1.43327L419.033 1.58265L421.206 1.73952L423.304 1.90391L425.335 2.07584L427.301 2.25533L429.208 2.4424L431.059 2.63707L432.858 2.83937L434.607 3.04933L436.309 3.26696L437.967 3.4923L439.582 3.72537L441.158 3.96621L442.696 4.21484L444.198 4.4713L445.665 4.73562L447.099 5.00784L448.501 5.28799L449.872 5.5761L451.215 5.87222L452.529 6.17639L453.816 6.48865L455.077 6.80904L456.312 7.13761L457.524 7.47439L458.711 7.81945L459.876 8.17283L461.018 8.53457L462.14 8.90475L463.24 9.2834L464.32 9.67058L465.38 10.0664L466.421 10.4708L467.444 10.8839L468.448 11.3059L469.435 11.7366L470.404 12.1763L471.356 12.625L472.292 13.0828L473.212 13.5497L474.116 14.0258L475.004 14.5112L475.878 15.006L476.736 15.5103L477.581 16.0241L478.41 16.5476L479.226 17.0808L480.028 17.624L480.817 18.177L481.593 18.7402L482.355 19.3135L483.105 19.8971L483.842 20.4911L484.567 21.0957L485.279 21.711L485.98 22.337L486.669 22.974L487.346 23.6221L488.012 24.2814L488.666 24.9521L489.309 25.6344L489.941 26.3284L490.562 27.0343L491.173 27.7522L491.773 28.4824L492.362 29.2251L492.941 29.9805L493.51 30.7487L494.069 31.53L494.617 32.3246L495.156 33.1329L495.685 33.9549L496.204 34.791L496.714 35.6415L497.214 36.5066L497.705 37.3867L498.186 38.282L498.658 39.1929L499.121 40.1198L499.574 41.0629L500.019 42.0227L500.455 42.9996L500.882 43.994L501.3 45.0063L501.709 46.0369L502.11 47.0865L502.502 48.1555L502.885 49.2444L503.26 50.3538L503.626 51.4843L503.984 52.6366L504.334 53.8114L504.675 55.0093L505.009 56.2312L505.334 57.4779L505.65 58.7502L505.959 60.0491L506.26 61.3756L506.552 62.7307L506.837 64.1157L507.113 65.5317L507.382 66.98L507.643 68.4621L507.896 69.9796L508.141 71.5341L508.379 73.1274L508.608 74.7616L508.83 76.4388L509.044 78.1613L509.251 79.9318L509.45 81.7531L509.641 83.6284L509.825 85.5612L510.001 87.5554L510.17 89.6154L510.331 91.7462L510.484 93.9532L510.63 96.2429L510.769 98.6224L510.9 101.1L511.024 103.686L511.14 106.39L511.249 109.228L511.35 112.213L511.444 115.367L511.531 118.713L511.61 122.28L511.682 126.106L511.747 130.241L511.804 134.751L511.854 139.728L511.897 145.306L511.932 151.697L511.96 159.254L511.98 168.673L511.994 181.678L512 206.471L512 256Z" fill="#BB5151"/>
<path d="M260.314 320.988C238.856 325.755 218.829 308.589 215.969 287.608C211.201 258.044 235.998 231.819 265.085 228.959C302.278 226.099 333.272 256.141 336.131 293.334C339.468 336.726 301.796 373.918 258.881 375.347C207.383 378.683 163.515 335.29 160.179 283.791C158.751 224.663 207.866 174.12 268.425 175.076C334.228 171.264 388.585 229.44 390.49 294.766C390.168 330.671 375.826 365.029 350.525 390.507C325.223 415.984 290.967 430.565 255.065 431.137C174.002 431.134 107.724 363.898 107.727 282.836C107.73 193.667 168.45 126.867 258.878 75.746" stroke="white" stroke-width="34" stroke-linecap="round" stroke-linejoin="round"/>
</svg>
