<svg xmlns="http://www.w3.org/2000/svg" width="0" height="0" xlink="http://www.w3.org/1999/xlink" style="display:none"><symbol id="home-4-line" viewBox="0 0 24 24"><path fill="none" d="M0 0h24v24H0z"/><path d="M19 21H5a1 1 0 0 1-1-1v-9H1l10.327-9.388a1 1 0 0 1 1.346 0L23 11h-3v9a1 1 0 0 1-1 1zm-6-2h5V9.157l-6-5.454-6 5.454V19h5v-6h2v6z"/></symbol><symbol id="terminal-box-line" viewBox="0 0 24 24"><path fill="none" d="M0 0h24v24H0z"/><path d="M3 3h18a1 1 0 0 1 1 1v16a1 1 0 0 1-1 1H3a1 1 0 0 1-1-1V4a1 1 0 0 1 1-1zm1 2v14h16V5H4zm8 10h6v2h-6v-2zm-3.333-3L5.838 9.172l1.415-1.415L11.495 12l-4.242 4.243-1.415-1.415L8.667 12z"/></symbol><symbol id="hashtag" viewBox="0 0 24 24"><path fill="none" d="M0 0h24v24H0z"/><path d="M7.784 14l.42-4H4V8h4.415l.525-5h2.011l-.525 5h3.989l.525-5h2.011l-.525 5H20v2h-3.784l-.42 4H20v2h-4.415l-.525 5h-2.011l.525-5H9.585l-.525 5H7.049l.525-5H4v-2h3.784zm2.011 0h3.99l.42-4h-3.99l-.42 4z"/></symbol><symbol id="fire-line" viewBox="0 0 24 24"><path fill="none" d="M0 0h24v24H0z"/><path d="M12 23a7.5 7.5 0 0 0 7.5-7.5c0-.866-.23-1.697-.5-2.47-1.667 1.647-2.933 2.47-3.8 2.47 3.995-7 1.8-10-4.2-14 .5 5-2.796 7.274-4.138 8.537A7.5 7.5 0 0 0 12 23zm.71-17.765c3.241 2.75 3.257 4.887.753 9.274-.761 1.333.202 2.991 1.737 2.991.688 0 1.384-.2 2.119-.595a5.5 5.5 0 1 1-9.087-5.412c.126-.118.765-.685.793-.71.424-.38.773-.717 1.118-1.086 1.23-1.318 2.114-2.78 2.566-4.462z"/></symbol><symbol id="github-fill" viewBox="0 0 24 24"><path fill="none" d="M0 0h24v24H0z"/><path d="M12 2C6.475 2 2 6.475 2 12a9.994 9.994 0 0 0 6.838 9.488c.5.087.687-.213.687-.476 0-.237-.013-1.024-.013-1.862-2.512.463-3.162-.612-3.362-1.175-.113-.288-.6-1.175-1.025-1.413-.35-.187-.85-.65-.013-.662.788-.013 1.35.725 1.538 1.025.9 1.512 2.338 1.087 2.912.825.088-.65.35-1.087.638-1.337-2.225-.25-4.55-1.113-4.55-4.938 0-1.088.387-1.987 1.025-2.688-.1-.25-.45-1.275.1-2.65 0 0 .837-.262 2.75 1.026a9.28 9.28 0 0 1 2.5-.338c.85 0 1.7.112 2.5.337 1.912-1.3 2.75-1.024 2.75-1.024.55 1.375.2 2.4.1 2.65.637.7 1.025 1.587 1.025 2.687 0 3.838-2.337 4.688-4.562 4.938.362.312.675.912.675 1.85 0 1.337-.013 2.412-.013 2.75 0 .262.188.574.688.474A10.016 10.016 0 0 0 22 12c0-5.525-4.475-10-10-10z"/></symbol><symbol id="play-line" viewBox="0 0 24 24"><path fill="none" d="M0 0h24v24H0z"/><path d="M16.394 12L10 7.737v8.526L16.394 12zm2.982.416L8.777 19.482A.5.5 0 0 1 8 19.066V4.934a.5.5 0 0 1 .777-.416l10.599 7.066a.5.5 0 0 1 0 .832z"/></symbol><symbol id="settings-5-line" viewBox="0 0 24 24"><path fill="none" d="M0 0h24v24H0z"/><path d="M2.213 14.06a9.945 9.945 0 0 1 0-4.12c1.11.13 2.08-.237 2.396-1.001.317-.765-.108-1.71-.986-2.403a9.945 9.945 0 0 1 2.913-2.913c.692.877 1.638 1.303 2.403.986.765-.317 1.132-1.286 1.001-2.396a9.945 9.945 0 0 1 4.12 0c-.13 1.11.237 2.08 1.001 2.396.765.317 1.71-.108 2.403-.986a9.945 9.945 0 0 1 2.913 2.913c-.877.692-1.303 1.638-.986 2.403.317.765 1.286 1.132 2.396 1.001a9.945 9.945 0 0 1 0 4.12c-1.11-.13-2.08.237-2.396 1.001-.317.765.108 1.71.986 2.403a9.945 9.945 0 0 1-2.913 2.913c-.692-.877-1.638-1.303-2.403-.986-.765.317-1.132 1.286-1.001 2.396a9.945 9.945 0 0 1-4.12 0c.13-1.11-.237-2.08-1.001-2.396-.765-.317-1.71.108-2.403.986a9.945 9.945 0 0 1-2.913-2.913c.877-.692 1.303-1.638.986-2.403-.317-.765-1.286-1.132-2.396-1.001zM4 12.21c1.1.305 2.007 1.002 2.457 2.086.449 1.085.3 2.22-.262 3.212.096.102.195.201.297.297.993-.562 2.127-.71 3.212-.262 1.084.45 1.781 1.357 2.086 2.457.14.004.28.004.42 0 .305-1.1 1.002-2.007 2.086-2.457 1.085-.449 2.22-.3 3.212.262.102-.096.201-.195.297-.297-.562-.993-.71-2.127-.262-3.212.45-1.084 1.357-1.781 2.457-2.086.004-.14.004-.28 0-.42-1.1-.305-2.007-1.002-2.457-2.086-.449-1.085-.3-2.22.262-3.212a7.935 7.935 0 0 0-.297-.297c-.993.562-2.127.71-3.212.262C13.212 6.007 12.515 5.1 12.21 4a7.935 7.935 0 0 0-.42 0c-.305 1.1-1.002 2.007-2.086 2.457-1.085.449-2.22.3-3.212-.262-.102.096-.201.195-.297.297.562.993.71 2.127.262 3.212C6.007 10.788 5.1 11.485 4 11.79c-.004.14-.004.28 0 .42zM12 15a3 3 0 1 1 0-6 3 3 0 0 1 0 6zm0-2a1 1 0 1 0 0-2 1 1 0 0 0 0 2z"/></symbol><symbol id="question-line" viewBox="0 0 24 24"><path fill="none" d="M0 0h24v24H0z"/><path d="M12 22C6.477 22 2 17.523 2 12S6.477 2 12 2s10 4.477 10 10-4.477 10-10 10zm0-2a8 8 0 1 0 0-16 8 8 0 0 0 0 16zm-1-5h2v2h-2v-2zm2-1.645V14h-2v-1.5a1 1 0 0 1 1-1 1.5 1.5 0 1 0-1.471-1.794l-1.962-.393A3.501 3.501 0 1 1 13 13.355z"/></symbol><symbol id="keyboard-box-line" viewBox="0 0 24 24"><path fill="none" d="M0 0h24v24H0z"/><path d="M4 5v14h16V5H4zM3 3h18a1 1 0 0 1 1 1v16a1 1 0 0 1-1 1H3a1 1 0 0 1-1-1V4a1 1 0 0 1 1-1zm3 4h2v2H6V7zm0 4h2v2H6v-2zm0 4h12v2H6v-2zm5-4h2v2h-2v-2zm0-4h2v2h-2V7zm5 0h2v2h-2V7zm0 4h2v2h-2v-2z"/></symbol><symbol id="file-list-2-line" viewBox="0 0 24 24"><path fill="none" d="M0 0h24v24H0z"/><path d="M20 22H4a1 1 0 0 1-1-1V3a1 1 0 0 1 1-1h16a1 1 0 0 1 1 1v18a1 1 0 0 1-1 1zm-1-2V4H5v16h14zM8 7h8v2H8V7zm0 4h8v2H8v-2zm0 4h5v2H8v-2z"/></symbol><symbol id="close-circle-line" viewBox="0 0 24 24"><path fill="none" d="M0 0h24v24H0z"/><path d="M12 22C6.477 22 2 17.523 2 12S6.477 2 12 2s10 4.477 10 10-4.477 10-10 10zm0-2a8 8 0 1 0 0-16 8 8 0 0 0 0 16zm0-9.414l2.828-2.829 1.415 1.415L13.414 12l2.829 2.828-1.415 1.415L12 13.414l-2.828 2.829-1.415-1.415L10.586 12 7.757 9.172l1.415-1.415L12 10.586z"/></symbol><symbol id="delete-bin-line" viewBox="0 0 24 24"><path fill="none" d="M0 0h24v24H0z"/><path d="M17 6h5v2h-2v13a1 1 0 0 1-1 1H5a1 1 0 0 1-1-1V8H2V6h5V3a1 1 0 0 1 1-1h8a1 1 0 0 1 1 1v3zm1 2H6v12h12V8zm-9 3h2v6H9v-6zm4 0h2v6h-2v-6zM9 4v2h6V4H9z"/></symbol><symbol id="filter-3-fill" viewBox="0 0 24 24"><path fill="none" d="M0 0h24v24H0z"/><path d="M10 18h4v-2h-4v2zM3 6v2h18V6H3zm3 7h12v-2H6v2z"/></symbol><symbol id="terminal-line" viewBox="0 0 24 24"><path fill="none" d="M0 0h24v24H0z"/><path d="M11 12l-7.071 7.071-1.414-1.414L8.172 12 2.515 6.343 3.929 4.93 11 12zm0 7h10v2H11v-2z"/></symbol><symbol id="close-circle-fill" viewBox="0 0 24 24"><path fill="none" d="M0 0h24v24H0z"/><path d="M12 22C6.477 22 2 17.523 2 12S6.477 2 12 2s10 4.477 10 10-4.477 10-10 10zm0-11.414L9.172 7.757 7.757 9.172 10.586 12l-2.829 2.828 1.415 1.415L12 13.414l2.828 2.829 1.415-1.415L13.414 12l2.829-2.828-1.415-1.415L12 10.586z"/></symbol><symbol id="close-line" viewBox="0 0 24 24"><path fill="none" d="M0 0h24v24H0z"/><path d="M12 10.586l4.95-4.95 1.414 1.414-4.95 4.95 4.95 4.95-1.414 1.414-4.95-4.95-4.95 4.95-1.414-1.414 4.95-4.95-4.95-4.95L7.05 5.636z"/></symbol></svg>