<svg width="300" height="300" viewBox="0 0 300 300" fill="none" xmlns="http://www.w3.org/2000/svg">
<g clip-path="url(#clip0)">
<path d="M121.206 167.214C112.501 199.532 94.0732 227.817 60.6031 227.817C27.1329 227.817 0 200.684 0 167.214C0 133.743 35.2777 128.494 60.6031 106.61C112.031 62.1722 148.239 66.8496 121.206 167.214Z" fill="#EDF2F7"/>
<path d="M138.961 87.3872C149.646 87.3872 158.308 78.725 158.308 68.0397C158.308 57.3544 149.646 48.6923 138.961 48.6923C128.276 48.6923 119.613 57.3544 119.613 68.0397C119.613 78.725 128.276 87.3872 138.961 87.3872Z" fill="#E6709A"/>
<path d="M173.957 41.0102H163.714V51.253H173.957V41.0102Z" fill="#E6709A"/>
<path d="M61.3422 234.521C88.0554 234.521 109.711 231.575 109.711 227.941C109.711 224.307 88.0554 221.361 61.3422 221.361C34.6289 221.361 12.9735 224.307 12.9735 227.941C12.9735 231.575 34.6289 234.521 61.3422 234.521Z" fill="#3F3D56"/>
<path d="M140.383 74.8683H74.9436V108.157H140.383V74.8683Z" fill="#596AA8"/>
<path d="M58.7259 218.267C71.1397 218.267 81.2031 208.204 81.2031 195.79C81.2031 183.376 71.1397 173.313 58.7259 173.313C46.3121 173.313 36.2487 183.376 36.2487 195.79C36.2487 208.204 46.3121 218.267 58.7259 218.267Z" fill="#9CC4EA"/>
<path d="M55.3116 213.43H48.4831V225.665H55.3116V213.43Z" fill="#9CC4EA"/>
<path d="M68.9686 213.43H62.1401V225.665H68.9686V213.43Z" fill="#9CC4EA"/>
<path d="M54.1735 227.941C57.3163 227.941 59.8639 226.985 59.8639 225.807C59.8639 224.628 57.3163 223.673 54.1735 223.673C51.0308 223.673 48.4831 224.628 48.4831 225.807C48.4831 226.985 51.0308 227.941 54.1735 227.941Z" fill="#9CC4EA"/>
<path d="M67.8305 227.656C70.9733 227.656 73.521 226.701 73.521 225.522C73.521 224.344 70.9733 223.388 67.8305 223.388C64.6878 223.388 62.1401 224.344 62.1401 225.522C62.1401 226.701 64.6878 227.656 67.8305 227.656Z" fill="#9CC4EA"/>
<path d="M59.2949 197.781C63.5376 197.781 66.977 194.342 66.977 190.099C66.977 185.857 63.5376 182.417 59.2949 182.417C55.0522 182.417 51.6128 185.857 51.6128 190.099C51.6128 194.342 55.0522 197.781 59.2949 197.781Z" fill="white"/>
<path d="M59.2949 192.66C60.7091 192.66 61.8556 191.514 61.8556 190.099C61.8556 188.685 60.7091 187.539 59.2949 187.539C57.8807 187.539 56.7342 188.685 56.7342 190.099C56.7342 191.514 57.8807 192.66 59.2949 192.66Z" fill="#3F3D56"/>
<path d="M36.9222 174.887C35.1073 166.759 40.9089 158.546 49.8805 156.542C58.852 154.539 67.5962 159.504 69.4111 167.632C71.2261 175.76 65.2803 178.758 56.3087 180.761C47.3372 182.765 38.7372 183.015 36.9222 174.887Z" fill="#596AA8"/>
<path d="M51.0438 153.681C63.4576 153.681 73.521 143.617 73.521 131.203C73.521 118.79 63.4576 108.726 51.0438 108.726C38.63 108.726 28.5666 118.79 28.5666 131.203C28.5666 143.617 38.63 153.681 51.0438 153.681Z" fill="#9CC4EA"/>
<path d="M47.6295 148.844H40.801V161.078H47.6295V148.844Z" fill="#9CC4EA"/>
<path d="M61.2866 148.844H54.458V161.078H61.2866V148.844Z" fill="#9CC4EA"/>
<path d="M46.4914 163.354C49.6342 163.354 52.1819 162.399 52.1819 161.221C52.1819 160.042 49.6342 159.087 46.4914 159.087C43.3487 159.087 40.801 160.042 40.801 161.221C40.801 162.399 43.3487 163.354 46.4914 163.354Z" fill="#9CC4EA"/>
<path d="M60.1485 163.07C63.2912 163.07 65.8389 162.114 65.8389 160.936C65.8389 159.757 63.2912 158.802 60.1485 158.802C57.0057 158.802 54.458 159.757 54.458 160.936C54.458 162.114 57.0057 163.07 60.1485 163.07Z" fill="#9CC4EA"/>
<path d="M51.6128 133.195C55.8555 133.195 59.2949 129.756 59.2949 125.513C59.2949 121.27 55.8555 117.831 51.6128 117.831C47.3701 117.831 43.9307 121.27 43.9307 125.513C43.9307 129.756 47.3701 133.195 51.6128 133.195Z" fill="white"/>
<path d="M51.6128 128.074C53.0271 128.074 54.1735 126.927 54.1735 125.513C54.1735 124.099 53.0271 122.952 51.6128 122.952C50.1986 122.952 49.0521 124.099 49.0521 125.513C49.0521 126.927 50.1986 128.074 51.6128 128.074Z" fill="#3F3D56"/>
<path d="M29.2401 110.3C27.4252 102.172 33.2268 93.9592 42.1984 91.9559C51.17 89.9526 59.9141 94.9178 61.7291 103.046C63.544 111.174 57.5982 114.172 48.6267 116.175C39.6551 118.178 31.0551 118.428 29.2401 110.3Z" fill="#596AA8"/>
<path d="M75.115 115.49C77.3311 109.692 77.652 104.428 75.8319 103.732C74.0118 103.036 70.7399 107.173 68.5238 112.97C66.3078 118.768 65.9868 124.032 67.8069 124.728C69.627 125.424 72.899 121.287 75.115 115.49Z" fill="#9CC4EA"/>
<path d="M35.8813 125.59C36.7164 123.829 32.847 120.246 27.2389 117.586C21.6308 114.926 16.4076 114.197 15.5726 115.958C14.7376 117.718 18.6069 121.302 24.2151 123.962C29.8232 126.622 35.0463 127.351 35.8813 125.59Z" fill="#9CC4EA"/>
<path d="M40.0031 139.312C40.0031 141.512 45.6675 145.856 51.953 145.856C58.2384 145.856 64.1318 139.663 64.1318 137.463C64.1318 135.263 58.2384 137.89 51.953 137.89C45.6675 137.89 40.0031 137.112 40.0031 139.312Z" fill="white"/>
<path d="M146.643 70.0314H81.203V103.32H146.643V70.0314Z" stroke="#596AA8" stroke-width="0.569043" stroke-miterlimit="10"/>
<path d="M177.371 38.4495H167.129V48.6923H177.371V38.4495Z" stroke="#3F3D56" stroke-width="0.569043" stroke-miterlimit="10"/>
<path d="M300 191.891C300 215.173 286.159 223.302 269.086 223.302C252.013 223.302 238.172 215.173 238.172 191.891C238.172 168.609 269.086 138.991 269.086 138.991C269.086 138.991 300 168.609 300 191.891Z" fill="#EDF2F7"/>
<path d="M267.96 219.741L268.277 200.256L281.453 176.15L268.326 197.199L268.469 188.438L277.549 170.998L268.506 186.12V186.12L268.762 170.362L278.486 156.478L268.802 167.885L268.962 138.991L267.957 177.241L268.04 175.663L258.153 160.53L267.881 178.692L266.96 196.29L266.933 195.823L255.535 179.898L266.898 197.473L266.783 199.674L266.762 199.707L266.772 199.888L264.435 244.535H267.557L267.932 221.474L279.267 203.942L267.96 219.741Z" fill="#3F3D56"/>
<path d="M265.763 247.719C271.699 247.719 276.512 246.294 276.512 244.535C276.512 242.776 271.699 241.35 265.763 241.35C259.826 241.35 255.014 242.776 255.014 244.535C255.014 246.294 259.826 247.719 265.763 247.719Z" fill="#3F3D56"/>
<path d="M217.544 261.835C244.258 261.835 265.913 258.889 265.913 255.255C265.913 251.621 244.258 248.675 217.544 248.675C190.831 248.675 169.176 251.621 169.176 255.255C169.176 258.889 190.831 261.835 217.544 261.835Z" fill="#3F3D56"/>
<path d="M218.113 244.016C230.527 244.016 240.591 233.953 240.591 221.539C240.591 209.125 230.527 199.062 218.113 199.062C205.7 199.062 195.636 209.125 195.636 221.539C195.636 233.953 205.7 244.016 218.113 244.016Z" fill="#9CC4EA"/>
<path d="M221.528 251.414H228.356V239.179H221.528V251.414Z" fill="#9CC4EA"/>
<path d="M207.871 251.414H214.699V239.179H207.871V251.414Z" fill="#9CC4EA"/>
<path d="M210.929 254.542C213.651 252.971 215.38 250.87 214.79 249.849C214.201 248.828 211.517 249.275 208.795 250.846C206.074 252.417 204.345 254.519 204.934 255.539C205.524 256.56 208.208 256.114 210.929 254.542Z" fill="#9CC4EA"/>
<path d="M224.302 254.542C227.023 252.971 228.752 250.87 228.163 249.849C227.574 248.828 224.89 249.275 222.168 250.846C219.446 252.417 217.718 254.519 218.307 255.539C218.896 256.56 221.58 256.114 224.302 254.542Z" fill="#9CC4EA"/>
<path d="M217.544 223.531C221.787 223.531 225.226 220.091 225.226 215.849C225.226 211.606 221.787 208.167 217.544 208.167C213.302 208.167 209.862 211.606 209.862 215.849C209.862 220.091 213.302 223.531 217.544 223.531Z" fill="white"/>
<path d="M214.928 215.137C216.342 215.137 217.489 213.991 217.489 212.577C217.489 211.162 216.342 210.016 214.928 210.016C213.514 210.016 212.367 211.162 212.367 212.577C212.367 213.991 213.514 215.137 214.928 215.137Z" fill="#3F3D56"/>
<path d="M239.917 200.636C241.732 192.508 235.93 184.295 226.959 182.291C217.987 180.288 209.243 185.253 207.428 193.381C205.613 201.509 211.559 204.507 220.531 206.511C229.502 208.514 238.102 208.764 239.917 200.636Z" fill="#596AA8"/>
<path d="M208.752 218.235C209.519 216.443 205.515 213.011 199.808 210.569C194.102 208.127 188.855 207.599 188.088 209.39C187.322 211.182 191.326 214.614 197.032 217.056C202.738 219.498 207.986 220.026 208.752 218.235Z" fill="#9CC4EA"/>
<path d="M250.861 233.314C251.628 231.523 247.624 228.091 241.918 225.649C236.211 223.206 230.964 222.679 230.197 224.47C229.431 226.261 233.435 229.693 239.141 232.136C244.847 234.578 250.095 235.106 250.861 233.314Z" fill="#9CC4EA"/>
<path d="M190.459 200.342H180.216V210.585H190.459V200.342Z" fill="#E6709A"/>
<path d="M179.647 182.133H169.405V192.376H179.647V182.133Z" stroke="#3F3D56" stroke-width="0.569043" stroke-miterlimit="10"/>
<path d="M222.61 231.355C222.61 232.713 222.071 234.016 221.11 234.976C220.15 235.937 218.847 236.476 217.489 236.476C216.131 236.476 214.828 235.937 213.867 234.976C212.907 234.016 212.367 232.713 212.367 231.355C212.367 228.527 214.66 227.941 217.489 227.941C220.317 227.941 222.61 228.527 222.61 231.355Z" fill="white"/>
</g>
<defs>
<clipPath id="clip0">
<rect width="300" height="300" fill="white"/>
</clipPath>
</defs>
</svg>
